Play-Bold.ufo
<glyph name="exclam" format="2">
  <advance width="295"/>
  <unicode hex="0021"/>
  <outline>
    <contour>
      <point x="103" y="188" type="line"/>
      <point x="192" y="188" type="line"/>
      <point x="235" y="649" type="line"/>
      <point x="60" y="649" type="line"/>
    </contour>
    <contour>
      <point x="70" y="0" type="line"/>
      <point x="226" y="0" type="line"/>
      <point x="226" y="138" type="line"/>
      <point x="70" y="138" type="line"/>
    </contour>
  </outline>
</glyph>
<glyph name="quotedbl" format="2">
  <advance width="443"/>
  <unicode hex="0022"/>
  <outline>
    <contour>
      <point x="257" y="399" type="line"/>
      <point x="376" y="399" type="line"/>
      <point x="376" y="649" type="line"/>
      <point x="257" y="649" type="line"/>
    </contour>
    <contour>
      <point x="67" y="399" type="line"/>
      <point x="185" y="399" type="line"/>
      <point x="185" y="649" type="line"/>
      <point x="67" y="649" type="line"/>
    </contour>
  </outline>
</glyph>
<glyph name="numbersign" format="2">
  <advance width="580"/>
  <unicode hex="0023"/>
  <outline>
    <contour>
      <point x="107" y="0" type="line"/>
      <point x="193" y="0" type="line"/>
      <point x="232" y="193" type="line"/>
      <point x="296" y="193" type="line"/>
      <point x="257" y="0" type="line"/>
      <point x="343" y="0" type="line"/>
      <point x="382" y="193" type="line"/>
      <point x="520" y="193" type="line"/>
      <point x="520" y="272" type="line"/>
      <point x="398" y="272" type="line"/>
      <point x="419" y="376" type="line"/>
      <point x="520" y="376" type="line"/>
      <point x="520" y="456" type="line"/>
      <point x="436" y="456" type="line"/>
      <point x="473" y="639" type="line"/>
      <point x="387" y="639" type="line"/>
      <point x="350" y="456" type="line"/>
      <point x="286" y="456" type="line"/>
      <point x="323" y="639" type="line"/>
      <point x="237" y="639" type="line"/>
      <point x="200" y="456" type="line"/>
      <point x="60" y="456" type="line"/>
      <point x="60" y="376" type="line"/>
      <point x="184" y="376" type="line"/>
      <point x="162" y="272" type="line"/>
      <point x="60" y="272" type="line"/>
      <point x="60" y="193" type="line"/>
      <point x="146" y="193" type="line"/>
    </contour>
    <contour>
      <point x="248" y="272" type="line"/>
      <point x="269" y="376" type="line"/>
      <point x="334" y="376" type="line"/>
      <point x="312" y="272" type="line"/>
    </contour>
  </outline>
</glyph>
<glyph name="dollar" format="2">
  <advance width="606"/>
  <unicode hex="0024"/>
  <outline>
    <contour>
      <point x="260" y="-140" type="line"/>
      <point x="354" y="-140" type="line"/>
      <point x="354" y="-6" type="line"/>
      <point x="491" y="7"/>
      <point x="573" y="61"/>
      <point x="573" y="185" type="curve" smooth="yes"/>
      <point x="573" y="215" type="line"/>
      <point x="573" y="324"/>
      <point x="518" y="381"/>
      <point x="367" y="381" type="curve" smooth="yes"/>
      <point x="354" y="381" type="line"/>
      <point x="354" y="529" type="line"/>
      <point x="396" y="528"/>
      <point x="458" y="522"/>
      <point x="541" y="512" type="curve"/>
      <point x="541" y="619" type="line"/>
      <point x="482" y="625"/>
      <point x="419" y="629"/>
      <point x="354" y="632" type="curve"/>
      <point x="354" y="702" type="line"/>
      <point x="260" y="702" type="line"/>
      <point x="260" y="630" type="line"/>
      <point x="100" y="621"/>
      <point x="33" y="568"/>
      <point x="33" y="467" type="curve" smooth="yes"/>
      <point x="33" y="433" type="line" smooth="yes"/>
      <point x="33" y="320"/>
      <point x="102" y="263"/>
      <point x="241" y="263" type="curve" smooth="yes"/>
      <point x="260" y="263" type="line"/>
      <point x="260" y="97" type="line"/>
      <point x="223" y="97"/>
      <point x="179" y="102"/>
      <point x="155" y="106" type="curve"/>
      <point x="130" y="109"/>
      <point x="69" y="119"/>
      <point x="46" y="123" type="curve"/>
      <point x="46" y="8" type="line"/>
      <point x="135" y="-3"/>
      <point x="207" y="-9"/>
      <point x="260" y="-10" type="curve"/>
    </contour>
    <contour>
      <point x="354" y="102" type="curve"/>
      <point x="354" y="263" type="line"/>
      <point x="409" y="259"/>
      <point x="422" y="240"/>
      <point x="422" y="209" type="curve" smooth="yes"/>
      <point x="422" y="153" type="line"/>
      <point x="422" y="126"/>
      <point x="399" y="109"/>
    </contour>
    <contour>
      <point x="260" y="381" type="line"/>
      <point x="209" y="382"/>
      <point x="183" y="397"/>
      <point x="183" y="425" type="curve" smooth="yes"/>
      <point x="183" y="481" type="line" smooth="yes"/>
      <point x="183" y="513"/>
      <point x="201" y="524"/>
      <point x="260" y="528" type="curve"/>
    </contour>
  </outline>
</glyph>
<glyph name="quotesingle" format="2">
  <advance width="256"/>
  <unicode hex="0027"/>
  <outline>
    <contour>
      <point x="69" y="399" type="line"/>
      <point x="187" y="399" type="line"/>
      <point x="187" y="649" type="line"/>
      <point x="69" y="649" type="line"/>
    </contour>
  </outline>
</glyph>
<glyph name="parenleft" format="2">
  <advance width="348"/>
  <unicode hex="0028"/>
  <outline>
    <contour>
      <point x="201" y="-127" type="curve"/>
      <point x="338" y="-127" type="line"/>
      <point x="255" y="5"/>
      <point x="213" y="139"/>
      <point x="213" y="276" type="curve" smooth="yes"/>
      <point x="213" y="408"/>
      <point x="254" y="542"/>
      <point x="337" y="679" type="curve"/>
      <point x="201" y="679" type="line"/>
      <point x="112" y="551"/>
      <point x="70" y="428"/>
      <point x="70" y="276" type="curve" smooth="yes"/>
      <point x="70" y="129"/>
      <point x="114" y="-5"/>
    </contour>
  </outline>
</glyph>
<glyph name="parenright" format="2">
  <advance width="348"/>
  <unicode hex="0029"/>
  <outline>
    <contour>
      <point x="0" y="-127" type="curve"/>
      <point x="137" y="-127" type="line"/>
      <point x="224" y="-5"/>
      <point x="268" y="129"/>
      <point x="268" y="276" type="curve" smooth="yes"/>
      <point x="268" y="428"/>
      <point x="226" y="551"/>
      <point x="137" y="679" type="curve"/>
      <point x="1" y="679" type="line"/>
      <point x="84" y="542"/>
      <point x="125" y="408"/>
      <point x="125" y="276" type="curve" smooth="yes"/>
      <point x="125" y="139"/>
      <point x="83" y="5"/>
    </contour>
  </outline>
</glyph>
<glyph name="asterisk" format="2">
  <advance width="446"/>
  <unicode hex="002A"/>
  <outline>
    <contour>
      <point x="167" y="312" type="line"/>
      <point x="223" y="407" type="line"/>
      <point x="278" y="312" type="line"/>
      <point x="367" y="371" type="line"/>
      <point x="292" y="457" type="line"/>
      <point x="401" y="481" type="line"/>
      <point x="369" y="581" type="line"/>
      <point x="268" y="538" type="line"/>
      <point x="278" y="649" type="line"/>
      <point x="172" y="649" type="line"/>
      <point x="183" y="537" type="line"/>
      <point x="78" y="581" type="line"/>
      <point x="44" y="481" type="line"/>
      <point x="156" y="457" type="line"/>
      <point x="79" y="372" type="line"/>
    </contour>
  </outline>
</glyph>
<glyph name="plus" format="2">
  <advance width="580"/>
  <unicode hex="002B"/>
  <outline>
    <contour>
      <point x="239" y="84" type="line"/>
      <point x="340" y="84" type="line"/>
      <point x="340" y="264" type="line"/>
      <point x="510" y="264" type="line"/>
      <point x="510" y="365" type="line"/>
      <point x="340" y="365" type="line"/>
      <point x="340" y="544" type="line"/>
      <point x="239" y="544" type="line"/>
      <point x="239" y="365" type="line"/>
      <point x="70" y="365" type="line"/>
      <point x="70" y="264" type="line"/>
      <point x="239" y="264" type="line"/>
    </contour>
  </outline>
</glyph>
<glyph name="comma" format="2">
  <advance width="256"/>
  <unicode hex="002C"/>
  <outline>
    <contour>
      <point x="19" y="-112" type="line"/>
      <point x="123" y="-112" type="line"/>
      <point x="217" y="138" type="line"/>
      <point x="65" y="138" type="line"/>
    </contour>
  </outline>
</glyph>
<glyph name="hyphen" format="2">
  <advance width="388"/>
  <unicode hex="002D"/>
  <outline>
    <contour>
      <point x="40" y="230" type="line"/>
      <point x="348" y="230" type="line"/>
      <point x="348" y="342" type="line"/>
      <point x="40" y="342" type="line"/>
    </contour>
  </outline>
</glyph>
<glyph name="period" format="2">
  <advance width="256"/>
  <unicode hex="002E"/>
  <outline>
    <contour>
      <point x="50" y="0" type="line"/>
      <point x="206" y="0" type="line"/>
      <point x="206" y="138" type="line"/>
      <point x="50" y="138" type="line"/>
    </contour>
  </outline>
</glyph>
<glyph name="slash" format="2">
  <advance width="431"/>
  <unicode hex="002F"/>
  <outline>
    <contour>
      <point x="10" y="-10" type="line"/>
      <point x="97" y="-10" type="line"/>
      <point x="421" y="659" type="line"/>
      <point x="334" y="659" type="line"/>
    </contour>
  </outline>
</glyph>
<glyph name="zero" format="2">
  <advance width="580"/>
  <unicode hex="0030"/>
  <outline>
    <contour>
      <point x="289" y="-10" type="curve" smooth="yes"/>
      <point x="316" y="-10"/>
      <point x="339" y="-9"/>
      <point x="358" y="-7" type="curve" smooth="yes"/>
      <point x="396" y="-4"/>
      <point x="449" y="10"/>
      <point x="478" y="34" type="curve" smooth="yes"/>
      <point x="506" y="58"/>
      <point x="529" y="105"/>
      <point x="529" y="169" type="curve" smooth="yes"/>
      <point x="529" y="480" type="line" smooth="yes"/>
      <point x="529" y="512"/>
      <point x="524" y="540"/>
      <point x="514" y="563" type="curve" smooth="yes"/>
      <point x="494" y="609"/>
      <point x="468" y="630"/>
      <point x="421" y="644" type="curve" smooth="yes"/>
      <point x="374" y="658"/>
      <point x="342" y="659"/>
      <point x="289" y="659" type="curve" smooth="yes"/>
      <point x="262" y="659"/>
      <point x="238" y="658"/>
      <point x="219" y="657" type="curve"/>
      <point x="180" y="653"/>
      <point x="128" y="640"/>
      <point x="101" y="616" type="curve" smooth="yes"/>
      <point x="73" y="591"/>
      <point x="51" y="544"/>
      <point x="51" y="480" type="curve" smooth="yes"/>
      <point x="51" y="169" type="line"/>
      <point x="51" y="137"/>
      <point x="56" y="110"/>
      <point x="66" y="87" type="curve" smooth="yes"/>
      <point x="85" y="41"/>
      <point x="110" y="18"/>
      <point x="156" y="5" type="curve" smooth="yes"/>
      <point x="202" y="-8"/>
      <point x="234" y="-10"/>
    </contour>
    <contour>
      <point x="291" y="84" type="curve" smooth="yes"/>
      <point x="208" y="84"/>
      <point x="199" y="96"/>
      <point x="199" y="159" type="curve" smooth="yes"/>
      <point x="199" y="490" type="line"/>
      <point x="199" y="553"/>
      <point x="208" y="565"/>
      <point x="291" y="565" type="curve" smooth="yes"/>
      <point x="372" y="565"/>
      <point x="381" y="553"/>
      <point x="381" y="490" type="curve" smooth="yes"/>
      <point x="381" y="159" type="line" smooth="yes"/>
      <point x="381" y="96"/>
      <point x="372" y="84"/>
    </contour>
  </outline>
</glyph>
<glyph name="one" format="2">
  <advance width="580"/>
  <unicode hex="0031"/>
  <outline>
    <contour>
      <point x="262" y="0" type="line"/>
      <point x="408" y="0" type="line"/>
      <point x="408" y="649" type="line"/>
      <point x="290" y="649" type="line"/>
      <point x="85" y="521" type="line"/>
      <point x="85" y="398" type="line"/>
      <point x="262" y="496" type="line"/>
    </contour>
  </outline>
</glyph>
<glyph name="two" format="2">
  <advance width="580"/>
  <unicode hex="0032"/>
  <outline>
    <contour>
      <point x="58" y="0" type="line"/>
      <point x="514" y="0" type="line"/>
      <point x="514" y="109" type="line"/>
      <point x="202" y="109" type="line"/>
      <point x="202" y="142" type="line" smooth="yes"/>
      <point x="202" y="185"/>
      <point x="251" y="213"/>
      <point x="312" y="234" type="curve" smooth="yes"/>
      <point x="343" y="244"/>
      <point x="373" y="255"/>
      <point x="404" y="268" type="curve" smooth="yes"/>
      <point x="464" y="292"/>
      <point x="513" y="342"/>
      <point x="513" y="413" type="curve" smooth="yes"/>
      <point x="513" y="503" type="line" smooth="yes"/>
      <point x="513" y="618"/>
      <point x="433" y="659"/>
      <point x="280" y="659" type="curve" smooth="yes"/>
      <point x="208" y="659"/>
      <point x="138" y="652"/>
      <point x="71" y="638" type="curve"/>
      <point x="71" y="528" type="line"/>
      <point x="148" y="545"/>
      <point x="208" y="553"/>
      <point x="253" y="553" type="curve" smooth="yes"/>
      <point x="292" y="553"/>
      <point x="320" y="549"/>
      <point x="337" y="542" type="curve" smooth="yes"/>
      <point x="354" y="535"/>
      <point x="362" y="521"/>
      <point x="362" y="501" type="curve" smooth="yes"/>
      <point x="362" y="418" type="line" smooth="yes"/>
      <point x="362" y="381"/>
      <point x="314" y="357"/>
      <point x="255" y="337" type="curve" smooth="yes"/>
      <point x="225" y="327"/>
      <point x="195" y="316"/>
      <point x="166" y="303" type="curve" smooth="yes"/>
      <point x="106" y="277"/>
      <point x="58" y="223"/>
      <point x="58" y="148" type="curve" smooth="yes"/>
    </contour>
  </outline>
</glyph>
<glyph name="three" format="2">
  <advance width="580"/>
  <unicode hex="0033"/>
  <outline>
    <contour>
      <point x="265" y="-10" type="curve" smooth="yes"/>
      <point x="426" y="-10"/>
      <point x="502" y="33"/>
      <point x="502" y="145" type="curve" smooth="yes"/>
      <point x="502" y="251" type="line"/>
      <point x="502" y="294"/>
      <point x="473" y="327"/>
      <point x="414" y="348" type="curve"/>
      <point x="447" y="357"/>
      <point x="476" y="384"/>
      <point x="476" y="425" type="curve" smooth="yes"/>
      <point x="476" y="532" type="line" smooth="yes"/>
      <point x="476" y="629"/>
      <point x="402" y="659"/>
      <point x="245" y="659" type="curve" smooth="yes"/>
      <point x="208" y="659"/>
      <point x="144" y="656"/>
      <point x="53" y="650" type="curve"/>
      <point x="53" y="546" type="line"/>
      <point x="132" y="554"/>
      <point x="190" y="558"/>
      <point x="229" y="558" type="curve" smooth="yes"/>
      <point x="309" y="558"/>
      <point x="326" y="545"/>
      <point x="326" y="504" type="curve" smooth="yes"/>
      <point x="326" y="441" type="line" smooth="yes"/>
      <point x="326" y="403"/>
      <point x="300" y="384"/>
      <point x="248" y="384" type="curve" smooth="yes"/>
      <point x="130" y="384" type="line"/>
      <point x="130" y="284" type="line"/>
      <point x="248" y="284" type="line" smooth="yes"/>
      <point x="315" y="284"/>
      <point x="349" y="268"/>
      <point x="349" y="237" type="curve" smooth="yes"/>
      <point x="349" y="162" type="line" smooth="yes"/>
      <point x="349" y="110"/>
      <point x="323" y="95"/>
      <point x="246" y="95" type="curve" smooth="yes"/>
      <point x="223" y="95"/>
      <point x="205" y="96"/>
      <point x="185" y="98" type="curve" smooth="yes"/>
      <point x="165" y="100"/>
      <point x="157" y="100"/>
      <point x="134" y="104" type="curve" smooth="yes"/>
      <point x="110" y="108"/>
      <point x="108" y="109"/>
      <point x="79" y="115" type="curve" smooth="yes"/>
      <point x="64" y="118"/>
      <point x="54" y="120"/>
      <point x="47" y="121" type="curve"/>
      <point x="47" y="5" type="line"/>
      <point x="136" y="-5"/>
      <point x="208" y="-10"/>
    </contour>
  </outline>
</glyph>
<glyph name="four" format="2">
  <advance width="580"/>
  <unicode hex="0034"/>
  <outline>
    <contour>
      <point x="326" y="0" type="line"/>
      <point x="458" y="0" type="line"/>
      <point x="458" y="131" type="line"/>
      <point x="528" y="131" type="line"/>
      <point x="528" y="236" type="line"/>
      <point x="458" y="236" type="line"/>
      <point x="458" y="649" type="line"/>
      <point x="293" y="649" type="line"/>
      <point x="26" y="246" type="line"/>
      <point x="26" y="131" type="line"/>
      <point x="326" y="131" type="line"/>
    </contour>
    <contour>
      <point x="151" y="236" type="line"/>
      <point x="326" y="511" type="line"/>
      <point x="326" y="236" type="line"/>
    </contour>
  </outline>
</glyph>
<glyph name="five" format="2">
  <advance width="580"/>
  <unicode hex="0035"/>
  <outline>
    <contour>
      <point x="268" y="-10" type="curve" smooth="yes"/>
      <point x="293" y="-10"/>
      <point x="314" y="-9"/>
      <point x="332" y="-8" type="curve" smooth="yes"/>
      <point x="368" y="-5"/>
      <point x="421" y="7"/>
      <point x="450" y="28" type="curve" smooth="yes"/>
      <point x="479" y="48"/>
      <point x="503" y="89"/>
      <point x="503" y="144" type="curve" smooth="yes"/>
      <point x="503" y="280" type="line"/>
      <point x="503" y="329"/>
      <point x="476" y="366"/>
      <point x="437" y="383" type="curve"/>
      <point x="397" y="399"/>
      <point x="361" y="405"/>
      <point x="324" y="405" type="curve" smooth="yes"/>
      <point x="222" y="405" type="line"/>
      <point x="222" y="537" type="line"/>
      <point x="486" y="537" type="line"/>
      <point x="486" y="649" type="line"/>
      <point x="76" y="649" type="line"/>
      <point x="76" y="298" type="line"/>
      <point x="276" y="298" type="line" smooth="yes"/>
      <point x="331" y="298"/>
      <point x="353" y="284"/>
      <point x="353" y="248" type="curve" smooth="yes"/>
      <point x="353" y="151" type="line" smooth="yes"/>
      <point x="353" y="114"/>
      <point x="320" y="99"/>
      <point x="248" y="99" type="curve" smooth="yes"/>
      <point x="204" y="99"/>
      <point x="142" y="107"/>
      <point x="61" y="122" type="curve"/>
      <point x="61" y="1" type="line"/>
      <point x="149" y="-6"/>
      <point x="218" y="-10"/>
    </contour>
  </outline>
</glyph>
<glyph name="six" format="2">
  <advance width="580"/>
  <unicode hex="0036"/>
  <outline>
    <contour>
      <point x="289" y="-10" type="curve" smooth="yes"/>
      <point x="316" y="-10"/>
      <point x="339" y="-9"/>
      <point x="358" y="-7" type="curve" smooth="yes"/>
      <point x="397" y="-4"/>
      <point x="447" y="10"/>
      <point x="475" y="35" type="curve" smooth="yes"/>
      <point x="503" y="59"/>
      <point x="525" y="105"/>
      <point x="525" y="169" type="curve" smooth="yes"/>
      <point x="525" y="257" type="line"/>
      <point x="525" y="285"/>
      <point x="521" y="309"/>
      <point x="514" y="328" type="curve" smooth="yes"/>
      <point x="499" y="366"/>
      <point x="482" y="383"/>
      <point x="439" y="394" type="curve" smooth="yes"/>
      <point x="396" y="405"/>
      <point x="371" y="405"/>
      <point x="307" y="405" type="curve" smooth="yes"/>
      <point x="200" y="405" type="line"/>
      <point x="200" y="482" type="line" smooth="yes"/>
      <point x="200" y="551"/>
      <point x="210" y="558"/>
      <point x="301" y="558" type="curve" smooth="yes"/>
      <point x="336" y="558"/>
      <point x="401" y="553"/>
      <point x="494" y="542" type="curve"/>
      <point x="494" y="649" type="line"/>
      <point x="398" y="656"/>
      <point x="338" y="659"/>
      <point x="314" y="659" type="curve" smooth="yes"/>
      <point x="287" y="659"/>
      <point x="264" y="658"/>
      <point x="245" y="657" type="curve"/>
      <point x="205" y="653"/>
      <point x="146" y="639"/>
      <point x="114" y="614" type="curve" smooth="yes"/>
      <point x="82" y="589"/>
      <point x="55" y="539"/>
      <point x="55" y="471" type="curve" smooth="yes"/>
      <point x="55" y="169" type="line" smooth="yes"/>
      <point x="55" y="137"/>
      <point x="60" y="110"/>
      <point x="69" y="87" type="curve" smooth="yes"/>
      <point x="88" y="42"/>
      <point x="112" y="20"/>
      <point x="157" y="6" type="curve" smooth="yes"/>
      <point x="201" y="-8"/>
      <point x="234" y="-10"/>
    </contour>
    <contour>
      <point x="291" y="87" type="curve" smooth="yes"/>
      <point x="208" y="87"/>
      <point x="200" y="97"/>
      <point x="200" y="161" type="curve" smooth="yes"/>
      <point x="200" y="309" type="line"/>
      <point x="290" y="309" type="line" smooth="yes"/>
      <point x="370" y="309"/>
      <point x="380" y="301"/>
      <point x="380" y="256" type="curve" smooth="yes"/>
      <point x="380" y="162" type="line"/>
      <point x="380" y="95"/>
      <point x="374" y="87"/>
    </contour>
  </outline>
</glyph>
<glyph name="seven" format="2">
  <advance width="580"/>
  <unicode hex="0037"/>
  <outline>
    <contour>
      <point x="105" y="0" type="line"/>
      <point x="267" y="0" type="line"/>
      <point x="516" y="549" type="line"/>
      <point x="516" y="649" type="line"/>
      <point x="40" y="649" type="line"/>
      <point x="40" y="535" type="line"/>
      <point x="355" y="535" type="line"/>
    </contour>
  </outline>
</glyph>
<glyph name="eight" format="2">
  <advance width="580"/>
  <unicode hex="0038"/>
  <outline>
    <contour>
      <point x="290" y="-10" type="curve" smooth="yes"/>
      <point x="373" y="-10"/>
      <point x="436" y="0"/>
      <point x="477" y="21" type="curve" smooth="yes"/>
      <point x="518" y="42"/>
      <point x="538" y="79"/>
      <point x="538" y="133" type="curve" smooth="yes"/>
      <point x="538" y="245" type="line" smooth="yes"/>
      <point x="538" y="289"/>
      <point x="487" y="330"/>
      <point x="430" y="343" type="curve"/>
      <point x="430" y="347" type="line"/>
      <point x="474" y="352"/>
      <point x="516" y="387"/>
      <point x="516" y="430" type="curve" smooth="yes"/>
      <point x="516" y="523" type="line" smooth="yes"/>
      <point x="516" y="614"/>
      <point x="459" y="659"/>
      <point x="290" y="659" type="curve" smooth="yes"/>
      <point x="121" y="659"/>
      <point x="64" y="614"/>
      <point x="64" y="523" type="curve" smooth="yes"/>
      <point x="64" y="430" type="line" smooth="yes"/>
      <point x="64" y="387"/>
      <point x="106" y="352"/>
      <point x="150" y="347" type="curve"/>
      <point x="150" y="343" type="line"/>
      <point x="93" y="330"/>
      <point x="42" y="289"/>
      <point x="42" y="245" type="curve" smooth="yes"/>
      <point x="42" y="133" type="line" smooth="yes"/>
      <point x="42" y="25"/>
      <point x="123" y="-10"/>
    </contour>
    <contour>
      <point x="290" y="85" type="curve" smooth="yes"/>
      <point x="206" y="85"/>
      <point x="195" y="96"/>
      <point x="195" y="145" type="curve" smooth="yes"/>
      <point x="195" y="233" type="line" smooth="yes"/>
      <point x="195" y="273"/>
      <point x="212" y="289"/>
      <point x="291" y="289" type="curve" smooth="yes"/>
      <point x="330" y="289"/>
      <point x="356" y="285"/>
      <point x="368" y="276" type="curve" smooth="yes"/>
      <point x="379" y="267"/>
      <point x="385" y="253"/>
      <point x="385" y="233" type="curve" smooth="yes"/>
      <point x="385" y="145" type="line" smooth="yes"/>
      <point x="385" y="96"/>
      <point x="374" y="85"/>
    </contour>
    <contour>
      <point x="290" y="382" type="curve" smooth="yes"/>
      <point x="259" y="382"/>
      <point x="239" y="386"/>
      <point x="228" y="395" type="curve" smooth="yes"/>
      <point x="217" y="404"/>
      <point x="211" y="417"/>
      <point x="211" y="435" type="curve" smooth="yes"/>
      <point x="211" y="510" type="line" smooth="yes"/>
      <point x="211" y="547"/>
      <point x="229" y="564"/>
      <point x="290" y="564" type="curve" smooth="yes"/>
      <point x="351" y="564"/>
      <point x="369" y="547"/>
      <point x="369" y="510" type="curve" smooth="yes"/>
      <point x="369" y="435" type="line" smooth="yes"/>
      <point x="369" y="399"/>
      <point x="351" y="382"/>
    </contour>
  </outline>
</glyph>
<glyph name="nine" format="2">
  <advance width="580"/>
  <unicode hex="0039"/>
  <outline>
    <contour>
      <point x="271" y="-10" type="curve" smooth="yes"/>
      <point x="447" y="-10"/>
      <point x="526" y="41"/>
      <point x="526" y="178" type="curve" smooth="yes"/>
      <point x="526" y="480" type="line"/>
      <point x="526" y="512"/>
      <point x="521" y="539"/>
      <point x="512" y="562" type="curve" smooth="yes"/>
      <point x="493" y="607"/>
      <point x="468" y="630"/>
      <point x="424" y="644" type="curve" smooth="yes"/>
      <point x="379" y="658"/>
      <point x="346" y="659"/>
      <point x="291" y="659" type="curve" smooth="yes"/>
      <point x="264" y="659"/>
      <point x="241" y="658"/>
      <point x="222" y="657" type="curve"/>
      <point x="183" y="653"/>
      <point x="133" y="639"/>
      <point x="105" y="615" type="curve" smooth="yes"/>
      <point x="77" y="590"/>
      <point x="55" y="544"/>
      <point x="55" y="480" type="curve" smooth="yes"/>
      <point x="55" y="392" type="line" smooth="yes"/>
      <point x="55" y="364"/>
      <point x="59" y="341"/>
      <point x="66" y="322" type="curve" smooth="yes"/>
      <point x="81" y="284"/>
      <point x="98" y="266"/>
      <point x="141" y="255" type="curve" smooth="yes"/>
      <point x="184" y="244"/>
      <point x="209" y="244"/>
      <point x="273" y="244" type="curve" smooth="yes"/>
      <point x="381" y="244" type="line"/>
      <point x="381" y="183" type="line" smooth="yes"/>
      <point x="381" y="106"/>
      <point x="369" y="90"/>
      <point x="269" y="90" type="curve" smooth="yes"/>
      <point x="229" y="90"/>
      <point x="168" y="95"/>
      <point x="86" y="104" type="curve"/>
      <point x="86" y="0" type="line"/>
      <point x="155" y="-7"/>
      <point x="217" y="-10"/>
    </contour>
    <contour>
      <point x="290" y="341" type="line"/>
      <point x="210" y="341"/>
      <point x="200" y="349"/>
      <point x="200" y="394" type="curve" smooth="yes"/>
      <point x="200" y="493" type="line" smooth="yes"/>
      <point x="200" y="554"/>
      <point x="210" y="561"/>
      <point x="289" y="561" type="curve" smooth="yes"/>
      <point x="374" y="561"/>
      <point x="381" y="556"/>
      <point x="381" y="493" type="curve" smooth="yes"/>
      <point x="381" y="341" type="line"/>
    </contour>
  </outline>
</glyph>
<glyph name="colon" format="2">
  <advance width="256"/>
  <unicode hex="003A"/>
  <outline>
    <contour>
      <point x="50" y="346" type="line"/>
      <point x="206" y="346" type="line"/>
      <point x="206" y="484" type="line"/>
      <point x="50" y="484" type="line"/>
    </contour>
    <contour>
      <point x="50" y="0" type="line"/>
      <point x="206" y="0" type="line"/>
      <point x="206" y="138" type="line"/>
      <point x="50" y="138" type="line"/>
    </contour>
  </outline>
</glyph>
<glyph name="semicolon" format="2">
  <advance width="256"/>
  <unicode hex="003B"/>
  <outline>
    <contour>
      <point x="19" y="-112" type="line"/>
      <point x="123" y="-112" type="line"/>
      <point x="217" y="138" type="line"/>
      <point x="65" y="138" type="line"/>
    </contour>
    <contour>
      <point x="50" y="346" type="line"/>
      <point x="206" y="346" type="line"/>
      <point x="206" y="484" type="line"/>
      <point x="50" y="484" type="line"/>
    </contour>
  </outline>
</glyph>
<glyph name="less" format="2">
  <advance width="580"/>
  <unicode hex="003C"/>
  <outline>
    <contour>
      <point x="510" y="106" type="line"/>
      <point x="510" y="217" type="line"/>
      <point x="184" y="315" type="line"/>
      <point x="510" y="413" type="line"/>
      <point x="510" y="524" type="line"/>
      <point x="70" y="371" type="line"/>
      <point x="70" y="259" type="line"/>
    </contour>
  </outline>
</glyph>
<glyph name="equal" format="2">
  <advance width="580"/>
  <unicode hex="003D"/>
  <outline>
    <contour>
      <point x="70" y="364" type="line"/>
      <point x="510" y="364" type="line"/>
      <point x="510" y="465" type="line"/>
      <point x="70" y="465" type="line"/>
    </contour>
    <contour>
      <point x="70" y="164" type="line"/>
      <point x="510" y="164" type="line"/>
      <point x="510" y="265" type="line"/>
      <point x="70" y="265" type="line"/>
    </contour>
  </outline>
</glyph>
<glyph name="greater" format="2">
  <advance width="580"/>
  <unicode hex="003E"/>
  <outline>
    <contour>
      <point x="70" y="106" type="line"/>
      <point x="510" y="259" type="line"/>
      <point x="510" y="371" type="line"/>
      <point x="70" y="524" type="line"/>
      <point x="70" y="413" type="line"/>
      <point x="396" y="315" type="line"/>
      <point x="70" y="217" type="line"/>
    </contour>
  </outline>
</glyph>
<glyph name="question" format="2">
  <advance width="529"/>
  <unicode hex="003F"/>
  <outline>
    <contour>
      <point x="181" y="188" type="line"/>
      <point x="317" y="188" type="line"/>
      <point x="317" y="233" type="line" smooth="yes"/>
      <point x="317" y="256"/>
      <point x="344" y="279"/>
      <point x="378" y="300" type="curve" smooth="yes"/>
      <point x="395" y="310"/>
      <point x="412" y="321"/>
      <point x="429" y="332" type="curve" smooth="yes"/>
      <point x="463" y="355"/>
      <point x="489" y="388"/>
      <point x="489" y="427" type="curve" smooth="yes"/>
      <point x="489" y="523" type="line"/>
      <point x="489" y="546"/>
      <point x="485" y="566"/>
      <point x="478" y="583" type="curve" smooth="yes"/>
      <point x="463" y="616"/>
      <point x="441" y="634"/>
      <point x="401" y="646" type="curve"/>
      <point x="360" y="657"/>
      <point x="321" y="659"/>
      <point x="258" y="659" type="curve" smooth="yes"/>
      <point x="198" y="659"/>
      <point x="125" y="654"/>
      <point x="40" y="643" type="curve"/>
      <point x="40" y="534" type="line"/>
      <point x="142" y="550"/>
      <point x="208" y="558"/>
      <point x="239" y="558" type="curve" smooth="yes"/>
      <point x="279" y="558"/>
      <point x="305" y="555"/>
      <point x="318" y="548" type="curve" smooth="yes"/>
      <point x="331" y="541"/>
      <point x="337" y="528"/>
      <point x="337" y="510" type="curve" smooth="yes"/>
      <point x="337" y="463" type="line" smooth="yes"/>
      <point x="337" y="431"/>
      <point x="313" y="407"/>
      <point x="282" y="388" type="curve" smooth="yes"/>
      <point x="267" y="379"/>
      <point x="251" y="369"/>
      <point x="236" y="358" type="curve" smooth="yes"/>
      <point x="205" y="336"/>
      <point x="181" y="297"/>
      <point x="181" y="246" type="curve" smooth="yes"/>
    </contour>
    <contour>
      <point x="171" y="0" type="line"/>
      <point x="327" y="0" type="line"/>
      <point x="327" y="138" type="line"/>
      <point x="171" y="138" type="line"/>
    </contour>
  </outline>
</glyph>
<glyph name="A" format="2">
  <advance width="668"/>
  <unicode hex="0041"/>
  <anchor x="334" y="0" name="bottom"/>
  <anchor x="601" y="10" name="ogonek"/>
  <anchor x="334" y="649" name="top"/>
  <outline>
    <contour>
      <point x="2" y="0" type="line"/>
      <point x="156" y="0" type="line"/>
      <point x="213" y="171" type="line"/>
      <point x="450" y="171" type="line"/>
      <point x="508" y="0" type="line"/>
      <point x="666" y="0" type="line"/>
      <point x="432" y="649" type="line"/>
      <point x="242" y="649" type="line"/>
    </contour>
    <contour>
      <point x="248" y="275" type="line"/>
      <point x="330" y="519" type="line"/>
      <point x="334" y="519" type="line"/>
      <point x="416" y="275" type="line"/>
    </contour>
  </outline>
</glyph>
<glyph name="D" format="2">
  <advance width="710"/>
  <unicode hex="0044"/>
  <outline>
    <contour>
      <point x="70" y="0" type="line"/>
      <point x="347" y="0" type="line" smooth="yes"/>
      <point x="575" y="0"/>
      <point x="654" y="41"/>
      <point x="654" y="188" type="curve" smooth="yes"/>
      <point x="654" y="452" type="line"/>
      <point x="654" y="605"/>
      <point x="566" y="649"/>
      <point x="346" y="649" type="curve" smooth="yes"/>
      <point x="70" y="649" type="line"/>
    </contour>
    <contour>
      <point x="226" y="111" type="line"/>
      <point x="226" y="538" type="line"/>
      <point x="345" y="538" type="line" smooth="yes"/>
      <point x="448" y="538"/>
      <point x="498" y="518"/>
      <point x="498" y="455" type="curve" smooth="yes"/>
      <point x="498" y="188" type="line"/>
      <point x="498" y="121"/>
      <point x="460" y="111"/>
      <point x="340" y="111" type="curve" smooth="yes"/>
    </contour>
  </outline>
</glyph>
<glyph name="E" format="2">
  <advance width="610"/>
  <unicode hex="0045"/>
  <anchor x="305" y="0" name="bottom"/>
  <anchor x="549" y="10" name="ogonek"/>
  <anchor x="305" y="649" name="top"/>
  <anchor x="20" y="649" name="topleft"/>
  <outline>
    <contour>
      <point x="70" y="0" type="line"/>
      <point x="575" y="0" type="line"/>
      <point x="575" y="111" type="line"/>
      <point x="226" y="111" type="line"/>
      <point x="226" y="278" type="line"/>
      <point x="532" y="278" type="line"/>
      <point x="532" y="389" type="line"/>
      <point x="226" y="389" type="line"/>
      <point x="226" y="538" type="line"/>
      <point x="565" y="538" type="line"/>
      <point x="565" y="649" type="line"/>
      <point x="70" y="649" type="line"/>
    </contour>
  </outline>
</glyph>
<glyph name="F" format="2">
  <advance width="610"/>
  <unicode hex="0046"/>
  <outline>
    <contour>
      <point x="70" y="0" type="line"/>
      <point x="226" y="0" type="line"/>
      <point x="226" y="268" type="line"/>
      <point x="542" y="268" type="line"/>
      <point x="542" y="379" type="line"/>
      <point x="226" y="379" type="line"/>
      <point x="226" y="538" type="line"/>
      <point x="575" y="538" type="line"/>
      <point x="575" y="649" type="line"/>
      <point x="70" y="649" type="line"/>
    </contour>
  </outline>
</glyph>
<glyph name="H" format="2">
  <advance width="728"/>
  <unicode hex="0048"/>
  <outline>
    <contour>
      <point x="70" y="0" type="line"/>
      <point x="226" y="0" type="line"/>
      <point x="226" y="278" type="line"/>
      <point x="502" y="278" type="line"/>
      <point x="502" y="0" type="line"/>
      <point x="658" y="0" type="line"/>
      <point x="658" y="649" type="line"/>
      <point x="502" y="649" type="line"/>
      <point x="502" y="389" type="line"/>
      <point x="226" y="389" type="line"/>
      <point x="226" y="649" type="line"/>
      <point x="70" y="649" type="line"/>
    </contour>
  </outline>
</glyph>
<glyph name="I" format="2">
  <advance width="296"/>
  <unicode hex="0049"/>
  <anchor x="148" y="0" name="bottom"/>
  <anchor x="196" y="10" name="ogonek"/>
  <anchor x="148" y="649" name="top"/>
  <anchor x="20" y="649" name="topleft"/>
  <outline>
    <contour>
      <point x="70" y="0" type="line"/>
      <point x="226" y="0" type="line"/>
      <point x="226" y="649" type="line"/>
      <point x="70" y="649" type="line"/>
    </contour>
  </outline>
</glyph>
<glyph name="M" format="2">
  <advance width="889"/>
  <unicode hex="004D"/>
  <outline>
    <contour>
      <point x="70" y="0" type="line"/>
      <point x="213" y="0" type="line"/>
      <point x="213" y="480" type="line"/>
      <point x="217" y="480" type="line"/>
      <point x="386" y="0" type="line"/>
      <point x="511" y="0" type="line"/>
      <point x="675" y="480" type="line"/>
      <point x="678" y="480" type="line"/>
      <point x="678" y="0" type="line"/>
      <point x="819" y="0" type="line"/>
      <point x="819" y="649" type="line"/>
      <point x="610" y="649" type="line"/>
      <point x="452" y="185" type="line"/>
      <point x="292" y="649" type="line"/>
      <point x="70" y="649" type="line"/>
    </contour>
  </outline>
</glyph>
<glyph name="N" format="2">
  <advance width="751"/>
  <unicode hex="004E"/>
  <outline>
    <contour>
      <point x="70" y="0" type="line"/>
      <point x="209" y="0" type="line"/>
      <point x="209" y="450" type="line"/>
      <point x="523" y="0" type="line"/>
      <point x="681" y="0" type="line"/>
      <point x="681" y="649" type="line"/>
      <point x="542" y="649" type="line"/>
      <point x="542" y="206" type="line"/>
      <point x="228" y="649" type="line"/>
      <point x="70" y="649" type="line"/>
    </contour>
  </outline>
</glyph>
<glyph name="P" format="2">
  <advance width="627"/>
  <unicode hex="0050"/>
  <outline>
    <contour>
      <point x="70" y="0" type="line"/>
      <point x="226" y="0" type="line"/>
      <point x="226" y="211" type="line"/>
      <point x="312" y="211" type="line" smooth="yes"/>
      <point x="508" y="211"/>
      <point x="587" y="249"/>
      <point x="587" y="377" type="curve" smooth="yes"/>
      <point x="587" y="500" type="line"/>
      <point x="587" y="617"/>
      <point x="514" y="649"/>
      <point x="330" y="649" type="curve" smooth="yes"/>
      <point x="70" y="649" type="line"/>
    </contour>
    <contour>
      <point x="226" y="318" type="line"/>
      <point x="226" y="538" type="line"/>
      <point x="323" y="538" type="line" smooth="yes"/>
      <point x="366" y="538"/>
      <point x="396" y="535"/>
      <point x="412" y="528" type="curve" smooth="yes"/>
      <point x="428" y="521"/>
      <point x="436" y="507"/>
      <point x="436" y="486" type="curve" smooth="yes"/>
      <point x="436" y="382" type="line"/>
      <point x="436" y="335"/>
      <point x="406" y="318"/>
      <point x="325" y="318" type="curve" smooth="yes"/>
    </contour>
  </outline>
</glyph>
<glyph name="R" format="2">
  <advance width="668"/>
  <unicode hex="0052"/>
  <outline>
    <contour>
      <point x="70" y="0" type="line"/>
      <point x="226" y="0" type="line"/>
      <point x="226" y="255" type="line"/>
      <point x="298" y="255" type="line"/>
      <point x="468" y="0" type="line"/>
      <point x="648" y="0" type="line"/>
      <point x="460" y="267" type="line"/>
      <point x="544" y="278"/>
      <point x="608" y="319"/>
      <point x="608" y="398" type="curve" smooth="yes"/>
      <point x="608" y="512" type="line" smooth="yes"/>
      <point x="608" y="612"/>
      <point x="533" y="649"/>
      <point x="362" y="649" type="curve" smooth="yes"/>
      <point x="70" y="649" type="line"/>
    </contour>
    <contour>
      <point x="226" y="358" type="line"/>
      <point x="226" y="538" type="line"/>
      <point x="360" y="538" type="line" smooth="yes"/>
      <point x="429" y="538"/>
      <point x="455" y="523"/>
      <point x="455" y="475" type="curve" smooth="yes"/>
      <point x="455" y="429" type="line"/>
      <point x="455" y="373"/>
      <point x="433" y="358"/>
      <point x="360" y="358" type="curve" smooth="yes"/>
    </contour>
  </outline>
</glyph>
<glyph name="T" format="2">
  <advance width="595"/>
  <unicode hex="0054"/>
  <outline>
    <contour>
      <point x="220" y="0" type="line"/>
      <point x="376" y="0" type="line"/>
      <point x="376" y="538" type="line"/>
      <point x="575" y="538" type="line"/>
      <point x="575" y="649" type="line"/>
      <point x="20" y="649" type="line"/>
      <point x="20" y="538" type="line"/>
      <point x="220" y="538" type="line"/>
    </contour>
  </outline>
</glyph>
<glyph name="U" format="2">
  <advance width="699"/>
  <unicode hex="0055"/>
  <anchor x="350" y="0" name="bottom"/>
  <anchor x="629" y="10" name="ogonek"/>
  <anchor x="350" y="649" name="top"/>
  <anchor x="638" y="649" name="topright"/>
  <outline>
    <contour>
      <point x="349" y="-10" type="curve" smooth="yes"/>
      <point x="537" y="-10"/>
      <point x="631" y="53"/>
      <point x="631" y="178" type="curve" smooth="yes"/>
      <point x="631" y="649" type="line"/>
      <point x="475" y="649" type="line"/>
      <point x="475" y="178" type="line" smooth="yes"/>
      <point x="475" y="119"/>
      <point x="442" y="101"/>
      <point x="351" y="101" type="curve" smooth="yes"/>
      <point x="259" y="101"/>
      <point x="224" y="119"/>
      <point x="224" y="178" type="curve" smooth="yes"/>
      <point x="224" y="649" type="line"/>
      <point x="68" y="649" type="line"/>
      <point x="68" y="178" type="line" smooth="yes"/>
      <point x="68" y="53"/>
      <point x="162" y="-10"/>
    </contour>
  </outline>
</glyph>
<glyph name="V" format="2">
  <advance width="664"/>
  <unicode hex="0056"/>
  <outline>
    <contour>
      <point x="233" y="0" type="line"/>
      <point x="424" y="0" type="line"/>
      <point x="664" y="649" type="line"/>
      <point x="510" y="649" type="line"/>
      <point x="336" y="130" type="line"/>
      <point x="332" y="130" type="line"/>
      <point x="158" y="649" type="line"/>
      <point x="0" y="649" type="line"/>
    </contour>
  </outline>
</glyph>
<glyph name="W" format="2">
  <advance width="985"/>
  <unicode hex="0057"/>
  <outline>
    <contour>
      <point x="209" y="0" type="line"/>
      <point x="363" y="0" type="line"/>
      <point x="491" y="471" type="line"/>
      <point x="615" y="0" type="line"/>
      <point x="769" y="0" type="line"/>
      <point x="977" y="649" type="line"/>
      <point x="819" y="649" type="line"/>
      <point x="703" y="175" type="line"/>
      <point x="567" y="649" type="line"/>
      <point x="422" y="649" type="line"/>
      <point x="296" y="175" type="line"/>
      <point x="170" y="649" type="line"/>
      <point x="8" y="649" type="line"/>
    </contour>
  </outline>
</glyph>
<glyph name="X" format="2">
  <advance width="677"/>
  <unicode hex="0058"/>
  <outline>
    <contour>
      <point x="10" y="0" type="line"/>
      <point x="190" y="0" type="line"/>
      <point x="339" y="230" type="line"/>
      <point x="487" y="0" type="line"/>
      <point x="668" y="0" type="line"/>
      <point x="428" y="331" type="line"/>
      <point x="657" y="649" type="line"/>
      <point x="477" y="649" type="line"/>
      <point x="339" y="433" type="line"/>
      <point x="200" y="649" type="line"/>
      <point x="20" y="649" type="line"/>
      <point x="249" y="331" type="line"/>
    </contour>
  </outline>
</glyph>
<glyph name="Y" format="2">
  <advance width="644"/>
  <unicode hex="0059"/>
  <anchor x="322" y="0" name="bottom"/>
  <anchor x="322" y="649" name="top"/>
  <anchor x="20" y="649" name="topleft"/>
  <outline>
    <contour>
      <point x="243" y="0" type="line"/>
      <point x="399" y="0" type="line"/>
      <point x="399" y="262" type="line"/>
      <point x="636" y="649" type="line"/>
      <point x="458" y="649" type="line"/>
      <point x="322" y="395" type="line"/>
      <point x="185" y="649" type="line"/>
      <point x="8" y="649" type="line"/>
      <point x="243" y="260" type="line"/>
    </contour>
  </outline>
</glyph>
<glyph name="Z" format="2">
  <advance width="612"/>
  <unicode hex="005A"/>
  <outline>
    <contour>
      <point x="40" y="0" type="line"/>
      <point x="576" y="0" type="line"/>
      <point x="576" y="112" type="line"/>
      <point x="232" y="112" type="line"/>
      <point x="570" y="555" type="line"/>
      <point x="570" y="649" type="line"/>
      <point x="50" y="649" type="line"/>
      <point x="50" y="538" type="line"/>
      <point x="378" y="538" type="line"/>
      <point x="40" y="95" type="line"/>
    </contour>
  </outline>
</glyph>
<glyph name="bracketleft" format="2">
  <advance width="372"/>
  <unicode hex="005B"/>
  <outline>
    <contour>
      <point x="100" y="-190" type="line"/>
      <point x="362" y="-190" type="line"/>
      <point x="362" y="-103" type="line"/>
      <point x="243" y="-103" type="line"/>
      <point x="243" y="649" type="line"/>
      <point x="362" y="649" type="line"/>
      <point x="362" y="736" type="line"/>
      <point x="100" y="736" type="line"/>
    </contour>
  </outline>
</glyph>
<glyph name="backslash" format="2">
  <advance width="431"/>
  <unicode hex="005C"/>
  <outline>
    <contour>
      <point x="334" y="-10" type="line"/>
      <point x="421" y="-10" type="line"/>
      <point x="97" y="659" type="line"/>
      <point x="10" y="659" type="line"/>
    </contour>
  </outline>
</glyph>
<glyph name="bracketright" format="2">
  <advance width="372"/>
  <unicode hex="005D"/>
  <outline>
    <contour>
      <point x="10" y="-190" type="line"/>
      <point x="272" y="-190" type="line"/>
      <point x="272" y="736" type="line"/>
      <point x="10" y="736" type="line"/>
      <point x="10" y="649" type="line"/>
      <point x="129" y="649" type="line"/>
      <point x="129" y="-103" type="line"/>
      <point x="10" y="-103" type="line"/>
    </contour>
  </outline>
</glyph>
<glyph name="asciicircum" format="2">
  <advance width="341"/>
  <unicode hex="005E"/>
  <outline>
    <contour>
      <point x="20" y="453" type="line"/>
      <point x="118" y="453" type="line"/>
      <point x="170" y="640" type="line"/>
      <point x="223" y="453" type="line"/>
      <point x="321" y="453" type="line"/>
      <point x="263" y="680" type="line"/>
      <point x="76" y="680" type="line"/>
    </contour>
  </outline>
</glyph>
<glyph name="underscore" format="2">
  <advance width="580"/>
  <unicode hex="005F"/>
  <outline>
    <contour>
      <point x="71" y="-161" type="line"/>
      <point x="509" y="-161" type="line"/>
      <point x="509" y="-60" type="line"/>
      <point x="71" y="-60" type="line"/>
    </contour>
  </outline>
</glyph>
<glyph name="grave" format="2">
  <advance width="449"/>
  <unicode hex="0060"/>
  <outline>
    <contour>
      <point x="225" y="553" type="line"/>
      <point x="349" y="553" type="line"/>
      <point x="259" y="680" type="line"/>
      <point x="100" y="680" type="line"/>
    </contour>
  </outline>
</glyph>
<glyph name="a" format="2">
  <advance width="564"/>
  <unicode hex="0061"/>
  <anchor x="282" y="0" name="bottom"/>
  <anchor x="508" y="10" name="ogonek"/>
  <anchor x="282" y="484" name="top"/>
  <outline>
    <contour>
      <point x="201" y="-10" type="curve" smooth="yes"/>
      <point x="254" y="-10"/>
      <point x="291" y="-6"/>
      <point x="311" y="3" type="curve" smooth="yes"/>
      <point x="331" y="11"/>
      <point x="346" y="25"/>
      <point x="357" y="44" type="curve"/>
      <point x="357" y="0" type="line"/>
      <point x="500" y="0" type="line"/>
      <point x="500" y="333" type="line"/>
      <point x="500" y="461"/>
      <point x="441" y="494"/>
      <point x="262" y="494" type="curve" smooth="yes"/>
      <point x="194" y="494"/>
      <point x="132" y="491"/>
      <point x="77" y="484" type="curve"/>
      <point x="77" y="392" type="line"/>
      <point x="149" y="400"/>
      <point x="206" y="404"/>
      <point x="247" y="404" type="curve" smooth="yes"/>
      <point x="335" y="404"/>
      <point x="354" y="390"/>
      <point x="354" y="331" type="curve" smooth="yes"/>
      <point x="354" y="298" type="line"/>
      <point x="190" y="298" type="line" smooth="yes"/>
      <point x="77" y="298"/>
      <point x="39" y="260"/>
      <point x="39" y="145" type="curve" smooth="yes"/>
      <point x="39" y="18"/>
      <point x="70" y="-10"/>
    </contour>
    <contour>
      <point x="258" y="81" type="curve" smooth="yes"/>
      <point x="190" y="81"/>
      <point x="182" y="85"/>
      <point x="182" y="148" type="curve" smooth="yes"/>
      <point x="182" y="212"/>
      <point x="190" y="218"/>
      <point x="254" y="218" type="curve" smooth="yes"/>
      <point x="354" y="218" type="line"/>
      <point x="354" y="124" type="line"/>
      <point x="354" y="115"/>
      <point x="353" y="108"/>
      <point x="350" y="103" type="curve" smooth="yes"/>
      <point x="345" y="92"/>
      <point x="340" y="87"/>
      <point x="321" y="84" type="curve" smooth="yes"/>
      <point x="302" y="81"/>
      <point x="291" y="81"/>
    </contour>
  </outline>
</glyph>
<glyph name="b" format="2">
  <advance width="610"/>
  <unicode hex="0062"/>
  <outline>
    <contour>
      <point x="309" y="-10" type="curve" smooth="yes"/>
      <point x="485" y="-10"/>
      <point x="560" y="40"/>
      <point x="560" y="172" type="curve" smooth="yes"/>
      <point x="560" y="331" type="line"/>
      <point x="560" y="390"/>
      <point x="554" y="422"/>
      <point x="527" y="452" type="curve" smooth="yes"/>
      <point x="500" y="482"/>
      <point x="450" y="494"/>
      <point x="367" y="494" type="curve" smooth="yes"/>
      <point x="270" y="494"/>
      <point x="227" y="480"/>
      <point x="210" y="436" type="curve"/>
      <point x="210" y="700" type="line"/>
      <point x="64" y="700" type="line"/>
      <point x="64" y="172" type="line" smooth="yes"/>
      <point x="64" y="45"/>
      <point x="124" y="-10"/>
    </contour>
    <contour>
      <point x="311" y="81" type="curve" smooth="yes"/>
      <point x="226" y="81"/>
      <point x="210" y="96"/>
      <point x="210" y="153" type="curve" smooth="yes"/>
      <point x="210" y="332" type="line" smooth="yes"/>
      <point x="210" y="385"/>
      <point x="227" y="404"/>
      <point x="310" y="404" type="curve" smooth="yes"/>
      <point x="402" y="404"/>
      <point x="414" y="395"/>
      <point x="414" y="332" type="curve" smooth="yes"/>
      <point x="414" y="153" type="line"/>
      <point x="414" y="96"/>
      <point x="396" y="81"/>
    </contour>
  </outline>
</glyph>
<glyph name="d" format="2">
  <advance width="608"/>
  <unicode hex="0064"/>
  <anchor x="304" y="0" name="bottom"/>
  <anchor x="464" y="587" name="center"/>
  <anchor x="304" y="484" name="top"/>
  <anchor x="588" y="484" name="topright"/>
  <outline>
    <contour>
      <point x="250" y="-10" type="curve" smooth="yes"/>
      <point x="285" y="-10"/>
      <point x="311" y="-8"/>
      <point x="330" y="-3" type="curve" smooth="yes"/>
      <point x="367" y="5"/>
      <point x="380" y="19"/>
      <point x="403" y="55" type="curve"/>
      <point x="403" y="0" type="line"/>
      <point x="544" y="0" type="line"/>
      <point x="544" y="700" type="line"/>
      <point x="398" y="700" type="line"/>
      <point x="398" y="430" type="line"/>
      <point x="365" y="479"/>
      <point x="339" y="494"/>
      <point x="243" y="494" type="curve" smooth="yes"/>
      <point x="110" y="494"/>
      <point x="50" y="457"/>
      <point x="50" y="348" type="curve" smooth="yes"/>
      <point x="50" y="159" type="line" smooth="yes"/>
      <point x="50" y="16"/>
      <point x="85" y="-10"/>
    </contour>
    <contour>
      <point x="287" y="81" type="curve" smooth="yes"/>
      <point x="208" y="81"/>
      <point x="196" y="97"/>
      <point x="196" y="150" type="curve" smooth="yes"/>
      <point x="196" y="335" type="line" smooth="yes"/>
      <point x="196" y="392"/>
      <point x="206" y="404"/>
      <point x="295" y="404" type="curve" smooth="yes"/>
      <point x="380" y="404"/>
      <point x="398" y="388"/>
      <point x="398" y="340" type="curve" smooth="yes"/>
      <point x="398" y="145" type="line"/>
      <point x="398" y="93"/>
      <point x="382" y="81"/>
    </contour>
  </outline>
</glyph>
<glyph name="e" format="2">
  <advance width="559"/>
  <unicode hex="0065"/>
  <anchor x="280" y="0" name="bottom"/>
  <anchor x="503" y="10" name="ogonek"/>
  <anchor x="280" y="484" name="top"/>
  <outline>
    <contour>
      <point x="307" y="-10" type="curve" smooth="yes"/>
      <point x="372" y="-10"/>
      <point x="436" y="-4"/>
      <point x="497" y="9" type="curve"/>
      <point x="497" y="102" type="line"/>
      <point x="437" y="88"/>
      <point x="383" y="81"/>
      <point x="335" y="81" type="curve" smooth="yes"/>
      <point x="228" y="81"/>
      <point x="197" y="104"/>
      <point x="197" y="159" type="curve" smooth="yes"/>
      <point x="197" y="203" type="line"/>
      <point x="511" y="203" type="line"/>
      <point x="511" y="321" type="line"/>
      <point x="511" y="450"/>
      <point x="438" y="494"/>
      <point x="289" y="494" type="curve" smooth="yes"/>
      <point x="130" y="494"/>
      <point x="50" y="445"/>
      <point x="50" y="321" type="curve" smooth="yes"/>
      <point x="50" y="147" type="line" smooth="yes"/>
      <point x="50" y="42"/>
      <point x="136" y="-10"/>
    </contour>
    <contour>
      <point x="197" y="286" type="line"/>
      <point x="197" y="356" type="line" smooth="yes"/>
      <point x="197" y="371"/>
      <point x="203" y="383"/>
      <point x="216" y="392" type="curve" smooth="yes"/>
      <point x="228" y="400"/>
      <point x="252" y="404"/>
      <point x="287" y="404" type="curve" smooth="yes"/>
      <point x="351" y="404"/>
      <point x="372" y="387"/>
      <point x="372" y="356" type="curve" smooth="yes"/>
      <point x="372" y="286" type="line"/>
    </contour>
  </outline>
</glyph>
<glyph name="f" format="2">
  <advance width="388"/>
  <unicode hex="0066"/>
  <outline>
    <contour>
      <point x="101" y="0" type="line"/>
      <point x="247" y="0" type="line"/>
      <point x="247" y="394" type="line"/>
      <point x="380" y="394" type="line"/>
      <point x="380" y="484" type="line"/>
      <point x="247" y="484" type="line"/>
      <point x="247" y="565" type="line" smooth="yes"/>
      <point x="247" y="608"/>
      <point x="264" y="620"/>
      <point x="312" y="620" type="curve" smooth="yes"/>
      <point x="329" y="620"/>
      <point x="358" y="617"/>
      <point x="398" y="612" type="curve"/>
      <point x="398" y="702" type="line"/>
      <point x="353" y="707"/>
      <point x="317" y="710"/>
      <point x="289" y="710" type="curve" smooth="yes"/>
      <point x="158" y="710"/>
      <point x="101" y="676"/>
      <point x="101" y="557" type="curve" smooth="yes"/>
      <point x="101" y="484" type="line"/>
      <point x="10" y="484" type="line"/>
      <point x="10" y="394" type="line"/>
      <point x="101" y="394" type="line"/>
    </contour>
  </outline>
</glyph>
<glyph name="i" format="2">
  <advance width="282"/>
  <unicode hex="0069"/>
  <anchor x="141" y="0" name="bottom"/>
  <outline>
    <contour>
      <point x="68" y="0" type="line"/>
      <point x="214" y="0" type="line"/>
      <point x="214" y="484" type="line"/>
      <point x="68" y="484" type="line"/>
    </contour>
    <contour>
      <point x="68" y="541" type="line"/>
      <point x="214" y="541" type="line"/>
      <point x="214" y="659" type="line"/>
      <point x="68" y="659" type="line"/>
    </contour>
  </outline>
</glyph>
<glyph name="j" format="2">
  <advance width="274"/>
  <unicode hex="006A"/>
  <outline>
    <contour>
      <point x="9" y="-220" type="curve" smooth="yes"/>
      <point x="140" y="-220"/>
      <point x="210" y="-188"/>
      <point x="210" y="-73" type="curve" smooth="yes"/>
      <point x="210" y="484" type="line"/>
      <point x="64" y="484" type="line"/>
      <point x="64" y="-40" type="line" smooth="yes"/>
      <point x="64" y="-115"/>
      <point x="52" y="-124"/>
      <point x="-20" y="-124" type="curve" smooth="yes"/>
      <point x="-28" y="-124"/>
      <point x="-34" y="-124"/>
      <point x="-38" y="-123" type="curve"/>
      <point x="-38" y="-218" type="line"/>
      <point x="-15" y="-219"/>
      <point x="0" y="-220"/>
    </contour>
    <contour>
      <point x="64" y="541" type="line"/>
      <point x="210" y="541" type="line"/>
      <point x="210" y="659" type="line"/>
      <point x="64" y="659" type="line"/>
    </contour>
  </outline>
</glyph>
<glyph name="k" format="2">
  <advance width="540"/>
  <unicode hex="006B"/>
  <outline>
    <contour>
      <point x="391" y="0" type="line"/>
      <point x="556" y="0" type="line"/>
      <point x="374" y="273" type="line"/>
      <point x="542" y="484" type="line"/>
      <point x="375" y="484" type="line"/>
      <point x="216" y="272" type="line"/>
    </contour>
    <contour>
      <point x="64" y="0" type="line"/>
      <point x="210" y="0" type="line"/>
      <point x="210" y="700" type="line"/>
      <point x="64" y="700" type="line"/>
    </contour>
  </outline>
</glyph>
<glyph name="l" format="2">
  <advance width="282"/>
  <unicode hex="006C"/>
  <outline>
    <contour>
      <point x="68" y="0" type="line"/>
      <point x="214" y="0" type="line"/>
      <point x="214" y="700" type="line"/>
      <point x="68" y="700" type="line"/>
    </contour>
  </outline>
</glyph>
<glyph name="m" format="2">
  <advance width="876"/>
  <unicode hex="006D"/>
  <outline>
    <contour>
      <point x="64" y="0" type="line"/>
      <point x="210" y="0" type="line"/>
      <point x="210" y="335" type="line" smooth="yes"/>
      <point x="210" y="394"/>
      <point x="217" y="404"/>
      <point x="297" y="404" type="curve" smooth="yes"/>
      <point x="360" y="404"/>
      <point x="365" y="394"/>
      <point x="365" y="335" type="curve" smooth="yes"/>
      <point x="365" y="0" type="line"/>
      <point x="511" y="0" type="line"/>
      <point x="511" y="335" type="line" smooth="yes"/>
      <point x="511" y="394"/>
      <point x="518" y="404"/>
      <point x="598" y="404" type="curve" smooth="yes"/>
      <point x="661" y="404"/>
      <point x="666" y="394"/>
      <point x="666" y="335" type="curve" smooth="yes"/>
      <point x="666" y="0" type="line"/>
      <point x="812" y="0" type="line"/>
      <point x="812" y="355" type="line"/>
      <point x="812" y="451"/>
      <point x="781" y="494"/>
      <point x="654" y="494" type="curve" smooth="yes"/>
      <point x="558" y="494"/>
      <point x="519" y="471"/>
      <point x="503" y="422" type="curve"/>
      <point x="487" y="470"/>
      <point x="445" y="494"/>
      <point x="353" y="494" type="curve" smooth="yes"/>
      <point x="267" y="494"/>
      <point x="219" y="471"/>
      <point x="210" y="425" type="curve"/>
      <point x="210" y="484" type="line"/>
      <point x="64" y="484" type="line"/>
    </contour>
  </outline>
</glyph>
<glyph name="o" format="2">
  <advance width="592"/>
  <unicode hex="006F"/>
  <anchor x="296" y="0" name="bottom"/>
  <anchor x="296" y="242" name="center"/>
  <anchor x="533" y="10" name="ogonek"/>
  <anchor x="296" y="484" name="top"/>
  <anchor x="490" y="484" name="topright"/>
  <outline>
    <contour>
      <point x="296" y="-10" type="curve" smooth="yes"/>
      <point x="324" y="-10"/>
      <point x="348" y="-9"/>
      <point x="368" y="-7" type="curve" smooth="yes"/>
      <point x="407" y="-4"/>
      <point x="461" y="9"/>
      <point x="490" y="34" type="curve" smooth="yes"/>
      <point x="519" y="58"/>
      <point x="542" y="103"/>
      <point x="542" y="166" type="curve" smooth="yes"/>
      <point x="542" y="309" type="line"/>
      <point x="542" y="342"/>
      <point x="537" y="371"/>
      <point x="527" y="395" type="curve" smooth="yes"/>
      <point x="506" y="442"/>
      <point x="478" y="465"/>
      <point x="430" y="479" type="curve" smooth="yes"/>
      <point x="382" y="493"/>
      <point x="351" y="494"/>
      <point x="296" y="494" type="curve" smooth="yes"/>
      <point x="269" y="494"/>
      <point x="246" y="493"/>
      <point x="227" y="492" type="curve"/>
      <point x="189" y="488"/>
      <point x="134" y="474"/>
      <point x="104" y="449" type="curve" smooth="yes"/>
      <point x="74" y="424"/>
      <point x="50" y="376"/>
      <point x="50" y="309" type="curve" smooth="yes"/>
      <point x="50" y="166" type="line" smooth="yes"/>
      <point x="50" y="135"/>
      <point x="55" y="108"/>
      <point x="65" y="86" type="curve" smooth="yes"/>
      <point x="85" y="41"/>
      <point x="112" y="18"/>
      <point x="160" y="5" type="curve" smooth="yes"/>
      <point x="207" y="-8"/>
      <point x="240" y="-10"/>
    </contour>
    <contour>
      <point x="296" y="81" type="curve" smooth="yes"/>
      <point x="215" y="81"/>
      <point x="196" y="98"/>
      <point x="196" y="149" type="curve" smooth="yes"/>
      <point x="196" y="332" type="line" smooth="yes"/>
      <point x="196" y="384"/>
      <point x="216" y="404"/>
      <point x="296" y="404" type="curve" smooth="yes"/>
      <point x="376" y="404"/>
      <point x="396" y="384"/>
      <point x="396" y="332" type="curve" smooth="yes"/>
      <point x="396" y="149" type="line"/>
      <point x="396" y="98"/>
      <point x="377" y="81"/>
    </contour>
  </outline>
</glyph>
<glyph name="p" format="2">
  <advance width="609"/>
  <unicode hex="0070"/>
  <outline>
    <contour>
      <point x="64" y="-208" type="line"/>
      <point x="210" y="-208" type="line"/>
      <point x="210" y="49" type="line"/>
      <point x="223" y="0"/>
      <point x="264" y="-10"/>
      <point x="355" y="-10" type="curve" smooth="yes"/>
      <point x="499" y="-10"/>
      <point x="559" y="28"/>
      <point x="559" y="172" type="curve" smooth="yes"/>
      <point x="559" y="331" type="line"/>
      <point x="559" y="390"/>
      <point x="553" y="422"/>
      <point x="526" y="452" type="curve" smooth="yes"/>
      <point x="499" y="482"/>
      <point x="449" y="494"/>
      <point x="366" y="494" type="curve" smooth="yes"/>
      <point x="267" y="494"/>
      <point x="219" y="479"/>
      <point x="202" y="436" type="curve"/>
      <point x="202" y="484" type="line"/>
      <point x="64" y="484" type="line"/>
    </contour>
    <contour>
      <point x="310" y="81" type="curve" smooth="yes"/>
      <point x="225" y="81"/>
      <point x="210" y="96"/>
      <point x="210" y="153" type="curve" smooth="yes"/>
      <point x="210" y="332" type="line" smooth="yes"/>
      <point x="210" y="385"/>
      <point x="226" y="404"/>
      <point x="309" y="404" type="curve" smooth="yes"/>
      <point x="401" y="404"/>
      <point x="413" y="395"/>
      <point x="413" y="332" type="curve" smooth="yes"/>
      <point x="413" y="153" type="line"/>
      <point x="413" y="96"/>
      <point x="395" y="81"/>
    </contour>
  </outline>
</glyph>
<glyph name="q" format="2">
  <advance width="608"/>
  <unicode hex="0071"/>
  <outline>
    <contour>
      <point x="398" y="-208" type="line"/>
      <point x="544" y="-208" type="line"/>
      <point x="544" y="310" type="line"/>
      <point x="544" y="361"/>
      <point x="543" y="382"/>
      <point x="533" y="415" type="curve" smooth="yes"/>
      <point x="523" y="447"/>
      <point x="503" y="459"/>
      <point x="467" y="475" type="curve"/>
      <point x="430" y="490"/>
      <point x="376" y="494"/>
      <point x="297" y="494" type="curve" smooth="yes"/>
      <point x="97" y="494"/>
      <point x="50" y="461"/>
      <point x="50" y="328" type="curve" smooth="yes"/>
      <point x="50" y="159" type="line" smooth="yes"/>
      <point x="50" y="16"/>
      <point x="85" y="-10"/>
      <point x="250" y="-10" type="curve" smooth="yes"/>
      <point x="349" y="-10"/>
      <point x="366" y="2"/>
      <point x="398" y="55" type="curve"/>
    </contour>
    <contour>
      <point x="287" y="81" type="curve" smooth="yes"/>
      <point x="208" y="81"/>
      <point x="196" y="97"/>
      <point x="196" y="150" type="curve" smooth="yes"/>
      <point x="196" y="337" type="line" smooth="yes"/>
      <point x="196" y="394"/>
      <point x="206" y="404"/>
      <point x="295" y="404" type="curve" smooth="yes"/>
      <point x="380" y="404"/>
      <point x="398" y="385"/>
      <point x="398" y="337" type="curve" smooth="yes"/>
      <point x="398" y="145" type="line"/>
      <point x="398" y="93"/>
      <point x="382" y="81"/>
    </contour>
  </outline>
</glyph>
<glyph name="r" format="2">
  <advance width="397"/>
  <unicode hex="0072"/>
  <outline>
    <contour>
      <point x="64" y="0" type="line"/>
      <point x="210" y="0" type="line"/>
      <point x="210" y="291" type="line" smooth="yes"/>
      <point x="210" y="351"/>
      <point x="251" y="373"/>
      <point x="331" y="373" type="curve" smooth="yes"/>
      <point x="381" y="373" type="line"/>
      <point x="381" y="494" type="line"/>
      <point x="329" y="494" type="line" smooth="yes"/>
      <point x="270" y="494"/>
      <point x="204" y="447"/>
      <point x="203" y="399" type="curve"/>
      <point x="203" y="484" type="line"/>
      <point x="64" y="484" type="line"/>
    </contour>
  </outline>
</glyph>
<glyph name="s" format="2">
  <advance width="525"/>
  <unicode hex="0073"/>
  <outline>
    <contour>
      <point x="245" y="-10" type="curve" smooth="yes"/>
      <point x="272" y="-10"/>
      <point x="296" y="-9"/>
      <point x="317" y="-7" type="curve" smooth="yes"/>
      <point x="357" y="-4"/>
      <point x="406" y="6"/>
      <point x="434" y="26" type="curve" smooth="yes"/>
      <point x="461" y="45"/>
      <point x="481" y="80"/>
      <point x="481" y="128" type="curve" smooth="yes"/>
      <point x="481" y="189" type="line"/>
      <point x="481" y="266"/>
      <point x="422" y="305"/>
      <point x="303" y="305" type="curve" smooth="yes"/>
      <point x="239" y="305" type="line" smooth="yes"/>
      <point x="204" y="305"/>
      <point x="188" y="321"/>
      <point x="188" y="337" type="curve" smooth="yes"/>
      <point x="188" y="363" type="line" smooth="yes"/>
      <point x="188" y="379"/>
      <point x="193" y="390"/>
      <point x="204" y="396" type="curve" smooth="yes"/>
      <point x="215" y="401"/>
      <point x="240" y="404"/>
      <point x="281" y="404" type="curve" smooth="yes"/>
      <point x="294" y="404"/>
      <point x="353" y="400"/>
      <point x="457" y="392" type="curve"/>
      <point x="457" y="485" type="line"/>
      <point x="374" y="491"/>
      <point x="317" y="494"/>
      <point x="285" y="494" type="curve" smooth="yes"/>
      <point x="132" y="494"/>
      <point x="44" y="466"/>
      <point x="44" y="378" type="curve" smooth="yes"/>
      <point x="44" y="319" type="line" smooth="yes"/>
      <point x="44" y="240"/>
      <point x="104" y="199"/>
      <point x="205" y="199" type="curve" smooth="yes"/>
      <point x="268" y="199" type="line" smooth="yes"/>
      <point x="325" y="199"/>
      <point x="337" y="184"/>
      <point x="337" y="153" type="curve" smooth="yes"/>
      <point x="337" y="123" type="line" smooth="yes"/>
      <point x="337" y="90"/>
      <point x="304" y="81"/>
      <point x="247" y="81" type="curve" smooth="yes"/>
      <point x="211" y="81"/>
      <point x="147" y="88"/>
      <point x="54" y="102" type="curve"/>
      <point x="54" y="5" type="line"/>
      <point x="129" y="-5"/>
      <point x="192" y="-10"/>
    </contour>
  </outline>
</glyph>
<glyph name="t" format="2">
  <advance width="407"/>
  <unicode hex="0074"/>
  <outline>
    <contour>
      <point x="306" y="-10" type="curve" smooth="yes"/>
      <point x="332" y="-10"/>
      <point x="359" y="-8"/>
      <point x="387" y="-5" type="curve"/>
      <point x="387" y="86" type="line"/>
      <point x="364" y="83"/>
      <point x="346" y="81"/>
      <point x="335" y="81" type="curve" smooth="yes"/>
      <point x="267" y="81"/>
      <point x="254" y="99"/>
      <point x="254" y="166" type="curve" smooth="yes"/>
      <point x="254" y="394" type="line"/>
      <point x="387" y="394" type="line"/>
      <point x="387" y="484" type="line"/>
      <point x="254" y="484" type="line"/>
      <point x="254" y="624" type="line"/>
      <point x="108" y="624" type="line"/>
      <point x="108" y="484" type="line"/>
      <point x="10" y="484" type="line"/>
      <point x="10" y="394" type="line"/>
      <point x="108" y="394" type="line"/>
      <point x="108" y="141" type="line" smooth="yes"/>
      <point x="108" y="115"/>
      <point x="112" y="93"/>
      <point x="120" y="74" type="curve" smooth="yes"/>
      <point x="135" y="36"/>
      <point x="157" y="17"/>
      <point x="194" y="5" type="curve"/>
      <point x="230" y="-8"/>
      <point x="261" y="-10"/>
    </contour>
  </outline>
</glyph>
<glyph name="v" format="2">
  <advance width="510"/>
  <unicode hex="0076"/>
  <outline>
    <contour>
      <point x="184" y="0" type="line"/>
      <point x="332" y="0" type="line"/>
      <point x="510" y="484" type="line"/>
      <point x="363" y="484" type="line"/>
      <point x="261" y="149" type="line"/>
      <point x="155" y="484" type="line"/>
      <point x="0" y="484" type="line"/>
    </contour>
  </outline>
</glyph>
<glyph name="x" format="2">
  <advance width="568"/>
  <unicode hex="0078"/>
  <outline>
    <contour>
      <point x="10" y="0" type="line"/>
      <point x="179" y="0" type="line"/>
      <point x="284" y="152" type="line"/>
      <point x="390" y="0" type="line"/>
      <point x="559" y="0" type="line"/>
      <point x="368" y="248" type="line"/>
      <point x="549" y="484" type="line"/>
      <point x="380" y="484" type="line"/>
      <point x="284" y="345" type="line"/>
      <point x="189" y="484" type="line"/>
      <point x="20" y="484" type="line"/>
      <point x="200" y="248" type="line"/>
    </contour>
  </outline>
</glyph>
<glyph name="y" format="2">
  <advance width="534"/>
  <unicode hex="0079"/>
  <anchor x="408" y="0" name="bottom"/>
  <anchor x="267" y="484" name="top"/>
  <outline>
    <contour>
      <point x="113" y="-208" type="line"/>
      <point x="261" y="-208" type="line"/>
      <point x="526" y="484" type="line"/>
      <point x="375" y="484" type="line"/>
      <point x="276" y="142" type="line"/>
      <point x="167" y="484" type="line"/>
      <point x="8" y="484" type="line"/>
      <point x="201" y="4" type="line"/>
    </contour>
  </outline>
</glyph>
<glyph name="braceleft" format="2">
  <advance width="384"/>
  <unicode hex="007B"/>
  <outline>
    <contour>
      <point x="261" y="-190" type="curve" smooth="yes"/>
      <point x="364" y="-190" type="line"/>
      <point x="364" y="-103" type="line"/>
      <point x="304" y="-103" type="line" smooth="yes"/>
      <point x="271" y="-103"/>
      <point x="243" y="-79"/>
      <point x="243" y="-38" type="curve" smooth="yes"/>
      <point x="243" y="157" type="line" smooth="yes"/>
      <point x="243" y="240"/>
      <point x="225" y="277"/>
      <point x="164" y="297" type="curve"/>
      <point x="164" y="301" type="line"/>
      <point x="225" y="322"/>
      <point x="243" y="360"/>
      <point x="243" y="441" type="curve" smooth="yes"/>
      <point x="243" y="584" type="line" smooth="yes"/>
      <point x="243" y="625"/>
      <point x="271" y="649"/>
      <point x="304" y="649" type="curve" smooth="yes"/>
      <point x="364" y="649" type="line"/>
      <point x="364" y="736" type="line"/>
      <point x="261" y="736" type="line" smooth="yes"/>
      <point x="218" y="736"/>
      <point x="188" y="730"/>
      <point x="154" y="707" type="curve" smooth="yes"/>
      <point x="120" y="684"/>
      <point x="100" y="636"/>
      <point x="100" y="564" type="curve" smooth="yes"/>
      <point x="100" y="426" type="line" smooth="yes"/>
      <point x="100" y="351"/>
      <point x="96" y="345"/>
      <point x="31" y="345" type="curve" smooth="yes"/>
      <point x="8" y="345" type="line"/>
      <point x="8" y="253" type="line"/>
      <point x="31" y="253" type="line" smooth="yes"/>
      <point x="96" y="253"/>
      <point x="100" y="247"/>
      <point x="100" y="172" type="curve" smooth="yes"/>
      <point x="100" y="-18" type="line" smooth="yes"/>
      <point x="100" y="-90"/>
      <point x="120" y="-138"/>
      <point x="154" y="-161" type="curve" smooth="yes"/>
      <point x="188" y="-184"/>
      <point x="218" y="-190"/>
    </contour>
  </outline>
</glyph>
<glyph name="bar" format="2">
  <advance width="265"/>
  <unicode hex="007C"/>
  <outline>
    <contour>
      <point x="104" y="-10" type="line"/>
      <point x="161" y="-10" type="line"/>
      <point x="161" y="659" type="line"/>
      <point x="104" y="659" type="line"/>
    </contour>
  </outline>
</glyph>
<glyph name="braceright" format="2">
  <advance width="384"/>
  <unicode hex="007D"/>
  <outline>
    <contour>
      <point x="20" y="-190" type="line"/>
      <point x="123" y="-190" type="line" smooth="yes"/>
      <point x="166" y="-190"/>
      <point x="197" y="-184"/>
      <point x="231" y="-161" type="curve" smooth="yes"/>
      <point x="265" y="-138"/>
      <point x="284" y="-90"/>
      <point x="284" y="-18" type="curve" smooth="yes"/>
      <point x="284" y="172" type="line" smooth="yes"/>
      <point x="284" y="247"/>
      <point x="288" y="253"/>
      <point x="353" y="253" type="curve" smooth="yes"/>
      <point x="376" y="253" type="line"/>
      <point x="376" y="345" type="line"/>
      <point x="353" y="345" type="line" smooth="yes"/>
      <point x="288" y="345"/>
      <point x="284" y="351"/>
      <point x="284" y="426" type="curve" smooth="yes"/>
      <point x="284" y="564" type="line" smooth="yes"/>
      <point x="284" y="636"/>
      <point x="265" y="684"/>
      <point x="231" y="707" type="curve" smooth="yes"/>
      <point x="197" y="730"/>
      <point x="166" y="736"/>
      <point x="123" y="736" type="curve" smooth="yes"/>
      <point x="20" y="736" type="line"/>
      <point x="20" y="649" type="line"/>
      <point x="80" y="649" type="line" smooth="yes"/>
      <point x="113" y="649"/>
      <point x="141" y="625"/>
      <point x="141" y="584" type="curve" smooth="yes"/>
      <point x="141" y="441" type="line" smooth="yes"/>
      <point x="141" y="360"/>
      <point x="159" y="322"/>
      <point x="220" y="301" type="curve"/>
      <point x="220" y="297" type="line"/>
      <point x="159" y="277"/>
      <point x="141" y="240"/>
      <point x="141" y="157" type="curve" smooth="yes"/>
      <point x="141" y="-38" type="line" smooth="yes"/>
      <point x="141" y="-79"/>
      <point x="113" y="-103"/>
      <point x="80" y="-103" type="curve" smooth="yes"/>
      <point x="20" y="-103" type="line"/>
    </contour>
  </outline>
</glyph>
<glyph name="asciitilde" format="2">
  <advance width="580"/>
  <unicode hex="007E"/>
  <outline>
    <contour>
      <point x="68" y="225" type="line"/>
      <point x="96" y="268"/>
      <point x="130" y="286"/>
      <point x="186" y="286" type="curve" smooth="yes"/>
      <point x="206" y="286"/>
      <point x="240" y="276"/>
      <point x="287" y="257" type="curve" smooth="yes"/>
      <point x="334" y="237"/>
      <point x="368" y="227"/>
      <point x="389" y="227" type="curve" smooth="yes"/>
      <point x="447" y="227"/>
      <point x="488" y="242"/>
      <point x="512" y="273" type="curve"/>
      <point x="512" y="374" type="line"/>
      <point x="487" y="333"/>
      <point x="447" y="312"/>
      <point x="393" y="312" type="curve" smooth="yes"/>
      <point x="377" y="312"/>
      <point x="346" y="322"/>
      <point x="299" y="342" type="curve" smooth="yes"/>
      <point x="252" y="361"/>
      <point x="215" y="371"/>
      <point x="190" y="371" type="curve" smooth="yes"/>
      <point x="133" y="371"/>
      <point x="93" y="356"/>
      <point x="68" y="326" type="curve"/>
    </contour>
  </outline>
</glyph>
<glyph name="exclamdown" format="2">
  <advance width="295"/>
  <unicode hex="00A1"/>
  <outline>
    <contour>
      <point x="60" y="-165" type="line"/>
      <point x="235" y="-165" type="line"/>
      <point x="192" y="296" type="line"/>
      <point x="103" y="296" type="line"/>
    </contour>
    <contour>
      <point x="70" y="346" type="line"/>
      <point x="226" y="346" type="line"/>
      <point x="226" y="484" type="line"/>
      <point x="70" y="484" type="line"/>
    </contour>
  </outline>
</glyph>
<glyph name="cent" format="2">
  <advance width="464"/>
  <unicode hex="00A2"/>
  <outline>
    <contour>
      <point x="244" y="-10" type="line"/>
      <point x="326" y="-10" type="line"/>
      <point x="326" y="75" type="line"/>
      <point x="367" y="78"/>
      <point x="407" y="83"/>
      <point x="446" y="90" type="curve"/>
      <point x="446" y="188" type="line"/>
      <point x="377" y="173"/>
      <point x="323" y="166"/>
      <point x="282" y="166" type="curve" smooth="yes"/>
      <point x="240" y="166"/>
      <point x="213" y="169"/>
      <point x="200" y="175" type="curve" smooth="yes"/>
      <point x="187" y="180"/>
      <point x="180" y="195"/>
      <point x="180" y="218" type="curve" smooth="yes"/>
      <point x="180" y="426" type="line" smooth="yes"/>
      <point x="180" y="481"/>
      <point x="193" y="486"/>
      <point x="272" y="486" type="curve" smooth="yes"/>
      <point x="314" y="486"/>
      <point x="370" y="478"/>
      <point x="439" y="462" type="curve"/>
      <point x="439" y="559" type="line"/>
      <point x="392" y="568"/>
      <point x="355" y="573"/>
      <point x="326" y="575" type="curve"/>
      <point x="326" y="659" type="line"/>
      <point x="244" y="659" type="line"/>
      <point x="244" y="577" type="line"/>
      <point x="181" y="576"/>
      <point x="142" y="569"/>
      <point x="98" y="546" type="curve" smooth="yes"/>
      <point x="54" y="522"/>
      <point x="32" y="474"/>
      <point x="32" y="401" type="curve" smooth="yes"/>
      <point x="32" y="240" type="line" smooth="yes"/>
      <point x="32" y="211"/>
      <point x="36" y="187"/>
      <point x="45" y="166" type="curve" smooth="yes"/>
      <point x="61" y="124"/>
      <point x="84" y="103"/>
      <point x="124" y="90" type="curve" smooth="yes"/>
      <point x="164" y="77"/>
      <point x="195" y="74"/>
      <point x="244" y="73" type="curve"/>
    </contour>
  </outline>
</glyph>
<glyph name="sterling" format="2">
  <advance width="580"/>
  <unicode hex="00A3"/>
  <outline>
    <contour>
      <point x="42" y="0" type="line"/>
      <point x="538" y="0" type="line"/>
      <point x="538" y="111" type="line"/>
      <point x="289" y="111" type="line"/>
      <point x="289" y="283" type="line"/>
      <point x="460" y="283" type="line"/>
      <point x="460" y="385" type="line"/>
      <point x="289" y="385" type="line"/>
      <point x="289" y="475" type="line" smooth="yes"/>
      <point x="289" y="552"/>
      <point x="298" y="559"/>
      <point x="395" y="559" type="curve" smooth="yes"/>
      <point x="420" y="559"/>
      <point x="451" y="556"/>
      <point x="490" y="550" type="curve"/>
      <point x="490" y="651" type="line"/>
      <point x="445" y="656"/>
      <point x="406" y="659"/>
      <point x="371" y="659" type="curve" smooth="yes"/>
      <point x="294" y="659"/>
      <point x="247" y="651"/>
      <point x="205" y="623" type="curve" smooth="yes"/>
      <point x="163" y="595"/>
      <point x="143" y="543"/>
      <point x="143" y="460" type="curve" smooth="yes"/>
      <point x="143" y="385" type="line"/>
      <point x="42" y="385" type="line"/>
      <point x="42" y="283" type="line"/>
      <point x="143" y="283" type="line"/>
      <point x="143" y="111" type="line"/>
      <point x="42" y="111" type="line"/>
    </contour>
  </outline>
</glyph>
<glyph name="currency" format="2">
  <advance width="520"/>
  <unicode hex="00A4"/>
  <outline>
    <contour>
      <point x="258" y="89" type="curve" smooth="yes"/>
      <point x="315" y="89"/>
      <point x="369" y="109"/>
      <point x="421" y="150" type="curve"/>
      <point x="475" y="96" type="line"/>
      <point x="501" y="122" type="line"/>
      <point x="447" y="176" type="line"/>
      <point x="488" y="227"/>
      <point x="509" y="282"/>
      <point x="509" y="339" type="curve" smooth="yes"/>
      <point x="509" y="396"/>
      <point x="488" y="451"/>
      <point x="447" y="502" type="curve"/>
      <point x="501" y="556" type="line"/>
      <point x="475" y="582" type="line"/>
      <point x="421" y="528" type="line"/>
      <point x="372" y="566"/>
      <point x="318" y="585"/>
      <point x="258" y="585" type="curve" smooth="yes"/>
      <point x="203" y="585"/>
      <point x="151" y="565"/>
      <point x="100" y="526" type="curve"/>
      <point x="46" y="580" type="line"/>
      <point x="20" y="554" type="line"/>
      <point x="74" y="500" type="line"/>
      <point x="33" y="449"/>
      <point x="12" y="394"/>
      <point x="12" y="337" type="curve" smooth="yes"/>
      <point x="12" y="280"/>
      <point x="33" y="225"/>
      <point x="74" y="174" type="curve"/>
      <point x="20" y="120" type="line"/>
      <point x="46" y="94" type="line"/>
      <point x="100" y="148" type="line"/>
      <point x="151" y="109"/>
      <point x="203" y="89"/>
    </contour>
    <contour>
      <point x="262" y="129" type="curve" smooth="yes"/>
      <point x="146" y="129"/>
      <point x="52" y="221"/>
      <point x="52" y="337" type="curve" smooth="yes"/>
      <point x="52" y="456"/>
      <point x="146" y="545"/>
      <point x="263" y="545" type="curve" smooth="yes"/>
      <point x="376" y="545"/>
      <point x="469" y="451"/>
      <point x="469" y="339" type="curve" smooth="yes"/>
      <point x="469" y="224"/>
      <point x="377" y="129"/>
    </contour>
  </outline>
</glyph>
<glyph name="yen" format="2">
  <advance width="647"/>
  <unicode hex="00A5"/>
  <outline>
    <contour>
      <point x="247" y="0" type="line"/>
      <point x="400" y="0" type="line"/>
      <point x="400" y="95" type="line"/>
      <point x="593" y="95" type="line"/>
      <point x="593" y="196" type="line"/>
      <point x="400" y="196" type="line"/>
      <point x="400" y="263" type="line"/>
      <point x="593" y="263" type="line"/>
      <point x="593" y="364" type="line"/>
      <point x="461" y="364" type="line"/>
      <point x="638" y="649" type="line"/>
      <point x="460" y="649" type="line"/>
      <point x="324" y="395" type="line"/>
      <point x="187" y="649" type="line"/>
      <point x="10" y="649" type="line"/>
      <point x="185" y="364" type="line"/>
      <point x="55" y="364" type="line"/>
      <point x="55" y="263" type="line"/>
      <point x="247" y="263" type="line"/>
      <point x="247" y="196" type="line"/>
      <point x="55" y="196" type="line"/>
      <point x="55" y="95" type="line"/>
      <point x="247" y="95" type="line"/>
    </contour>
  </outline>
</glyph>
<glyph name="section" format="2">
  <advance width="580"/>
  <unicode hex="00A7"/>
  <outline>
    <contour>
      <point x="272" y="-115" type="curve" smooth="yes"/>
      <point x="343" y="-115"/>
      <point x="388" y="-110"/>
      <point x="441" y="-92" type="curve" smooth="yes"/>
      <point x="493" y="-74"/>
      <point x="522" y="-33"/>
      <point x="522" y="30" type="curve" smooth="yes"/>
      <point x="522" y="92" type="line" smooth="yes"/>
      <point x="522" y="121"/>
      <point x="503" y="153"/>
      <point x="475" y="161" type="curve"/>
      <point x="508" y="173"/>
      <point x="542" y="221"/>
      <point x="542" y="269" type="curve" smooth="yes"/>
      <point x="542" y="316" type="line"/>
      <point x="542" y="404"/>
      <point x="477" y="449"/>
      <point x="360" y="449" type="curve" smooth="yes"/>
      <point x="265" y="449" type="line" smooth="yes"/>
      <point x="224" y="449"/>
      <point x="203" y="459"/>
      <point x="203" y="478" type="curve" smooth="yes"/>
      <point x="203" y="529" type="line" smooth="yes"/>
      <point x="203" y="535"/>
      <point x="204" y="540"/>
      <point x="207" y="543" type="curve" smooth="yes"/>
      <point x="209" y="546"/>
      <point x="218" y="550"/>
      <point x="235" y="554" type="curve" smooth="yes"/>
      <point x="252" y="558"/>
      <point x="276" y="560"/>
      <point x="308" y="560" type="curve" smooth="yes"/>
      <point x="327" y="560"/>
      <point x="390" y="556"/>
      <point x="497" y="548" type="curve"/>
      <point x="497" y="650" type="line"/>
      <point x="389" y="656"/>
      <point x="327" y="659"/>
      <point x="312" y="659" type="curve" smooth="yes"/>
      <point x="148" y="659"/>
      <point x="58" y="626"/>
      <point x="58" y="537" type="curve" smooth="yes"/>
      <point x="58" y="471" type="line" smooth="yes"/>
      <point x="58" y="444"/>
      <point x="79" y="413"/>
      <point x="104" y="400" type="curve"/>
      <point x="69" y="388"/>
      <point x="38" y="350"/>
      <point x="38" y="317" type="curve" smooth="yes"/>
      <point x="38" y="237" type="line" smooth="yes"/>
      <point x="38" y="153"/>
      <point x="112" y="111"/>
      <point x="229" y="111" type="curve" smooth="yes"/>
      <point x="316" y="111" type="line" smooth="yes"/>
      <point x="344" y="111"/>
      <point x="362" y="106"/>
      <point x="369" y="98" type="curve" smooth="yes"/>
      <point x="376" y="89"/>
      <point x="377" y="83"/>
      <point x="377" y="74" type="curve" smooth="yes"/>
      <point x="377" y="26" type="line" smooth="yes"/>
      <point x="377" y="9"/>
      <point x="367" y="-3"/>
      <point x="344" y="-7" type="curve" smooth="yes"/>
      <point x="321" y="-12"/>
      <point x="306" y="-13"/>
      <point x="274" y="-13" type="curve" smooth="yes"/>
      <point x="218" y="-13"/>
      <point x="149" y="-6"/>
      <point x="68" y="8" type="curve"/>
      <point x="68" y="-101" type="line"/>
      <point x="149" y="-110"/>
      <point x="217" y="-115"/>
    </contour>
    <contour>
      <point x="238" y="216" type="line" smooth="yes"/>
      <point x="201" y="216"/>
      <point x="183" y="222"/>
      <point x="183" y="235" type="curve" smooth="yes"/>
      <point x="183" y="319" type="line" smooth="yes"/>
      <point x="183" y="336"/>
      <point x="194" y="345"/>
      <point x="217" y="345" type="curve" smooth="yes"/>
      <point x="326" y="345" type="line" smooth="yes"/>
      <point x="373" y="345"/>
      <point x="397" y="336"/>
      <point x="397" y="317" type="curve" smooth="yes"/>
      <point x="397" y="245" type="line"/>
      <point x="397" y="234"/>
      <point x="394" y="227"/>
      <point x="387" y="223" type="curve" smooth="yes"/>
      <point x="380" y="218"/>
      <point x="365" y="216"/>
      <point x="342" y="216" type="curve" smooth="yes"/>
    </contour>
  </outline>
</glyph>
<glyph name="dieresis" format="2">
  <advance width="516"/>
  <unicode hex="00A8"/>
  <outline>
    <contour>
      <point x="290" y="565" type="line"/>
      <point x="416" y="565" type="line"/>
      <point x="416" y="683" type="line"/>
      <point x="290" y="683" type="line"/>
    </contour>
    <contour>
      <point x="100" y="565" type="line"/>
      <point x="226" y="565" type="line"/>
      <point x="226" y="683" type="line"/>
      <point x="100" y="683" type="line"/>
    </contour>
  </outline>
</glyph>
<glyph name="copyright" format="2">
  <advance width="777"/>
  <unicode hex="00A9"/>
  <outline>
    <contour>
      <point x="392" y="-10" type="curve" smooth="yes"/>
      <point x="419" y="-10"/>
      <point x="445" y="-9"/>
      <point x="472" y="-6" type="curve"/>
      <point x="525" y="-2"/>
      <point x="595" y="15"/>
      <point x="643" y="39" type="curve" smooth="yes"/>
      <point x="691" y="63"/>
      <point x="727" y="109"/>
      <point x="727" y="166" type="curve" smooth="yes"/>
      <point x="727" y="474" type="line"/>
      <point x="727" y="505"/>
      <point x="719" y="532"/>
      <point x="703" y="555" type="curve" smooth="yes"/>
      <point x="671" y="602"/>
      <point x="624" y="624"/>
      <point x="560" y="640" type="curve" smooth="yes"/>
      <point x="496" y="656"/>
      <point x="447" y="659"/>
      <point x="392" y="659" type="curve" smooth="yes"/>
      <point x="349" y="659"/>
      <point x="309" y="656"/>
      <point x="254" y="647" type="curve" smooth="yes"/>
      <point x="199" y="638"/>
      <point x="154" y="620"/>
      <point x="114" y="594" type="curve" smooth="yes"/>
      <point x="74" y="568"/>
      <point x="50" y="525"/>
      <point x="50" y="473" type="curve" smooth="yes"/>
      <point x="50" y="166" type="line" smooth="yes"/>
      <point x="50" y="137"/>
      <point x="58" y="112"/>
      <point x="75" y="90" type="curve" smooth="yes"/>
      <point x="107" y="46"/>
      <point x="156" y="24"/>
      <point x="221" y="9" type="curve" smooth="yes"/>
      <point x="286" y="-7"/>
      <point x="337" y="-10"/>
    </contour>
    <contour>
      <point x="394" y="72" type="curve" smooth="yes"/>
      <point x="237" y="72"/>
      <point x="158" y="106"/>
      <point x="158" y="174" type="curve" smooth="yes"/>
      <point x="158" y="471" type="line" smooth="yes"/>
      <point x="158" y="544"/>
      <point x="236" y="581"/>
      <point x="393" y="581" type="curve" smooth="yes"/>
      <point x="543" y="581"/>
      <point x="618" y="544"/>
      <point x="618" y="471" type="curve" smooth="yes"/>
      <point x="618" y="174" type="line"/>
      <point x="618" y="155"/>
      <point x="612" y="139"/>
      <point x="601" y="126" type="curve" smooth="yes"/>
      <point x="578" y="98"/>
      <point x="551" y="87"/>
      <point x="504" y="80" type="curve" smooth="yes"/>
      <point x="457" y="72"/>
      <point x="435" y="72"/>
    </contour>
    <contour>
      <point x="392" y="152" type="curve" smooth="yes"/>
      <point x="508" y="152"/>
      <point x="541" y="187"/>
      <point x="541" y="263" type="curve" smooth="yes"/>
      <point x="541" y="291" type="line"/>
      <point x="438" y="291" type="line"/>
      <point x="438" y="271" type="line" smooth="yes"/>
      <point x="438" y="231"/>
      <point x="433" y="228"/>
      <point x="389" y="228" type="curve" smooth="yes"/>
      <point x="348" y="228"/>
      <point x="341" y="234"/>
      <point x="341" y="281" type="curve" smooth="yes"/>
      <point x="341" y="381" type="line" smooth="yes"/>
      <point x="341" y="425"/>
      <point x="353" y="434"/>
      <point x="389" y="434" type="curve" smooth="yes"/>
      <point x="433" y="434"/>
      <point x="438" y="428"/>
      <point x="438" y="391" type="curve" smooth="yes"/>
      <point x="438" y="372" type="line"/>
      <point x="541" y="372" type="line"/>
      <point x="541" y="399" type="line" smooth="yes"/>
      <point x="541" y="476"/>
      <point x="504" y="510"/>
      <point x="392" y="510" type="curve" smooth="yes"/>
      <point x="280" y="510"/>
      <point x="233" y="470"/>
      <point x="233" y="389" type="curve" smooth="yes"/>
      <point x="233" y="273" type="line" smooth="yes"/>
      <point x="233" y="180"/>
      <point x="273" y="152"/>
    </contour>
  </outline>
</glyph>
<glyph name="ordfeminine" format="2">
  <advance width="327"/>
  <unicode hex="00AA"/>
  <outline>
    <contour>
      <point x="128" y="407" type="curve" smooth="yes"/>
      <point x="180" y="407"/>
      <point x="194" y="414"/>
      <point x="206" y="434" type="curve"/>
      <point x="206" y="412" type="line"/>
      <point x="288" y="412" type="line"/>
      <point x="288" y="578" type="line"/>
      <point x="288" y="638"/>
      <point x="256" y="659"/>
      <point x="173" y="659" type="curve" smooth="yes"/>
      <point x="151" y="659"/>
      <point x="112" y="658"/>
      <point x="56" y="655" type="curve"/>
      <point x="56" y="609" type="line"/>
      <point x="166" y="613" type="line"/>
      <point x="195" y="613"/>
      <point x="204" y="608"/>
      <point x="204" y="592" type="curve" smooth="yes"/>
      <point x="204" y="561" type="line"/>
      <point x="122" y="561" type="line" smooth="yes"/>
      <point x="63" y="561"/>
      <point x="37" y="540"/>
      <point x="37" y="484" type="curve" smooth="yes"/>
      <point x="37" y="423"/>
      <point x="61" y="407"/>
    </contour>
    <contour>
      <point x="157" y="448" type="curve" smooth="yes"/>
      <point x="122" y="448"/>
      <point x="118" y="451"/>
      <point x="118" y="483" type="curve" smooth="yes"/>
      <point x="118" y="515"/>
      <point x="123" y="521"/>
      <point x="154" y="521" type="curve" smooth="yes"/>
      <point x="204" y="521" type="line"/>
      <point x="204" y="469" type="line"/>
      <point x="204" y="459"/>
      <point x="201" y="453"/>
      <point x="195" y="451" type="curve" smooth="yes"/>
      <point x="188" y="449"/>
      <point x="176" y="448"/>
    </contour>
    <contour>
      <point x="39" y="310" type="line"/>
      <point x="287" y="310" type="line"/>
      <point x="287" y="376" type="line"/>
      <point x="39" y="376" type="line"/>
    </contour>
  </outline>
</glyph>
<glyph name="guillemetleft" format="2">
  <advance width="526"/>
  <unicode hex="00AB"/>
  <outline>
    <contour>
      <point x="360" y="70" type="line"/>
      <point x="486" y="70" type="line"/>
      <point x="394" y="262" type="line"/>
      <point x="486" y="454" type="line"/>
      <point x="360" y="454" type="line"/>
      <point x="260" y="262" type="line"/>
    </contour>
    <contour>
      <point x="140" y="70" type="line"/>
      <point x="266" y="70" type="line"/>
      <point x="174" y="262" type="line"/>
      <point x="266" y="454" type="line"/>
      <point x="140" y="454" type="line"/>
      <point x="40" y="262" type="line"/>
    </contour>
  </outline>
</glyph>
<glyph name="logicalnot" format="2">
  <advance width="580"/>
  <unicode hex="00AC"/>
  <outline>
    <contour>
      <point x="409" y="84" type="line"/>
      <point x="510" y="84" type="line"/>
      <point x="510" y="365" type="line"/>
      <point x="70" y="365" type="line"/>
      <point x="70" y="264" type="line"/>
      <point x="409" y="264" type="line"/>
    </contour>
  </outline>
</glyph>
<glyph name="degree" format="2">
  <advance width="454"/>
  <unicode hex="00B0"/>
  <outline>
    <contour>
      <point x="227" y="319" type="curve" smooth="yes"/>
      <point x="283" y="319"/>
      <point x="319" y="323"/>
      <point x="357" y="338" type="curve" smooth="yes"/>
      <point x="395" y="353"/>
      <point x="414" y="385"/>
      <point x="414" y="434" type="curve" smooth="yes"/>
      <point x="414" y="543" type="line"/>
      <point x="414" y="566"/>
      <point x="410" y="585"/>
      <point x="401" y="601" type="curve" smooth="yes"/>
      <point x="384" y="632"/>
      <point x="365" y="645"/>
      <point x="325" y="653" type="curve" smooth="yes"/>
      <point x="285" y="661"/>
      <point x="270" y="661"/>
      <point x="227" y="661" type="curve" smooth="yes"/>
      <point x="206" y="661"/>
      <point x="189" y="661"/>
      <point x="177" y="660" type="curve" smooth="yes"/>
      <point x="153" y="659"/>
      <point x="105" y="651"/>
      <point x="83" y="636" type="curve" smooth="yes"/>
      <point x="61" y="620"/>
      <point x="40" y="588"/>
      <point x="40" y="543" type="curve" smooth="yes"/>
      <point x="40" y="434" type="line" smooth="yes"/>
      <point x="40" y="385"/>
      <point x="60" y="353"/>
      <point x="98" y="338" type="curve" smooth="yes"/>
      <point x="136" y="323"/>
      <point x="171" y="319"/>
    </contour>
    <contour>
      <point x="227" y="395" type="curve" smooth="yes"/>
      <point x="197" y="395"/>
      <point x="177" y="398"/>
      <point x="167" y="404" type="curve"/>
      <point x="156" y="409"/>
      <point x="151" y="419"/>
      <point x="151" y="434" type="curve" smooth="yes"/>
      <point x="151" y="541" type="line" smooth="yes"/>
      <point x="151" y="577"/>
      <point x="166" y="585"/>
      <point x="227" y="585" type="curve" smooth="yes"/>
      <point x="288" y="585"/>
      <point x="303" y="577"/>
      <point x="303" y="541" type="curve" smooth="yes"/>
      <point x="303" y="434" type="line"/>
      <point x="303" y="419"/>
      <point x="298" y="409"/>
      <point x="288" y="404" type="curve" smooth="yes"/>
      <point x="277" y="398"/>
      <point x="257" y="395"/>
    </contour>
  </outline>
</glyph>
<glyph name="plusminus" format="2">
  <advance width="580"/>
  <unicode hex="00B1"/>
  <outline>
    <contour>
      <point x="239" y="134" type="line"/>
      <point x="340" y="134" type="line"/>
      <point x="340" y="264" type="line"/>
      <point x="510" y="264" type="line"/>
      <point x="510" y="365" type="line"/>
      <point x="340" y="365" type="line"/>
      <point x="340" y="544" type="line"/>
      <point x="239" y="544" type="line"/>
      <point x="239" y="365" type="line"/>
      <point x="70" y="365" type="line"/>
      <point x="70" y="264" type="line"/>
      <point x="239" y="264" type="line"/>
    </contour>
    <contour>
      <point x="70" y="0" type="line"/>
      <point x="510" y="0" type="line"/>
      <point x="510" y="101" type="line"/>
      <point x="70" y="101" type="line"/>
    </contour>
  </outline>
</glyph>
<glyph name="threesuperior" format="2">
  <advance width="378"/>
  <unicode hex="00B3"/>
  <outline>
    <contour>
      <point x="171" y="269" type="curve" smooth="yes"/>
      <point x="282" y="269"/>
      <point x="333" y="296"/>
      <point x="333" y="368" type="curve" smooth="yes"/>
      <point x="333" y="419" type="line"/>
      <point x="333" y="444"/>
      <point x="319" y="463"/>
      <point x="291" y="476" type="curve"/>
      <point x="308" y="489"/>
      <point x="317" y="503"/>
      <point x="317" y="520" type="curve" smooth="yes"/>
      <point x="317" y="573" type="line" smooth="yes"/>
      <point x="317" y="637"/>
      <point x="267" y="655"/>
      <point x="158" y="655" type="curve" smooth="yes"/>
      <point x="122" y="655"/>
      <point x="91" y="654"/>
      <point x="66" y="652" type="curve" smooth="yes"/>
      <point x="24" y="650" type="line"/>
      <point x="24" y="572" type="line"/>
      <point x="77" y="577"/>
      <point x="119" y="580"/>
      <point x="149" y="580" type="curve" smooth="yes"/>
      <point x="168" y="580"/>
      <point x="181" y="578"/>
      <point x="187" y="575" type="curve" smooth="yes"/>
      <point x="193" y="572"/>
      <point x="196" y="566"/>
      <point x="196" y="557" type="curve" smooth="yes"/>
      <point x="196" y="529" type="line" smooth="yes"/>
      <point x="196" y="512"/>
      <point x="184" y="504"/>
      <point x="160" y="504" type="curve" smooth="yes"/>
      <point x="73" y="504" type="line"/>
      <point x="73" y="429" type="line"/>
      <point x="160" y="429" type="line" smooth="yes"/>
      <point x="194" y="429"/>
      <point x="211" y="423"/>
      <point x="211" y="411" type="curve" smooth="yes"/>
      <point x="211" y="377" type="line" smooth="yes"/>
      <point x="211" y="353"/>
      <point x="198" y="347"/>
      <point x="159" y="347" type="curve" smooth="yes"/>
      <point x="131" y="347"/>
      <point x="95" y="351"/>
      <point x="52" y="360" type="curve" smooth="yes"/>
      <point x="22" y="366" type="line"/>
      <point x="22" y="278" type="line"/>
      <point x="23" y="278"/>
      <point x="28" y="278"/>
      <point x="36" y="277" type="curve" smooth="yes"/>
      <point x="43" y="276"/>
      <point x="48" y="276"/>
      <point x="51" y="276" type="curve" smooth="yes"/>
      <point x="88" y="271"/>
      <point x="128" y="269"/>
    </contour>
  </outline>
</glyph>
<glyph name="acute" format="2">
  <advance width="449"/>
  <unicode hex="00B4"/>
  <outline>
    <contour>
      <point x="100" y="553" type="line"/>
      <point x="224" y="553" type="line"/>
      <point x="349" y="680" type="line"/>
      <point x="190" y="680" type="line"/>
    </contour>
  </outline>
</glyph>
<glyph name="micro" format="2">
  <advance width="595"/>
  <unicode hex="00B5"/>
  <outline>
    <contour>
      <point x="64" y="-208" type="line"/>
      <point x="210" y="-208" type="line"/>
      <point x="210" y="-8" type="line"/>
      <point x="219" y="-9"/>
      <point x="227" y="-10"/>
      <point x="232" y="-10" type="curve" smooth="yes"/>
      <point x="324" y="-10"/>
      <point x="376" y="13"/>
      <point x="387" y="59" type="curve"/>
      <point x="387" y="0" type="line"/>
      <point x="531" y="0" type="line"/>
      <point x="531" y="484" type="line"/>
      <point x="385" y="484" type="line"/>
      <point x="385" y="149" type="line" smooth="yes"/>
      <point x="385" y="94"/>
      <point x="372" y="81"/>
      <point x="288" y="81" type="curve" smooth="yes"/>
      <point x="220" y="81"/>
      <point x="210" y="96"/>
      <point x="210" y="149" type="curve" smooth="yes"/>
      <point x="210" y="484" type="line"/>
      <point x="64" y="484" type="line"/>
    </contour>
  </outline>
</glyph>
<glyph name="paragraph" format="2">
  <advance width="459"/>
  <unicode hex="00B6"/>
  <outline>
    <contour>
      <point x="199" y="0" type="line"/>
      <point x="252" y="0" type="line"/>
      <point x="252" y="606" type="line"/>
      <point x="322" y="606" type="line"/>
      <point x="322" y="0" type="line"/>
      <point x="375" y="0" type="line"/>
      <point x="375" y="579" type="line" smooth="yes"/>
      <point x="375" y="593"/>
      <point x="382" y="605"/>
      <point x="396" y="616" type="curve" smooth="yes"/>
      <point x="419" y="633" type="line"/>
      <point x="419" y="649" type="line"/>
      <point x="147" y="649" type="line" smooth="yes"/>
      <point x="64" y="649"/>
      <point x="40" y="616"/>
      <point x="40" y="501" type="curve" smooth="yes"/>
      <point x="40" y="376"/>
      <point x="66" y="352"/>
      <point x="199" y="352" type="curve"/>
    </contour>
  </outline>
</glyph>
<glyph name="periodcentered" format="2">
  <advance width="256"/>
  <unicode hex="00B7"/>
  <outline>
    <contour>
      <point x="50" y="262" type="line"/>
      <point x="197" y="262" type="line"/>
      <point x="197" y="400" type="line"/>
      <point x="50" y="400" type="line"/>
    </contour>
  </outline>
</glyph>
<glyph name="cedilla" format="2">
  <advance width="411"/>
  <unicode hex="00B8"/>
  <outline>
    <contour>
      <point x="191" y="-220" type="curve" smooth="yes"/>
      <point x="254" y="-220"/>
      <point x="311" y="-189"/>
      <point x="311" y="-129" type="curve" smooth="yes"/>
      <point x="311" y="-77"/>
      <point x="269" y="-54"/>
      <point x="214" y="-50" type="curve"/>
      <point x="250" y="0" type="line"/>
      <point x="180" y="0" type="line"/>
      <point x="179" y="-3"/>
      <point x="168" y="-19"/>
      <point x="148" y="-48" type="curve" smooth="yes"/>
      <point x="128" y="-77"/>
      <point x="117" y="-93"/>
      <point x="116" y="-96" type="curve"/>
      <point x="156" y="-96" type="line" smooth="yes"/>
      <point x="206" y="-96"/>
      <point x="231" y="-109"/>
      <point x="231" y="-134" type="curve" smooth="yes"/>
      <point x="231" y="-157"/>
      <point x="215" y="-169"/>
      <point x="184" y="-169" type="curve" smooth="yes"/>
      <point x="163" y="-169"/>
      <point x="142" y="-163"/>
      <point x="122" y="-151" type="curve"/>
      <point x="100" y="-197" type="line"/>
      <point x="123" y="-212"/>
      <point x="153" y="-220"/>
    </contour>
  </outline>
</glyph>
<glyph name="onesuperior" format="2">
  <advance width="378"/>
  <unicode hex="00B9"/>
  <outline>
    <contour>
      <point x="153" y="273" type="line"/>
      <point x="272" y="273" type="line"/>
      <point x="272" y="649" type="line"/>
      <point x="179" y="649" type="line"/>
      <point x="42" y="571" type="line"/>
      <point x="42" y="479" type="line"/>
      <point x="153" y="536" type="line"/>
    </contour>
  </outline>
</glyph>
<glyph name="ordmasculine" format="2">
  <advance width="347"/>
  <unicode hex="00BA"/>
  <outline>
    <contour>
      <point x="174" y="407" type="curve" smooth="yes"/>
      <point x="210" y="407"/>
      <point x="233" y="409"/>
      <point x="262" y="420" type="curve" smooth="yes"/>
      <point x="291" y="431"/>
      <point x="308" y="456"/>
      <point x="308" y="495" type="curve" smooth="yes"/>
      <point x="308" y="566" type="line"/>
      <point x="308" y="607"/>
      <point x="292" y="634"/>
      <point x="262" y="646" type="curve" smooth="yes"/>
      <point x="232" y="657"/>
      <point x="209" y="659"/>
      <point x="174" y="659" type="curve" smooth="yes"/>
      <point x="139" y="659"/>
      <point x="117" y="657"/>
      <point x="87" y="646" type="curve" smooth="yes"/>
      <point x="57" y="634"/>
      <point x="40" y="607"/>
      <point x="40" y="566" type="curve" smooth="yes"/>
      <point x="40" y="495" type="line" smooth="yes"/>
      <point x="40" y="456"/>
      <point x="57" y="431"/>
      <point x="86" y="420" type="curve" smooth="yes"/>
      <point x="115" y="409"/>
      <point x="138" y="407"/>
    </contour>
    <contour>
      <point x="174" y="451" type="curve" smooth="yes"/>
      <point x="133" y="451"/>
      <point x="124" y="458"/>
      <point x="124" y="483" type="curve" smooth="yes"/>
      <point x="124" y="580" type="line" smooth="yes"/>
      <point x="124" y="607"/>
      <point x="134" y="616"/>
      <point x="174" y="616" type="curve" smooth="yes"/>
      <point x="214" y="616"/>
      <point x="224" y="607"/>
      <point x="224" y="580" type="curve" smooth="yes"/>
      <point x="224" y="483" type="line"/>
      <point x="224" y="458"/>
      <point x="215" y="451"/>
    </contour>
    <contour>
      <point x="50" y="310" type="line"/>
      <point x="298" y="310" type="line"/>
      <point x="298" y="376" type="line"/>
      <point x="50" y="376" type="line"/>
    </contour>
  </outline>
</glyph>
<glyph name="guillemetright" format="2">
  <advance width="526"/>
  <unicode hex="00BB"/>
  <outline>
    <contour>
      <point x="260" y="70" type="line"/>
      <point x="386" y="70" type="line"/>
      <point x="486" y="262" type="line"/>
      <point x="386" y="454" type="line"/>
      <point x="260" y="454" type="line"/>
      <point x="352" y="262" type="line"/>
    </contour>
    <contour>
      <point x="40" y="70" type="line"/>
      <point x="166" y="70" type="line"/>
      <point x="266" y="262" type="line"/>
      <point x="166" y="454" type="line"/>
      <point x="40" y="454" type="line"/>
      <point x="132" y="262" type="line"/>
    </contour>
  </outline>
</glyph>
<glyph name="onequarter" format="2">
  <advance width="956"/>
  <unicode hex="00BC"/>
  <outline>
    <contour>
      <point x="232" y="0" type="line"/>
      <point x="333" y="0" type="line"/>
      <point x="725" y="649" type="line"/>
      <point x="624" y="649" type="line"/>
    </contour>
    <contour>
      <point x="225" y="273" type="line"/>
      <point x="344" y="273" type="line"/>
      <point x="344" y="649" type="line"/>
      <point x="251" y="649" type="line"/>
      <point x="114" y="571" type="line"/>
      <point x="114" y="479" type="line"/>
      <point x="225" y="536" type="line"/>
    </contour>
    <contour>
      <point x="664" y="146" type="line"/>
      <point x="750" y="267" type="line"/>
      <point x="750" y="146" type="line"/>
    </contour>
    <contour>
      <point x="750" y="0" type="line"/>
      <point x="860" y="0" type="line"/>
      <point x="860" y="68" type="line"/>
      <point x="903" y="68" type="line"/>
      <point x="903" y="146" type="line"/>
      <point x="860" y="146" type="line"/>
      <point x="860" y="376" type="line"/>
      <point x="735" y="376" type="line"/>
      <point x="562" y="144" type="line"/>
      <point x="562" y="68" type="line"/>
      <point x="750" y="68" type="line"/>
    </contour>
  </outline>
</glyph>
<glyph name="onehalf" format="2">
  <advance width="956"/>
  <unicode hex="00BD"/>
  <outline>
    <contour>
      <point x="232" y="0" type="line"/>
      <point x="333" y="0" type="line"/>
      <point x="725" y="649" type="line"/>
      <point x="624" y="649" type="line"/>
    </contour>
    <contour>
      <point x="225" y="273" type="line"/>
      <point x="344" y="273" type="line"/>
      <point x="344" y="649" type="line"/>
      <point x="251" y="649" type="line"/>
      <point x="114" y="571" type="line"/>
      <point x="114" y="479" type="line"/>
      <point x="225" y="536" type="line"/>
    </contour>
    <contour>
      <point x="581" y="0" type="line"/>
      <point x="894" y="0" type="line"/>
      <point x="894" y="80" type="line"/>
      <point x="698" y="80" type="line"/>
      <point x="698" y="85" type="line" smooth="yes"/>
      <point x="698" y="110"/>
      <point x="747" y="129"/>
      <point x="796" y="141" type="curve" smooth="yes"/>
      <point x="844" y="153"/>
      <point x="893" y="189"/>
      <point x="893" y="242" type="curve" smooth="yes"/>
      <point x="893" y="284" type="line" smooth="yes"/>
      <point x="893" y="356"/>
      <point x="839" y="382"/>
      <point x="734" y="382" type="curve" smooth="yes"/>
      <point x="691" y="382"/>
      <point x="642" y="378"/>
      <point x="589" y="369" type="curve"/>
      <point x="589" y="287" type="line"/>
      <point x="655" y="298"/>
      <point x="697" y="304"/>
      <point x="716" y="304" type="curve" smooth="yes"/>
      <point x="753" y="304"/>
      <point x="771" y="297"/>
      <point x="771" y="283" type="curve" smooth="yes"/>
      <point x="771" y="245" type="line" smooth="yes"/>
      <point x="771" y="226"/>
      <point x="741" y="214"/>
      <point x="704" y="202" type="curve" smooth="yes"/>
      <point x="685" y="196"/>
      <point x="667" y="189"/>
      <point x="648" y="181" type="curve" smooth="yes"/>
      <point x="611" y="165"/>
      <point x="581" y="132"/>
      <point x="581" y="88" type="curve" smooth="yes"/>
    </contour>
  </outline>
</glyph>
<glyph name="questiondown" format="2">
  <advance width="529"/>
  <unicode hex="00BF"/>
  <outline>
    <contour>
      <point x="271" y="-175" type="curve" smooth="yes"/>
      <point x="331" y="-175"/>
      <point x="404" y="-170"/>
      <point x="489" y="-159" type="curve"/>
      <point x="489" y="-50" type="line"/>
      <point x="387" y="-66"/>
      <point x="321" y="-74"/>
      <point x="290" y="-74" type="curve" smooth="yes"/>
      <point x="250" y="-74"/>
      <point x="224" y="-70"/>
      <point x="211" y="-63" type="curve" smooth="yes"/>
      <point x="198" y="-56"/>
      <point x="192" y="-44"/>
      <point x="192" y="-26" type="curve" smooth="yes"/>
      <point x="192" y="21" type="line" smooth="yes"/>
      <point x="192" y="53"/>
      <point x="216" y="77"/>
      <point x="247" y="96" type="curve" smooth="yes"/>
      <point x="262" y="105"/>
      <point x="278" y="116"/>
      <point x="293" y="127" type="curve" smooth="yes"/>
      <point x="324" y="149"/>
      <point x="348" y="187"/>
      <point x="348" y="238" type="curve" smooth="yes"/>
      <point x="348" y="296" type="line"/>
      <point x="212" y="296" type="line"/>
      <point x="212" y="251" type="line" smooth="yes"/>
      <point x="212" y="228"/>
      <point x="186" y="205"/>
      <point x="152" y="185" type="curve" smooth="yes"/>
      <point x="135" y="174"/>
      <point x="118" y="163"/>
      <point x="101" y="152" type="curve" smooth="yes"/>
      <point x="67" y="129"/>
      <point x="40" y="96"/>
      <point x="40" y="57" type="curve" smooth="yes"/>
      <point x="40" y="-39" type="line"/>
      <point x="40" y="-62"/>
      <point x="44" y="-82"/>
      <point x="51" y="-99" type="curve" smooth="yes"/>
      <point x="66" y="-132"/>
      <point x="88" y="-150"/>
      <point x="129" y="-161" type="curve"/>
      <point x="169" y="-173"/>
      <point x="208" y="-175"/>
    </contour>
    <contour>
      <point x="202" y="346" type="line"/>
      <point x="358" y="346" type="line"/>
      <point x="358" y="484" type="line"/>
      <point x="202" y="484" type="line"/>
    </contour>
  </outline>
</glyph>
<glyph name="Adieresis" format="2">
  <advance width="668"/>
  <unicode hex="00C4"/>
  <outline>
    <contour>
      <point x="2" y="0" type="line"/>
      <point x="156" y="0" type="line"/>
      <point x="213" y="171" type="line"/>
      <point x="450" y="171" type="line"/>
      <point x="508" y="0" type="line"/>
      <point x="666" y="0" type="line"/>
      <point x="432" y="649" type="line"/>
      <point x="242" y="649" type="line"/>
    </contour>
    <contour>
      <point x="248" y="275" type="line"/>
      <point x="330" y="519" type="line"/>
      <point x="334" y="519" type="line"/>
      <point x="416" y="275" type="line"/>
    </contour>
    <contour>
      <point x="175" y="715" type="line"/>
      <point x="301" y="715" type="line"/>
      <point x="301" y="833" type="line"/>
      <point x="175" y="833" type="line"/>
    </contour>
    <contour>
      <point x="365" y="715" type="line"/>
      <point x="491" y="715" type="line"/>
      <point x="491" y="833" type="line"/>
      <point x="365" y="833" type="line"/>
    </contour>
  </outline>
</glyph>
<glyph name="Aring" format="2">
  <advance width="652"/>
  <unicode hex="00C5"/>
  <outline>
    <contour>
      <point x="3" y="0" type="line"/>
      <point x="156" y="0" type="line"/>
      <point x="214" y="171" type="line"/>
      <point x="451" y="171" type="line"/>
      <point x="509" y="0" type="line"/>
      <point x="667" y="0" type="line"/>
      <point x="460" y="574" type="line"/>
      <point x="483" y="589"/>
      <point x="494" y="614"/>
      <point x="494" y="649" type="curve" smooth="yes"/>
      <point x="494" y="681" type="line" smooth="yes"/>
      <point x="494" y="728"/>
      <point x="478" y="758"/>
      <point x="443" y="771" type="curve" smooth="yes"/>
      <point x="408" y="783"/>
      <point x="384" y="785"/>
      <point x="335" y="785" type="curve" smooth="yes"/>
      <point x="286" y="785"/>
      <point x="262" y="783"/>
      <point x="227" y="771" type="curve" smooth="yes"/>
      <point x="192" y="758"/>
      <point x="176" y="728"/>
      <point x="176" y="681" type="curve" smooth="yes"/>
      <point x="176" y="649" type="line" smooth="yes"/>
      <point x="176" y="612"/>
      <point x="189" y="586"/>
      <point x="214" y="571" type="curve"/>
    </contour>
    <contour>
      <point x="248" y="275" type="line"/>
      <point x="330" y="519" type="line"/>
      <point x="335" y="519" type="line"/>
      <point x="417" y="275" type="line"/>
    </contour>
    <contour>
      <point x="335" y="603" type="curve" smooth="yes"/>
      <point x="280" y="603"/>
      <point x="265" y="610"/>
      <point x="265" y="642" type="curve" smooth="yes"/>
      <point x="265" y="679" type="line" smooth="yes"/>
      <point x="265" y="718"/>
      <point x="274" y="723"/>
      <point x="335" y="723" type="curve" smooth="yes"/>
      <point x="396" y="723"/>
      <point x="405" y="718"/>
      <point x="405" y="679" type="curve" smooth="yes"/>
      <point x="405" y="642" type="line"/>
      <point x="405" y="610"/>
      <point x="390" y="603"/>
    </contour>
  </outline>
</glyph>
<glyph name="AE" format="2">
  <advance width="990"/>
  <unicode hex="00C6"/>
  <outline>
    <contour>
      <point x="0" y="0" type="line"/>
      <point x="166" y="0" type="line"/>
      <point x="245" y="171" type="line"/>
      <point x="470" y="171" type="line"/>
      <point x="470" y="0" type="line"/>
      <point x="955" y="0" type="line"/>
      <point x="955" y="111" type="line"/>
      <point x="623" y="111" type="line"/>
      <point x="623" y="278" type="line"/>
      <point x="912" y="278" type="line"/>
      <point x="912" y="389" type="line"/>
      <point x="623" y="389" type="line"/>
      <point x="623" y="538" type="line"/>
      <point x="945" y="538" type="line"/>
      <point x="945" y="649" type="line"/>
      <point x="330" y="649" type="line"/>
    </contour>
    <contour>
      <point x="292" y="275" type="line"/>
      <point x="413" y="538" type="line"/>
      <point x="470" y="538" type="line"/>
      <point x="470" y="275" type="line"/>
    </contour>
  </outline>
</glyph>
<glyph name="Ccedilla" format="2">
  <advance width="597"/>
  <unicode hex="00C7"/>
  <outline>
    <contour>
      <point x="334" y="-220" type="curve" smooth="yes"/>
      <point x="397" y="-220"/>
      <point x="454" y="-189"/>
      <point x="454" y="-129" type="curve" smooth="yes"/>
      <point x="454" y="-77"/>
      <point x="412" y="-54"/>
      <point x="357" y="-50" type="curve"/>
      <point x="386" y="-10" type="line"/>
      <point x="439" y="-9"/>
      <point x="499" y="-1"/>
      <point x="567" y="12" type="curve"/>
      <point x="567" y="130" type="line"/>
      <point x="485" y="111"/>
      <point x="420" y="101"/>
      <point x="373" y="101" type="curve" smooth="yes"/>
      <point x="266" y="101"/>
      <point x="212" y="130"/>
      <point x="212" y="189" type="curve" smooth="yes"/>
      <point x="212" y="465" type="line" smooth="yes"/>
      <point x="212" y="502"/>
      <point x="227" y="525"/>
      <point x="259" y="536" type="curve" smooth="yes"/>
      <point x="290" y="547"/>
      <point x="314" y="548"/>
      <point x="359" y="548" type="curve" smooth="yes"/>
      <point x="416" y="548"/>
      <point x="484" y="539"/>
      <point x="563" y="520" type="curve"/>
      <point x="563" y="637" type="line"/>
      <point x="475" y="652"/>
      <point x="406" y="659"/>
      <point x="357" y="659" type="curve" smooth="yes"/>
      <point x="156" y="659"/>
      <point x="56" y="594"/>
      <point x="56" y="463" type="curve" smooth="yes"/>
      <point x="56" y="178" type="line" smooth="yes"/>
      <point x="56" y="63"/>
      <point x="143" y="0"/>
      <point x="317" y="-9" type="curve"/>
      <point x="313" y="-15"/>
      <point x="306" y="-25"/>
      <point x="297" y="-39" type="curve" smooth="yes"/>
      <point x="287" y="-53"/>
      <point x="278" y="-65"/>
      <point x="271" y="-76" type="curve" smooth="yes"/>
      <point x="264" y="-87"/>
      <point x="260" y="-94"/>
      <point x="259" y="-96" type="curve"/>
      <point x="299" y="-96" type="line" smooth="yes"/>
      <point x="349" y="-96"/>
      <point x="374" y="-109"/>
      <point x="374" y="-134" type="curve" smooth="yes"/>
      <point x="374" y="-157"/>
      <point x="358" y="-169"/>
      <point x="327" y="-169" type="curve" smooth="yes"/>
      <point x="306" y="-169"/>
      <point x="285" y="-163"/>
      <point x="265" y="-151" type="curve"/>
      <point x="243" y="-197" type="line"/>
      <point x="266" y="-212"/>
      <point x="297" y="-220"/>
    </contour>
  </outline>
</glyph>
<glyph name="Edieresis" format="2">
  <advance width="610"/>
  <unicode hex="00CB"/>
  <outline>
    <contour>
      <point x="70" y="0" type="line"/>
      <point x="575" y="0" type="line"/>
      <point x="575" y="111" type="line"/>
      <point x="226" y="111" type="line"/>
      <point x="226" y="278" type="line"/>
      <point x="532" y="278" type="line"/>
      <point x="532" y="389" type="line"/>
      <point x="226" y="389" type="line"/>
      <point x="226" y="538" type="line"/>
      <point x="565" y="538" type="line"/>
      <point x="565" y="649" type="line"/>
      <point x="70" y="649" type="line"/>
    </contour>
    <contour>
      <point x="147" y="730" type="line"/>
      <point x="273" y="730" type="line"/>
      <point x="273" y="848" type="line"/>
      <point x="147" y="848" type="line"/>
    </contour>
    <contour>
      <point x="337" y="730" type="line"/>
      <point x="463" y="730" type="line"/>
      <point x="463" y="848" type="line"/>
      <point x="337" y="848" type="line"/>
    </contour>
  </outline>
</glyph>
<glyph name="Icircumflex" format="2">
  <advance width="296"/>
  <unicode hex="00CE"/>
  <outline>
    <contour>
      <point x="70" y="0" type="line"/>
      <point x="226" y="0" type="line"/>
      <point x="226" y="649" type="line"/>
      <point x="70" y="649" type="line"/>
    </contour>
    <contour>
      <point x="-2" y="718" type="line"/>
      <point x="96" y="718" type="line"/>
      <point x="148" y="805" type="line"/>
      <point x="201" y="718" type="line"/>
      <point x="299" y="718" type="line"/>
      <point x="241" y="845" type="line"/>
      <point x="54" y="845" type="line"/>
    </contour>
  </outline>
</glyph>
<glyph name="Idieresis" format="2">
  <advance width="296"/>
  <unicode hex="00CF"/>
  <outline>
    <contour>
      <point x="70" y="0" type="line"/>
      <point x="226" y="0" type="line"/>
      <point x="226" y="649" type="line"/>
      <point x="70" y="649" type="line"/>
    </contour>
    <contour>
      <point x="-10" y="730" type="line"/>
      <point x="116" y="730" type="line"/>
      <point x="116" y="848" type="line"/>
      <point x="-10" y="848" type="line"/>
    </contour>
    <contour>
      <point x="180" y="730" type="line"/>
      <point x="306" y="730" type="line"/>
      <point x="306" y="848" type="line"/>
      <point x="180" y="848" type="line"/>
    </contour>
  </outline>
</glyph>
<glyph name="Eth" format="2">
  <advance width="677"/>
  <unicode hex="00D0"/>
  <outline>
    <contour>
      <point x="70" y="0" type="line"/>
      <point x="347" y="0" type="line" smooth="yes"/>
      <point x="575" y="0"/>
      <point x="654" y="41"/>
      <point x="654" y="188" type="curve" smooth="yes"/>
      <point x="654" y="452" type="line" smooth="yes"/>
      <point x="654" y="605"/>
      <point x="566" y="649"/>
      <point x="346" y="649" type="curve" smooth="yes"/>
      <point x="70" y="649" type="line"/>
      <point x="70" y="385" type="line"/>
      <point x="10" y="385" type="line"/>
      <point x="10" y="284" type="line"/>
      <point x="70" y="284" type="line"/>
    </contour>
    <contour>
      <point x="226" y="111" type="line"/>
      <point x="226" y="284" type="line"/>
      <point x="348" y="284" type="line"/>
      <point x="348" y="385" type="line"/>
      <point x="226" y="385" type="line"/>
      <point x="226" y="538" type="line"/>
      <point x="345" y="538" type="line" smooth="yes"/>
      <point x="448" y="538"/>
      <point x="498" y="518"/>
      <point x="498" y="455" type="curve" smooth="yes"/>
      <point x="498" y="188" type="line" smooth="yes"/>
      <point x="498" y="121"/>
      <point x="460" y="111"/>
      <point x="340" y="111" type="curve" smooth="yes"/>
    </contour>
  </outline>
</glyph>
<glyph name="Ntilde" format="2">
  <advance width="751"/>
  <unicode hex="00D1"/>
  <outline>
    <contour>
      <point x="70" y="0" type="line"/>
      <point x="209" y="0" type="line"/>
      <point x="209" y="450" type="line"/>
      <point x="523" y="0" type="line"/>
      <point x="681" y="0" type="line"/>
      <point x="681" y="649" type="line"/>
      <point x="542" y="649" type="line"/>
      <point x="542" y="206" type="line"/>
      <point x="228" y="649" type="line"/>
      <point x="70" y="649" type="line"/>
    </contour>
    <contour>
      <point x="271" y="751" type="line"/>
      <point x="280" y="773"/>
      <point x="294" y="784"/>
      <point x="313" y="784" type="curve" smooth="yes"/>
      <point x="320" y="784"/>
      <point x="337" y="779"/>
      <point x="364" y="768" type="curve" smooth="yes"/>
      <point x="391" y="757"/>
      <point x="412" y="751"/>
      <point x="429" y="751" type="curve" smooth="yes"/>
      <point x="477" y="751"/>
      <point x="511" y="801"/>
      <point x="520" y="833" type="curve"/>
      <point x="479" y="857" type="line"/>
      <point x="470" y="835"/>
      <point x="457" y="824"/>
      <point x="438" y="824" type="curve" smooth="yes"/>
      <point x="427" y="824"/>
      <point x="409" y="829"/>
      <point x="384" y="839" type="curve" smooth="yes"/>
      <point x="358" y="849"/>
      <point x="337" y="854"/>
      <point x="322" y="854" type="curve" smooth="yes"/>
      <point x="274" y="854"/>
      <point x="239" y="806"/>
      <point x="231" y="775" type="curve"/>
    </contour>
  </outline>
</glyph>
<glyph name="multiply" format="2">
  <advance width="580"/>
  <unicode hex="00D7"/>
  <outline>
    <contour>
      <point x="438" y="94" type="line"/>
      <point x="509" y="166" type="line"/>
      <point x="361" y="314" type="line"/>
      <point x="509" y="462" type="line"/>
      <point x="438" y="534" type="line"/>
      <point x="289" y="385" type="line"/>
      <point x="142" y="533" type="line"/>
      <point x="70" y="462" type="line"/>
      <point x="218" y="314" type="line"/>
      <point x="70" y="166" type="line"/>
      <point x="142" y="95" type="line"/>
      <point x="289" y="242" type="line"/>
    </contour>
  </outline>
</glyph>
<glyph name="Ucircumflex" format="2">
  <advance width="699"/>
  <unicode hex="00DB"/>
  <outline>
    <contour>
      <point x="349" y="-10" type="curve" smooth="yes"/>
      <point x="537" y="-10"/>
      <point x="631" y="53"/>
      <point x="631" y="178" type="curve" smooth="yes"/>
      <point x="631" y="649" type="line"/>
      <point x="475" y="649" type="line"/>
      <point x="475" y="178" type="line" smooth="yes"/>
      <point x="475" y="119"/>
      <point x="442" y="101"/>
      <point x="351" y="101" type="curve" smooth="yes"/>
      <point x="259" y="101"/>
      <point x="224" y="119"/>
      <point x="224" y="178" type="curve" smooth="yes"/>
      <point x="224" y="649" type="line"/>
      <point x="68" y="649" type="line"/>
      <point x="68" y="178" type="line" smooth="yes"/>
      <point x="68" y="53"/>
      <point x="162" y="-10"/>
    </contour>
    <contour>
      <point x="199" y="718" type="line"/>
      <point x="297" y="718" type="line"/>
      <point x="349" y="805" type="line"/>
      <point x="402" y="718" type="line"/>
      <point x="500" y="718" type="line"/>
      <point x="442" y="845" type="line"/>
      <point x="255" y="845" type="line"/>
    </contour>
  </outline>
</glyph>
<glyph name="Udieresis" format="2">
  <advance width="699"/>
  <unicode hex="00DC"/>
  <outline>
    <contour>
      <point x="349" y="-10" type="curve" smooth="yes"/>
      <point x="537" y="-10"/>
      <point x="631" y="53"/>
      <point x="631" y="178" type="curve" smooth="yes"/>
      <point x="631" y="649" type="line"/>
      <point x="475" y="649" type="line"/>
      <point x="475" y="178" type="line" smooth="yes"/>
      <point x="475" y="119"/>
      <point x="442" y="101"/>
      <point x="351" y="101" type="curve" smooth="yes"/>
      <point x="259" y="101"/>
      <point x="224" y="119"/>
      <point x="224" y="178" type="curve" smooth="yes"/>
      <point x="224" y="649" type="line"/>
      <point x="68" y="649" type="line"/>
      <point x="68" y="178" type="line" smooth="yes"/>
      <point x="68" y="53"/>
      <point x="162" y="-10"/>
    </contour>
    <contour>
      <point x="191" y="730" type="line"/>
      <point x="317" y="730" type="line"/>
      <point x="317" y="848" type="line"/>
      <point x="191" y="848" type="line"/>
    </contour>
    <contour>
      <point x="381" y="730" type="line"/>
      <point x="507" y="730" type="line"/>
      <point x="507" y="848" type="line"/>
      <point x="381" y="848" type="line"/>
    </contour>
  </outline>
</glyph>
<glyph name="Thorn" format="2">
  <advance width="627"/>
  <unicode hex="00DE"/>
  <outline>
    <contour>
      <point x="70" y="0" type="line"/>
      <point x="226" y="0" type="line"/>
      <point x="226" y="105" type="line"/>
      <point x="312" y="105" type="line" smooth="yes"/>
      <point x="495" y="105"/>
      <point x="587" y="160"/>
      <point x="587" y="271" type="curve" smooth="yes"/>
      <point x="587" y="395" type="line"/>
      <point x="587" y="455"/>
      <point x="559" y="494"/>
      <point x="508" y="514" type="curve"/>
      <point x="456" y="533"/>
      <point x="405" y="539"/>
      <point x="330" y="539" type="curve" smooth="yes"/>
      <point x="226" y="539" type="line"/>
      <point x="226" y="649" type="line"/>
      <point x="70" y="649" type="line"/>
    </contour>
    <contour>
      <point x="226" y="208" type="line"/>
      <point x="226" y="437" type="line"/>
      <point x="323" y="437" type="line" smooth="yes"/>
      <point x="368" y="437"/>
      <point x="398" y="434"/>
      <point x="413" y="429" type="curve" smooth="yes"/>
      <point x="428" y="423"/>
      <point x="436" y="410"/>
      <point x="436" y="390" type="curve" smooth="yes"/>
      <point x="436" y="271" type="line"/>
      <point x="436" y="229"/>
      <point x="399" y="208"/>
      <point x="325" y="208" type="curve" smooth="yes"/>
    </contour>
  </outline>
</glyph>
<glyph name="germandbls" format="2">
  <advance width="639"/>
  <unicode hex="00DF"/>
  <outline>
    <contour>
      <point x="64" y="0" type="line"/>
      <point x="210" y="0" type="line"/>
      <point x="210" y="555" type="line" smooth="yes"/>
      <point x="210" y="578"/>
      <point x="217" y="593"/>
      <point x="231" y="600" type="curve" smooth="yes"/>
      <point x="245" y="606"/>
      <point x="276" y="609"/>
      <point x="324" y="609" type="curve" smooth="yes"/>
      <point x="400" y="609"/>
      <point x="419" y="595"/>
      <point x="419" y="555" type="curve" smooth="yes"/>
      <point x="419" y="460" type="line" smooth="yes"/>
      <point x="419" y="416"/>
      <point x="396" y="402"/>
      <point x="327" y="402" type="curve" smooth="yes"/>
      <point x="277" y="402" type="line"/>
      <point x="277" y="304" type="line"/>
      <point x="352" y="304" type="line" smooth="yes"/>
      <point x="425" y="304"/>
      <point x="442" y="296"/>
      <point x="442" y="245" type="curve" smooth="yes"/>
      <point x="442" y="167" type="line" smooth="yes"/>
      <point x="442" y="144"/>
      <point x="434" y="129"/>
      <point x="419" y="122" type="curve" smooth="yes"/>
      <point x="403" y="115"/>
      <point x="374" y="111"/>
      <point x="331" y="111" type="curve" smooth="yes"/>
      <point x="277" y="111" type="line"/>
      <point x="277" y="0" type="line"/>
      <point x="331" y="0" type="line" smooth="yes"/>
      <point x="502" y="0"/>
      <point x="589" y="37"/>
      <point x="589" y="145" type="curve" smooth="yes"/>
      <point x="589" y="265" type="line"/>
      <point x="589" y="313"/>
      <point x="536" y="356"/>
      <point x="488" y="361" type="curve"/>
      <point x="489" y="366" type="line"/>
      <point x="526" y="377"/>
      <point x="560" y="413"/>
      <point x="560" y="450" type="curve" smooth="yes"/>
      <point x="560" y="569" type="line" smooth="yes"/>
      <point x="560" y="662"/>
      <point x="497" y="710"/>
      <point x="324" y="710" type="curve" smooth="yes"/>
      <point x="251" y="710"/>
      <point x="195" y="705"/>
      <point x="157" y="694" type="curve" smooth="yes"/>
      <point x="80" y="673"/>
      <point x="64" y="640"/>
      <point x="64" y="569" type="curve" smooth="yes"/>
    </contour>
  </outline>
</glyph>
<glyph name="aring" format="2">
  <advance width="564"/>
  <unicode hex="00E5"/>
  <outline>
    <contour>
      <point x="201" y="-10" type="curve" smooth="yes"/>
      <point x="254" y="-10"/>
      <point x="291" y="-6"/>
      <point x="311" y="3" type="curve" smooth="yes"/>
      <point x="331" y="11"/>
      <point x="346" y="25"/>
      <point x="357" y="44" type="curve"/>
      <point x="357" y="0" type="line"/>
      <point x="500" y="0" type="line"/>
      <point x="500" y="333" type="line"/>
      <point x="500" y="461"/>
      <point x="441" y="494"/>
      <point x="262" y="494" type="curve" smooth="yes"/>
      <point x="194" y="494"/>
      <point x="132" y="491"/>
      <point x="77" y="484" type="curve"/>
      <point x="77" y="392" type="line"/>
      <point x="149" y="400"/>
      <point x="206" y="404"/>
      <point x="247" y="404" type="curve" smooth="yes"/>
      <point x="335" y="404"/>
      <point x="354" y="390"/>
      <point x="354" y="331" type="curve" smooth="yes"/>
      <point x="354" y="298" type="line"/>
      <point x="190" y="298" type="line" smooth="yes"/>
      <point x="77" y="298"/>
      <point x="39" y="260"/>
      <point x="39" y="145" type="curve" smooth="yes"/>
      <point x="39" y="18"/>
      <point x="70" y="-10"/>
    </contour>
    <contour>
      <point x="258" y="81" type="curve" smooth="yes"/>
      <point x="190" y="81"/>
      <point x="182" y="85"/>
      <point x="182" y="148" type="curve" smooth="yes"/>
      <point x="182" y="212"/>
      <point x="190" y="218"/>
      <point x="254" y="218" type="curve" smooth="yes"/>
      <point x="354" y="218" type="line"/>
      <point x="354" y="124" type="line"/>
      <point x="354" y="115"/>
      <point x="353" y="108"/>
      <point x="350" y="103" type="curve" smooth="yes"/>
      <point x="345" y="92"/>
      <point x="340" y="87"/>
      <point x="321" y="84" type="curve" smooth="yes"/>
      <point x="302" y="81"/>
      <point x="291" y="81"/>
    </contour>
    <contour>
      <point x="282" y="553" type="curve" smooth="yes"/>
      <point x="330" y="553"/>
      <point x="354" y="555"/>
      <point x="386" y="567" type="curve" smooth="yes"/>
      <point x="417" y="579"/>
      <point x="431" y="607"/>
      <point x="431" y="651" type="curve" smooth="yes"/>
      <point x="431" y="663" type="line"/>
      <point x="431" y="682"/>
      <point x="428" y="699"/>
      <point x="423" y="712" type="curve" smooth="yes"/>
      <point x="411" y="739"/>
      <point x="397" y="751"/>
      <point x="369" y="759" type="curve" smooth="yes"/>
      <point x="340" y="767"/>
      <point x="321" y="767"/>
      <point x="282" y="767" type="curve" smooth="yes"/>
      <point x="263" y="767"/>
      <point x="247" y="767"/>
      <point x="235" y="766" type="curve" smooth="yes"/>
      <point x="211" y="765"/>
      <point x="178" y="757"/>
      <point x="162" y="743" type="curve" smooth="yes"/>
      <point x="146" y="729"/>
      <point x="133" y="702"/>
      <point x="133" y="663" type="curve" smooth="yes"/>
      <point x="133" y="651" type="line" smooth="yes"/>
      <point x="133" y="607"/>
      <point x="147" y="579"/>
      <point x="179" y="567" type="curve" smooth="yes"/>
      <point x="210" y="555"/>
      <point x="234" y="553"/>
    </contour>
    <contour>
      <point x="282" y="605" type="curve" smooth="yes"/>
      <point x="227" y="605"/>
      <point x="212" y="612"/>
      <point x="212" y="644" type="curve" smooth="yes"/>
      <point x="212" y="671" type="line" smooth="yes"/>
      <point x="212" y="710"/>
      <point x="221" y="715"/>
      <point x="282" y="715" type="curve" smooth="yes"/>
      <point x="343" y="715"/>
      <point x="352" y="710"/>
      <point x="352" y="671" type="curve" smooth="yes"/>
      <point x="352" y="644" type="line"/>
      <point x="352" y="612"/>
      <point x="337" y="605"/>
    </contour>
  </outline>
</glyph>
<glyph name="ccedilla" format="2">
  <advance width="482"/>
  <unicode hex="00E7"/>
  <outline>
    <contour>
      <point x="268" y="-220" type="curve" smooth="yes"/>
      <point x="331" y="-220"/>
      <point x="388" y="-189"/>
      <point x="388" y="-129" type="curve" smooth="yes"/>
      <point x="388" y="-77"/>
      <point x="346" y="-54"/>
      <point x="291" y="-50" type="curve"/>
      <point x="320" y="-9" type="line"/>
      <point x="361" y="-8"/>
      <point x="409" y="-3"/>
      <point x="464" y="7" type="curve"/>
      <point x="464" y="103" type="line"/>
      <point x="395" y="88"/>
      <point x="344" y="81"/>
      <point x="309" y="81" type="curve" smooth="yes"/>
      <point x="235" y="81"/>
      <point x="198" y="107"/>
      <point x="198" y="158" type="curve" smooth="yes"/>
      <point x="198" y="336" type="line" smooth="yes"/>
      <point x="198" y="381"/>
      <point x="232" y="404"/>
      <point x="299" y="404" type="curve" smooth="yes"/>
      <point x="335" y="404"/>
      <point x="388" y="396"/>
      <point x="457" y="380" type="curve"/>
      <point x="457" y="476" type="line"/>
      <point x="396" y="488"/>
      <point x="347" y="494"/>
      <point x="310" y="494" type="curve" smooth="yes"/>
      <point x="288" y="494"/>
      <point x="270" y="494"/>
      <point x="257" y="494" type="curve" smooth="yes"/>
      <point x="229" y="493"/>
      <point x="181" y="487"/>
      <point x="156" y="479" type="curve" smooth="yes"/>
      <point x="131" y="470"/>
      <point x="96" y="452"/>
      <point x="80" y="428" type="curve" smooth="yes"/>
      <point x="63" y="403"/>
      <point x="50" y="366"/>
      <point x="50" y="318" type="curve" smooth="yes"/>
      <point x="50" y="157" type="line" smooth="yes"/>
      <point x="50" y="89"/>
      <point x="73" y="44"/>
      <point x="114" y="22" type="curve" smooth="yes"/>
      <point x="155" y="0"/>
      <point x="194" y="-8"/>
      <point x="251" y="-9" type="curve"/>
      <point x="248" y="-14"/>
      <point x="241" y="-24"/>
      <point x="231" y="-39" type="curve" smooth="yes"/>
      <point x="220" y="-54"/>
      <point x="212" y="-67"/>
      <point x="205" y="-77" type="curve" smooth="yes"/>
      <point x="198" y="-88"/>
      <point x="194" y="-94"/>
      <point x="193" y="-96" type="curve"/>
      <point x="233" y="-96" type="line" smooth="yes"/>
      <point x="283" y="-96"/>
      <point x="308" y="-109"/>
      <point x="308" y="-134" type="curve" smooth="yes"/>
      <point x="308" y="-157"/>
      <point x="292" y="-169"/>
      <point x="261" y="-169" type="curve" smooth="yes"/>
      <point x="240" y="-169"/>
      <point x="219" y="-163"/>
      <point x="199" y="-151" type="curve"/>
      <point x="177" y="-197" type="line"/>
      <point x="200" y="-212"/>
      <point x="231" y="-220"/>
    </contour>
  </outline>
</glyph>
<glyph name="icircumflex" format="2">
  <advance width="282"/>
  <unicode hex="00EE"/>
  <outline>
    <contour>
      <point x="68" y="0" type="line"/>
      <point x="214" y="0" type="line"/>
      <point x="214" y="484" type="line"/>
      <point x="68" y="484" type="line"/>
    </contour>
    <contour>
      <point x="-9" y="553" type="line"/>
      <point x="89" y="553" type="line"/>
      <point x="141" y="640" type="line"/>
      <point x="194" y="553" type="line"/>
      <point x="292" y="553" type="line"/>
      <point x="234" y="680" type="line"/>
      <point x="47" y="680" type="line"/>
    </contour>
  </outline>
</glyph>
<glyph name="idieresis" format="2">
  <advance width="282"/>
  <unicode hex="00EF"/>
  <outline>
    <contour>
      <point x="68" y="0" type="line"/>
      <point x="214" y="0" type="line"/>
      <point x="214" y="484" type="line"/>
      <point x="68" y="484" type="line"/>
    </contour>
    <contour>
      <point x="-17" y="565" type="line"/>
      <point x="109" y="565" type="line"/>
      <point x="109" y="683" type="line"/>
      <point x="-17" y="683" type="line"/>
    </contour>
    <contour>
      <point x="173" y="565" type="line"/>
      <point x="299" y="565" type="line"/>
      <point x="299" y="683" type="line"/>
      <point x="173" y="683" type="line"/>
    </contour>
  </outline>
</glyph>
<glyph name="eth" format="2">
  <advance width="592"/>
  <unicode hex="00F0"/>
  <outline>
    <contour>
      <point x="296" y="-10" type="curve" smooth="yes"/>
      <point x="324" y="-10"/>
      <point x="348" y="-9"/>
      <point x="368" y="-7" type="curve" smooth="yes"/>
      <point x="407" y="-4"/>
      <point x="461" y="9"/>
      <point x="490" y="34" type="curve" smooth="yes"/>
      <point x="519" y="58"/>
      <point x="542" y="103"/>
      <point x="542" y="166" type="curve" smooth="yes"/>
      <point x="542" y="321" type="line" smooth="yes"/>
      <point x="542" y="426"/>
      <point x="505" y="525"/>
      <point x="430" y="618" type="curve"/>
      <point x="480" y="633" type="line"/>
      <point x="480" y="700" type="line"/>
      <point x="383" y="671" type="line"/>
      <point x="374" y="681"/>
      <point x="364" y="691"/>
      <point x="354" y="700" type="curve"/>
      <point x="212" y="700" type="line"/>
      <point x="239" y="673"/>
      <point x="259" y="653"/>
      <point x="272" y="638" type="curve"/>
      <point x="219" y="622" type="line"/>
      <point x="219" y="555" type="line"/>
      <point x="316" y="584" type="line"/>
      <point x="339" y="553"/>
      <point x="359" y="522"/>
      <point x="376" y="490" type="curve"/>
      <point x="352" y="493"/>
      <point x="325" y="494"/>
      <point x="296" y="494" type="curve" smooth="yes"/>
      <point x="269" y="494"/>
      <point x="246" y="493"/>
      <point x="227" y="492" type="curve"/>
      <point x="189" y="488"/>
      <point x="134" y="474"/>
      <point x="104" y="449" type="curve" smooth="yes"/>
      <point x="74" y="424"/>
      <point x="50" y="376"/>
      <point x="50" y="309" type="curve" smooth="yes"/>
      <point x="50" y="166" type="line" smooth="yes"/>
      <point x="50" y="135"/>
      <point x="55" y="108"/>
      <point x="65" y="86" type="curve" smooth="yes"/>
      <point x="85" y="41"/>
      <point x="112" y="18"/>
      <point x="160" y="5" type="curve" smooth="yes"/>
      <point x="207" y="-8"/>
      <point x="240" y="-10"/>
    </contour>
    <contour>
      <point x="296" y="81" type="curve" smooth="yes"/>
      <point x="215" y="81"/>
      <point x="196" y="98"/>
      <point x="196" y="149" type="curve" smooth="yes"/>
      <point x="196" y="332" type="line" smooth="yes"/>
      <point x="196" y="384"/>
      <point x="216" y="404"/>
      <point x="296" y="404" type="curve" smooth="yes"/>
      <point x="376" y="404"/>
      <point x="396" y="384"/>
      <point x="396" y="332" type="curve" smooth="yes"/>
      <point x="396" y="149" type="line"/>
      <point x="396" y="98"/>
      <point x="377" y="81"/>
    </contour>
  </outline>
</glyph>
<glyph name="ntilde" format="2">
  <advance width="595"/>
  <unicode hex="00F1"/>
  <outline>
    <contour>
      <point x="64" y="0" type="line"/>
      <point x="210" y="0" type="line"/>
      <point x="210" y="336" type="line" smooth="yes"/>
      <point x="210" y="391"/>
      <point x="223" y="404"/>
      <point x="307" y="404" type="curve" smooth="yes"/>
      <point x="375" y="404"/>
      <point x="385" y="389"/>
      <point x="385" y="336" type="curve" smooth="yes"/>
      <point x="385" y="0" type="line"/>
      <point x="531" y="0" type="line"/>
      <point x="531" y="355" type="line"/>
      <point x="531" y="448"/>
      <point x="491" y="494"/>
      <point x="363" y="494" type="curve" smooth="yes"/>
      <point x="271" y="494"/>
      <point x="219" y="471"/>
      <point x="208" y="425" type="curve"/>
      <point x="208" y="484" type="line"/>
      <point x="64" y="484" type="line"/>
    </contour>
    <contour>
      <point x="193" y="586" type="line"/>
      <point x="202" y="608"/>
      <point x="216" y="619"/>
      <point x="235" y="619" type="curve" smooth="yes"/>
      <point x="242" y="619"/>
      <point x="259" y="614"/>
      <point x="286" y="603" type="curve" smooth="yes"/>
      <point x="313" y="592"/>
      <point x="334" y="586"/>
      <point x="351" y="586" type="curve" smooth="yes"/>
      <point x="399" y="586"/>
      <point x="433" y="636"/>
      <point x="442" y="668" type="curve"/>
      <point x="401" y="692" type="line"/>
      <point x="392" y="670"/>
      <point x="379" y="659"/>
      <point x="360" y="659" type="curve" smooth="yes"/>
      <point x="349" y="659"/>
      <point x="331" y="664"/>
      <point x="306" y="674" type="curve" smooth="yes"/>
      <point x="280" y="684"/>
      <point x="259" y="689"/>
      <point x="244" y="689" type="curve" smooth="yes"/>
      <point x="196" y="689"/>
      <point x="161" y="641"/>
      <point x="153" y="610" type="curve"/>
    </contour>
  </outline>
</glyph>
<glyph name="divide" format="2">
  <advance width="580"/>
  <unicode hex="00F7"/>
  <outline>
    <contour>
      <point x="70" y="264" type="line"/>
      <point x="510" y="264" type="line"/>
      <point x="510" y="365" type="line"/>
      <point x="70" y="365" type="line"/>
    </contour>
    <contour>
      <point x="222" y="70" type="line"/>
      <point x="358" y="70" type="line"/>
      <point x="358" y="198" type="line"/>
      <point x="222" y="198" type="line"/>
    </contour>
    <contour>
      <point x="222" y="426" type="line"/>
      <point x="358" y="426" type="line"/>
      <point x="358" y="554" type="line"/>
      <point x="222" y="554" type="line"/>
    </contour>
  </outline>
</glyph>
<glyph name="oslash" format="2">
  <advance width="597"/>
  <unicode hex="00F8"/>
  <outline>
    <contour>
      <point x="298" y="-10" type="curve" smooth="yes"/>
      <point x="326" y="-10"/>
      <point x="350" y="-9"/>
      <point x="370" y="-7" type="curve" smooth="yes"/>
      <point x="409" y="-4"/>
      <point x="464" y="9"/>
      <point x="493" y="34" type="curve" smooth="yes"/>
      <point x="522" y="58"/>
      <point x="546" y="103"/>
      <point x="546" y="166" type="curve" smooth="yes"/>
      <point x="546" y="309" type="line"/>
      <point x="546" y="342"/>
      <point x="541" y="371"/>
      <point x="530" y="395" type="curve" smooth="yes"/>
      <point x="509" y="442"/>
      <point x="481" y="465"/>
      <point x="433" y="479" type="curve" smooth="yes"/>
      <point x="385" y="493"/>
      <point x="353" y="494"/>
      <point x="298" y="494" type="curve" smooth="yes"/>
      <point x="271" y="494"/>
      <point x="247" y="493"/>
      <point x="228" y="492" type="curve"/>
      <point x="189" y="488"/>
      <point x="135" y="474"/>
      <point x="105" y="449" type="curve" smooth="yes"/>
      <point x="75" y="424"/>
      <point x="50" y="376"/>
      <point x="50" y="309" type="curve" smooth="yes"/>
      <point x="50" y="166" type="line" smooth="yes"/>
      <point x="50" y="135"/>
      <point x="55" y="108"/>
      <point x="66" y="86" type="curve"/>
      <point x="86" y="41"/>
      <point x="113" y="18"/>
      <point x="161" y="5" type="curve" smooth="yes"/>
      <point x="209" y="-8"/>
      <point x="242" y="-10"/>
    </contour>
    <contour>
      <point x="298" y="75" type="curve" smooth="yes"/>
      <point x="270" y="75"/>
      <point x="250" y="77"/>
      <point x="239" y="80" type="curve"/>
      <point x="400" y="330" type="line"/>
      <point x="400" y="141" type="line"/>
      <point x="400" y="89"/>
      <point x="381" y="75"/>
    </contour>
    <contour>
      <point x="196" y="151" type="line"/>
      <point x="196" y="338" type="line" smooth="yes"/>
      <point x="196" y="391"/>
      <point x="217" y="411"/>
      <point x="298" y="411" type="curve" smooth="yes"/>
      <point x="325" y="411"/>
      <point x="345" y="409"/>
      <point x="359" y="404" type="curve"/>
    </contour>
  </outline>
</glyph>
<glyph name="ucircumflex" format="2">
  <advance width="595"/>
  <unicode hex="00FB"/>
  <outline>
    <contour>
      <point x="232" y="-10" type="curve" smooth="yes"/>
      <point x="324" y="-10"/>
      <point x="376" y="13"/>
      <point x="387" y="59" type="curve"/>
      <point x="387" y="0" type="line"/>
      <point x="531" y="0" type="line"/>
      <point x="531" y="484" type="line"/>
      <point x="385" y="484" type="line"/>
      <point x="385" y="149" type="line" smooth="yes"/>
      <point x="385" y="94"/>
      <point x="372" y="81"/>
      <point x="288" y="81" type="curve" smooth="yes"/>
      <point x="220" y="81"/>
      <point x="210" y="96"/>
      <point x="210" y="149" type="curve" smooth="yes"/>
      <point x="210" y="484" type="line"/>
      <point x="64" y="484" type="line"/>
      <point x="64" y="129" type="line" smooth="yes"/>
      <point x="64" y="36"/>
      <point x="104" y="-10"/>
    </contour>
    <contour>
      <point x="147" y="553" type="line"/>
      <point x="245" y="553" type="line"/>
      <point x="297" y="640" type="line"/>
      <point x="350" y="553" type="line"/>
      <point x="448" y="553" type="line"/>
      <point x="390" y="680" type="line"/>
      <point x="203" y="680" type="line"/>
    </contour>
  </outline>
</glyph>
<glyph name="Amacron" format="2">
  <advance width="668"/>
  <unicode hex="0100"/>
  <outline>
    <contour>
      <point x="2" y="0" type="line"/>
      <point x="156" y="0" type="line"/>
      <point x="213" y="171" type="line"/>
      <point x="450" y="171" type="line"/>
      <point x="508" y="0" type="line"/>
      <point x="666" y="0" type="line"/>
      <point x="432" y="649" type="line"/>
      <point x="242" y="649" type="line"/>
    </contour>
    <contour>
      <point x="248" y="275" type="line"/>
      <point x="330" y="519" type="line"/>
      <point x="334" y="519" type="line"/>
      <point x="416" y="275" type="line"/>
    </contour>
    <contour>
      <point x="195" y="725" type="line"/>
      <point x="473" y="725" type="line"/>
      <point x="473" y="814" type="line"/>
      <point x="195" y="814" type="line"/>
    </contour>
  </outline>
</glyph>
<glyph name="Aogonek" format="2">
  <advance width="668"/>
  <unicode hex="0104"/>
  <outline>
    <contour>
      <point x="582" y="-186" type="curve" smooth="yes"/>
      <point x="615" y="-186"/>
      <point x="638" y="-183"/>
      <point x="652" y="-176" type="curve"/>
      <point x="652" y="-109" type="line"/>
      <point x="640" y="-113"/>
      <point x="630" y="-115"/>
      <point x="622" y="-115" type="curve" smooth="yes"/>
      <point x="604" y="-115"/>
      <point x="595" y="-105"/>
      <point x="595" y="-86" type="curve" smooth="yes"/>
      <point x="595" y="-45"/>
      <point x="619" y="-17"/>
      <point x="666" y="0" type="curve"/>
      <point x="432" y="649" type="line"/>
      <point x="242" y="649" type="line"/>
      <point x="2" y="0" type="line"/>
      <point x="156" y="0" type="line"/>
      <point x="213" y="171" type="line"/>
      <point x="450" y="171" type="line"/>
      <point x="508" y="0" type="line"/>
      <point x="491" y="-32"/>
      <point x="483" y="-67"/>
      <point x="483" y="-106" type="curve" smooth="yes"/>
      <point x="483" y="-157"/>
      <point x="522" y="-186"/>
    </contour>
    <contour>
      <point x="248" y="275" type="line"/>
      <point x="330" y="519" type="line"/>
      <point x="334" y="519" type="line"/>
      <point x="416" y="275" type="line"/>
    </contour>
  </outline>
</glyph>
<glyph name="aogonek" format="2">
  <advance width="564"/>
  <unicode hex="0105"/>
  <outline>
    <contour>
      <point x="446" y="-186" type="curve" smooth="yes"/>
      <point x="479" y="-186"/>
      <point x="502" y="-183"/>
      <point x="516" y="-176" type="curve"/>
      <point x="516" y="-109" type="line"/>
      <point x="504" y="-113"/>
      <point x="494" y="-115"/>
      <point x="486" y="-115" type="curve" smooth="yes"/>
      <point x="457" y="-115"/>
      <point x="448" y="-104"/>
      <point x="448" y="-83" type="curve" smooth="yes"/>
      <point x="448" y="-52"/>
      <point x="464" y="-31"/>
      <point x="500" y="0" type="curve"/>
      <point x="500" y="333" type="line" smooth="yes"/>
      <point x="500" y="461"/>
      <point x="441" y="494"/>
      <point x="262" y="494" type="curve" smooth="yes"/>
      <point x="194" y="494"/>
      <point x="132" y="491"/>
      <point x="77" y="484" type="curve"/>
      <point x="77" y="392" type="line"/>
      <point x="149" y="400"/>
      <point x="206" y="404"/>
      <point x="247" y="404" type="curve" smooth="yes"/>
      <point x="335" y="404"/>
      <point x="354" y="390"/>
      <point x="354" y="331" type="curve" smooth="yes"/>
      <point x="354" y="298" type="line"/>
      <point x="190" y="298" type="line" smooth="yes"/>
      <point x="77" y="298"/>
      <point x="39" y="260"/>
      <point x="39" y="145" type="curve" smooth="yes"/>
      <point x="39" y="18"/>
      <point x="70" y="-10"/>
      <point x="201" y="-10" type="curve" smooth="yes"/>
      <point x="254" y="-10"/>
      <point x="291" y="-6"/>
      <point x="311" y="3" type="curve" smooth="yes"/>
      <point x="331" y="11"/>
      <point x="346" y="25"/>
      <point x="357" y="44" type="curve"/>
      <point x="357" y="0" type="line" smooth="yes"/>
      <point x="357" y="-10"/>
      <point x="355" y="-27"/>
      <point x="352" y="-50" type="curve" smooth="yes"/>
      <point x="349" y="-74"/>
      <point x="347" y="-93"/>
      <point x="347" y="-106" type="curve" smooth="yes"/>
      <point x="347" y="-163"/>
      <point x="379" y="-186"/>
    </contour>
    <contour>
      <point x="258" y="81" type="curve" smooth="yes"/>
      <point x="190" y="81"/>
      <point x="182" y="85"/>
      <point x="182" y="148" type="curve" smooth="yes"/>
      <point x="182" y="212"/>
      <point x="190" y="218"/>
      <point x="254" y="218" type="curve" smooth="yes"/>
      <point x="354" y="218" type="line"/>
      <point x="354" y="124" type="line"/>
      <point x="354" y="115"/>
      <point x="353" y="108"/>
      <point x="350" y="103" type="curve" smooth="yes"/>
      <point x="345" y="92"/>
      <point x="340" y="87"/>
      <point x="321" y="84" type="curve" smooth="yes"/>
      <point x="302" y="81"/>
      <point x="291" y="81"/>
    </contour>
  </outline>
</glyph>
<glyph name="cacute" format="2">
  <advance width="482"/>
  <unicode hex="0107"/>
  <outline>
    <contour>
      <point x="300" y="-10" type="curve" smooth="yes"/>
      <point x="351" y="-10"/>
      <point x="405" y="-4"/>
      <point x="464" y="7" type="curve"/>
      <point x="464" y="103" type="line"/>
      <point x="395" y="88"/>
      <point x="344" y="81"/>
      <point x="309" y="81" type="curve" smooth="yes"/>
      <point x="235" y="81"/>
      <point x="198" y="107"/>
      <point x="198" y="158" type="curve" smooth="yes"/>
      <point x="198" y="336" type="line" smooth="yes"/>
      <point x="198" y="381"/>
      <point x="232" y="404"/>
      <point x="299" y="404" type="curve" smooth="yes"/>
      <point x="335" y="404"/>
      <point x="388" y="396"/>
      <point x="457" y="380" type="curve"/>
      <point x="457" y="476" type="line"/>
      <point x="396" y="488"/>
      <point x="347" y="494"/>
      <point x="310" y="494" type="curve" smooth="yes"/>
      <point x="288" y="494"/>
      <point x="270" y="494"/>
      <point x="257" y="494" type="curve" smooth="yes"/>
      <point x="229" y="493"/>
      <point x="181" y="487"/>
      <point x="156" y="479" type="curve" smooth="yes"/>
      <point x="131" y="470"/>
      <point x="96" y="452"/>
      <point x="80" y="428" type="curve" smooth="yes"/>
      <point x="63" y="403"/>
      <point x="50" y="366"/>
      <point x="50" y="318" type="curve" smooth="yes"/>
      <point x="50" y="157" type="line" smooth="yes"/>
      <point x="50" y="104"/>
      <point x="63" y="64"/>
      <point x="91" y="41" type="curve"/>
      <point x="118" y="17"/>
      <point x="141" y="3"/>
      <point x="186" y="-3" type="curve" smooth="yes"/>
      <point x="230" y="-9"/>
      <point x="251" y="-10"/>
    </contour>
    <contour>
      <point x="176" y="553" type="line"/>
      <point x="300" y="553" type="line"/>
      <point x="425" y="680" type="line"/>
      <point x="266" y="680" type="line"/>
    </contour>
  </outline>
</glyph>
<glyph name="Cdotaccent" format="2">
  <advance width="597"/>
  <unicode hex="010A"/>
  <outline>
    <contour>
      <point x="357" y="-10" type="curve" smooth="yes"/>
      <point x="424" y="-10"/>
      <point x="494" y="-3"/>
      <point x="567" y="12" type="curve"/>
      <point x="567" y="130" type="line"/>
      <point x="485" y="111"/>
      <point x="420" y="101"/>
      <point x="373" y="101" type="curve" smooth="yes"/>
      <point x="266" y="101"/>
      <point x="212" y="130"/>
      <point x="212" y="189" type="curve" smooth="yes"/>
      <point x="212" y="465" type="line" smooth="yes"/>
      <point x="212" y="502"/>
      <point x="227" y="525"/>
      <point x="259" y="536" type="curve" smooth="yes"/>
      <point x="290" y="547"/>
      <point x="314" y="548"/>
      <point x="359" y="548" type="curve" smooth="yes"/>
      <point x="416" y="548"/>
      <point x="484" y="539"/>
      <point x="563" y="520" type="curve"/>
      <point x="563" y="637" type="line"/>
      <point x="475" y="652"/>
      <point x="406" y="659"/>
      <point x="357" y="659" type="curve" smooth="yes"/>
      <point x="156" y="659"/>
      <point x="56" y="594"/>
      <point x="56" y="463" type="curve" smooth="yes"/>
      <point x="56" y="178" type="line" smooth="yes"/>
      <point x="56" y="146"/>
      <point x="63" y="118"/>
      <point x="77" y="95" type="curve" smooth="yes"/>
      <point x="105" y="47"/>
      <point x="145" y="24"/>
      <point x="203" y="9" type="curve" smooth="yes"/>
      <point x="261" y="-7"/>
      <point x="304" y="-10"/>
    </contour>
    <contour>
      <point x="265" y="730" type="line"/>
      <point x="411" y="730" type="line"/>
      <point x="411" y="845" type="line"/>
      <point x="265" y="845" type="line"/>
    </contour>
  </outline>
</glyph>
<glyph name="Dcaron" format="2">
  <advance width="710"/>
  <unicode hex="010E"/>
  <outline>
    <contour>
      <point x="70" y="0" type="line"/>
      <point x="347" y="0" type="line" smooth="yes"/>
      <point x="575" y="0"/>
      <point x="654" y="41"/>
      <point x="654" y="188" type="curve" smooth="yes"/>
      <point x="654" y="452" type="line"/>
      <point x="654" y="605"/>
      <point x="566" y="649"/>
      <point x="346" y="649" type="curve" smooth="yes"/>
      <point x="70" y="649" type="line"/>
    </contour>
    <contour>
      <point x="226" y="111" type="line"/>
      <point x="226" y="538" type="line"/>
      <point x="345" y="538" type="line" smooth="yes"/>
      <point x="448" y="538"/>
      <point x="498" y="518"/>
      <point x="498" y="455" type="curve" smooth="yes"/>
      <point x="498" y="188" type="line"/>
      <point x="498" y="121"/>
      <point x="460" y="111"/>
      <point x="340" y="111" type="curve" smooth="yes"/>
    </contour>
    <contour>
      <point x="262" y="718" type="line"/>
      <point x="449" y="718" type="line"/>
      <point x="505" y="845" type="line"/>
      <point x="407" y="845" type="line"/>
      <point x="355" y="758" type="line"/>
      <point x="302" y="845" type="line"/>
      <point x="204" y="845" type="line"/>
    </contour>
  </outline>
</glyph>
<glyph name="dcaron" format="2">
  <advance width="700"/>
  <unicode hex="010F"/>
  <outline>
    <contour>
      <point x="250" y="-10" type="curve" smooth="yes"/>
      <point x="285" y="-10"/>
      <point x="311" y="-8"/>
      <point x="330" y="-3" type="curve" smooth="yes"/>
      <point x="367" y="5"/>
      <point x="380" y="19"/>
      <point x="403" y="55" type="curve"/>
      <point x="403" y="0" type="line"/>
      <point x="544" y="0" type="line"/>
      <point x="544" y="700" type="line"/>
      <point x="398" y="700" type="line"/>
      <point x="398" y="430" type="line"/>
      <point x="365" y="479"/>
      <point x="339" y="494"/>
      <point x="243" y="494" type="curve" smooth="yes"/>
      <point x="110" y="494"/>
      <point x="50" y="457"/>
      <point x="50" y="348" type="curve" smooth="yes"/>
      <point x="50" y="159" type="line" smooth="yes"/>
      <point x="50" y="16"/>
      <point x="85" y="-10"/>
    </contour>
    <contour>
      <point x="287" y="81" type="curve" smooth="yes"/>
      <point x="208" y="81"/>
      <point x="196" y="97"/>
      <point x="196" y="150" type="curve" smooth="yes"/>
      <point x="196" y="335" type="line" smooth="yes"/>
      <point x="196" y="392"/>
      <point x="206" y="404"/>
      <point x="295" y="404" type="curve" smooth="yes"/>
      <point x="380" y="404"/>
      <point x="398" y="388"/>
      <point x="398" y="340" type="curve" smooth="yes"/>
      <point x="398" y="145" type="line"/>
      <point x="398" y="93"/>
      <point x="382" y="81"/>
    </contour>
    <contour>
      <point x="579" y="537" type="line"/>
      <point x="675" y="537" type="line"/>
      <point x="739" y="700" type="line"/>
      <point x="605" y="700" type="line"/>
    </contour>
  </outline>
</glyph>
<glyph name="dcroat" format="2">
  <advance width="608"/>
  <unicode hex="0111"/>
  <outline>
    <contour>
      <point x="250" y="553" type="line"/>
      <point x="589" y="553" type="line"/>
      <point x="589" y="640" type="line"/>
      <point x="250" y="640" type="line"/>
    </contour>
    <component base="d"/>
  </outline>
</glyph>
<glyph name="Emacron" format="2">
  <advance width="610"/>
  <unicode hex="0112"/>
  <outline>
    <contour>
      <point x="70" y="0" type="line"/>
      <point x="575" y="0" type="line"/>
      <point x="575" y="111" type="line"/>
      <point x="226" y="111" type="line"/>
      <point x="226" y="278" type="line"/>
      <point x="532" y="278" type="line"/>
      <point x="532" y="389" type="line"/>
      <point x="226" y="389" type="line"/>
      <point x="226" y="538" type="line"/>
      <point x="565" y="538" type="line"/>
      <point x="565" y="649" type="line"/>
      <point x="70" y="649" type="line"/>
    </contour>
    <contour>
      <point x="166" y="725" type="line"/>
      <point x="444" y="725" type="line"/>
      <point x="444" y="814" type="line"/>
      <point x="166" y="814" type="line"/>
    </contour>
  </outline>
</glyph>
<glyph name="Ebreve" format="2">
  <advance width="610"/>
  <unicode hex="0114"/>
  <outline>
    <contour>
      <point x="70" y="0" type="line"/>
      <point x="575" y="0" type="line"/>
      <point x="575" y="111" type="line"/>
      <point x="226" y="111" type="line"/>
      <point x="226" y="278" type="line"/>
      <point x="532" y="278" type="line"/>
      <point x="532" y="389" type="line"/>
      <point x="226" y="389" type="line"/>
      <point x="226" y="538" type="line"/>
      <point x="565" y="538" type="line"/>
      <point x="565" y="649" type="line"/>
      <point x="70" y="649" type="line"/>
    </contour>
    <contour>
      <point x="333" y="718" type="curve" smooth="yes"/>
      <point x="414" y="718"/>
      <point x="466" y="769"/>
      <point x="471" y="845" type="curve"/>
      <point x="389" y="845" type="line"/>
      <point x="385" y="808"/>
      <point x="366" y="790"/>
      <point x="333" y="790" type="curve" smooth="yes"/>
      <point x="297" y="790"/>
      <point x="284" y="806"/>
      <point x="276" y="845" type="curve"/>
      <point x="195" y="845" type="line"/>
      <point x="199" y="769"/>
      <point x="250" y="718"/>
    </contour>
  </outline>
</glyph>
<glyph name="Edotaccent" format="2">
  <advance width="610"/>
  <unicode hex="0116"/>
  <outline>
    <contour>
      <point x="70" y="0" type="line"/>
      <point x="575" y="0" type="line"/>
      <point x="575" y="111" type="line"/>
      <point x="226" y="111" type="line"/>
      <point x="226" y="278" type="line"/>
      <point x="532" y="278" type="line"/>
      <point x="532" y="389" type="line"/>
      <point x="226" y="389" type="line"/>
      <point x="226" y="538" type="line"/>
      <point x="565" y="538" type="line"/>
      <point x="565" y="649" type="line"/>
      <point x="70" y="649" type="line"/>
    </contour>
    <contour>
      <point x="252" y="730" type="line"/>
      <point x="398" y="730" type="line"/>
      <point x="398" y="845" type="line"/>
      <point x="252" y="845" type="line"/>
    </contour>
  </outline>
</glyph>
<glyph name="Eogonek" format="2">
  <advance width="610"/>
  <unicode hex="0118"/>
  <outline>
    <contour>
      <point x="70" y="0" type="line"/>
      <point x="575" y="0" type="line"/>
      <point x="575" y="111" type="line"/>
      <point x="226" y="111" type="line"/>
      <point x="226" y="278" type="line"/>
      <point x="532" y="278" type="line"/>
      <point x="532" y="389" type="line"/>
      <point x="226" y="389" type="line"/>
      <point x="226" y="538" type="line"/>
      <point x="565" y="538" type="line"/>
      <point x="565" y="649" type="line"/>
      <point x="70" y="649" type="line"/>
    </contour>
    <contour>
      <point x="505" y="-186" type="curve" smooth="yes"/>
      <point x="538" y="-186"/>
      <point x="561" y="-183"/>
      <point x="575" y="-176" type="curve"/>
      <point x="575" y="-109" type="line"/>
      <point x="563" y="-113"/>
      <point x="553" y="-115"/>
      <point x="545" y="-115" type="curve" smooth="yes"/>
      <point x="516" y="-115"/>
      <point x="507" y="-104"/>
      <point x="507" y="-83" type="curve" smooth="yes"/>
      <point x="507" y="-59"/>
      <point x="517" y="-31"/>
      <point x="537" y="0" type="curve"/>
      <point x="442" y="0" type="line"/>
      <point x="418" y="-37"/>
      <point x="406" y="-73"/>
      <point x="406" y="-106" type="curve" smooth="yes"/>
      <point x="406" y="-163"/>
      <point x="440" y="-186"/>
    </contour>
  </outline>
</glyph>
<glyph name="eogonek" format="2">
  <advance width="559"/>
  <unicode hex="0119"/>
  <outline>
    <contour>
      <point x="441" y="-186" type="curve" smooth="yes"/>
      <point x="474" y="-186"/>
      <point x="497" y="-183"/>
      <point x="511" y="-176" type="curve"/>
      <point x="511" y="-109" type="line"/>
      <point x="499" y="-113"/>
      <point x="489" y="-115"/>
      <point x="481" y="-115" type="curve" smooth="yes"/>
      <point x="452" y="-115"/>
      <point x="443" y="-104"/>
      <point x="443" y="-83" type="curve" smooth="yes"/>
      <point x="443" y="-53"/>
      <point x="450" y="-25"/>
      <point x="463" y="2" type="curve"/>
      <point x="497" y="9" type="line"/>
      <point x="497" y="102" type="line"/>
      <point x="437" y="88"/>
      <point x="383" y="81"/>
      <point x="335" y="81" type="curve" smooth="yes"/>
      <point x="228" y="81"/>
      <point x="197" y="104"/>
      <point x="197" y="159" type="curve" smooth="yes"/>
      <point x="197" y="203" type="line"/>
      <point x="511" y="203" type="line"/>
      <point x="511" y="321" type="line" smooth="yes"/>
      <point x="511" y="450"/>
      <point x="438" y="494"/>
      <point x="289" y="494" type="curve" smooth="yes"/>
      <point x="130" y="494"/>
      <point x="50" y="445"/>
      <point x="50" y="321" type="curve" smooth="yes"/>
      <point x="50" y="147" type="line" smooth="yes"/>
      <point x="50" y="42"/>
      <point x="136" y="-10"/>
      <point x="307" y="-10" type="curve" smooth="yes"/>
      <point x="338" y="-10"/>
      <point x="360" y="-10"/>
      <point x="372" y="-9" type="curve"/>
      <point x="352" y="-43"/>
      <point x="342" y="-75"/>
      <point x="342" y="-106" type="curve" smooth="yes"/>
      <point x="342" y="-163"/>
      <point x="376" y="-186"/>
    </contour>
    <contour>
      <point x="197" y="286" type="line"/>
      <point x="197" y="356" type="line" smooth="yes"/>
      <point x="197" y="371"/>
      <point x="203" y="383"/>
      <point x="216" y="392" type="curve" smooth="yes"/>
      <point x="228" y="400"/>
      <point x="252" y="404"/>
      <point x="287" y="404" type="curve" smooth="yes"/>
      <point x="351" y="404"/>
      <point x="372" y="387"/>
      <point x="372" y="356" type="curve" smooth="yes"/>
      <point x="372" y="286" type="line"/>
    </contour>
  </outline>
</glyph>
<glyph name="Ecaron" format="2">
  <advance width="610"/>
  <unicode hex="011A"/>
  <outline>
    <contour>
      <point x="70" y="0" type="line"/>
      <point x="575" y="0" type="line"/>
      <point x="575" y="111" type="line"/>
      <point x="226" y="111" type="line"/>
      <point x="226" y="278" type="line"/>
      <point x="532" y="278" type="line"/>
      <point x="532" y="389" type="line"/>
      <point x="226" y="389" type="line"/>
      <point x="226" y="538" type="line"/>
      <point x="565" y="538" type="line"/>
      <point x="565" y="649" type="line"/>
      <point x="70" y="649" type="line"/>
    </contour>
    <contour>
      <point x="230" y="718" type="line"/>
      <point x="417" y="718" type="line"/>
      <point x="473" y="845" type="line"/>
      <point x="375" y="845" type="line"/>
      <point x="323" y="758" type="line"/>
      <point x="270" y="845" type="line"/>
      <point x="172" y="845" type="line"/>
    </contour>
  </outline>
</glyph>
<glyph name="ecaron" format="2">
  <advance width="559"/>
  <unicode hex="011B"/>
  <outline>
    <contour>
      <point x="307" y="-10" type="curve" smooth="yes"/>
      <point x="372" y="-10"/>
      <point x="436" y="-4"/>
      <point x="497" y="9" type="curve"/>
      <point x="497" y="102" type="line"/>
      <point x="437" y="88"/>
      <point x="383" y="81"/>
      <point x="335" y="81" type="curve" smooth="yes"/>
      <point x="228" y="81"/>
      <point x="197" y="104"/>
      <point x="197" y="159" type="curve" smooth="yes"/>
      <point x="197" y="203" type="line"/>
      <point x="511" y="203" type="line"/>
      <point x="511" y="321" type="line"/>
      <point x="511" y="450"/>
      <point x="438" y="494"/>
      <point x="289" y="494" type="curve" smooth="yes"/>
      <point x="130" y="494"/>
      <point x="50" y="445"/>
      <point x="50" y="321" type="curve" smooth="yes"/>
      <point x="50" y="147" type="line" smooth="yes"/>
      <point x="50" y="42"/>
      <point x="136" y="-10"/>
    </contour>
    <contour>
      <point x="197" y="286" type="line"/>
      <point x="197" y="356" type="line" smooth="yes"/>
      <point x="197" y="371"/>
      <point x="203" y="383"/>
      <point x="216" y="392" type="curve" smooth="yes"/>
      <point x="228" y="400"/>
      <point x="252" y="404"/>
      <point x="287" y="404" type="curve" smooth="yes"/>
      <point x="351" y="404"/>
      <point x="372" y="387"/>
      <point x="372" y="356" type="curve" smooth="yes"/>
      <point x="372" y="286" type="line"/>
    </contour>
    <contour>
      <point x="187" y="553" type="line"/>
      <point x="374" y="553" type="line"/>
      <point x="430" y="680" type="line"/>
      <point x="332" y="680" type="line"/>
      <point x="280" y="593" type="line"/>
      <point x="227" y="680" type="line"/>
      <point x="129" y="680" type="line"/>
    </contour>
  </outline>
</glyph>
<glyph name="Gbreve" format="2">
  <advance width="641"/>
  <unicode hex="011E"/>
  <outline>
    <contour>
      <point x="361" y="-10" type="curve" smooth="yes"/>
      <point x="441" y="-10"/>
      <point x="518" y="-3"/>
      <point x="591" y="12" type="curve"/>
      <point x="591" y="369" type="line"/>
      <point x="326" y="369" type="line"/>
      <point x="326" y="267" type="line"/>
      <point x="452" y="267" type="line"/>
      <point x="452" y="98" type="line"/>
      <point x="420" y="95"/>
      <point x="395" y="93"/>
      <point x="377" y="93" type="curve" smooth="yes"/>
      <point x="336" y="93"/>
      <point x="298" y="98"/>
      <point x="261" y="110" type="curve" smooth="yes"/>
      <point x="224" y="122"/>
      <point x="199" y="146"/>
      <point x="199" y="181" type="curve" smooth="yes"/>
      <point x="199" y="472" type="line" smooth="yes"/>
      <point x="199" y="487"/>
      <point x="203" y="500"/>
      <point x="210" y="511" type="curve" smooth="yes"/>
      <point x="224" y="533"/>
      <point x="242" y="541"/>
      <point x="274" y="548" type="curve" smooth="yes"/>
      <point x="306" y="555"/>
      <point x="327" y="555"/>
      <point x="363" y="555" type="curve" smooth="yes"/>
      <point x="433" y="555"/>
      <point x="508" y="546"/>
      <point x="587" y="527" type="curve"/>
      <point x="587" y="638" type="line"/>
      <point x="499" y="653"/>
      <point x="424" y="660"/>
      <point x="361" y="660" type="curve" smooth="yes"/>
      <point x="335" y="660"/>
      <point x="310" y="659"/>
      <point x="287" y="657" type="curve" smooth="yes"/>
      <point x="239" y="653"/>
      <point x="171" y="636"/>
      <point x="128" y="609" type="curve" smooth="yes"/>
      <point x="84" y="582"/>
      <point x="50" y="530"/>
      <point x="50" y="463" type="curve" smooth="yes"/>
      <point x="50" y="178" type="line" smooth="yes"/>
      <point x="50" y="146"/>
      <point x="57" y="118"/>
      <point x="72" y="95" type="curve" smooth="yes"/>
      <point x="101" y="47"/>
      <point x="143" y="24"/>
      <point x="203" y="9" type="curve" smooth="yes"/>
      <point x="263" y="-7"/>
      <point x="308" y="-10"/>
    </contour>
    <contour>
      <point x="347" y="703" type="curve" smooth="yes"/>
      <point x="419" y="703"/>
      <point x="466" y="754"/>
      <point x="471" y="830" type="curve"/>
      <point x="403" y="830" type="line"/>
      <point x="399" y="791"/>
      <point x="380" y="772"/>
      <point x="347" y="772" type="curve" smooth="yes"/>
      <point x="312" y="772"/>
      <point x="298" y="790"/>
      <point x="290" y="830" type="curve"/>
      <point x="222" y="830" type="line"/>
      <point x="226" y="754"/>
      <point x="274" y="703"/>
    </contour>
  </outline>
</glyph>
<glyph name="gdotaccent" format="2">
  <advance width="608"/>
  <unicode hex="0121"/>
  <outline>
    <contour>
      <point x="260" y="-220" type="curve" smooth="yes"/>
      <point x="445" y="-220"/>
      <point x="544" y="-167"/>
      <point x="544" y="-26" type="curve" smooth="yes"/>
      <point x="544" y="484" type="line"/>
      <point x="403" y="484" type="line"/>
      <point x="403" y="429" type="line"/>
      <point x="380" y="465"/>
      <point x="367" y="479"/>
      <point x="330" y="488" type="curve" smooth="yes"/>
      <point x="311" y="492"/>
      <point x="285" y="494"/>
      <point x="250" y="494" type="curve" smooth="yes"/>
      <point x="93" y="494"/>
      <point x="50" y="456"/>
      <point x="50" y="325" type="curve" smooth="yes"/>
      <point x="50" y="136" type="line" smooth="yes"/>
      <point x="50" y="24"/>
      <point x="104" y="-10"/>
      <point x="243" y="-10" type="curve" smooth="yes"/>
      <point x="339" y="-10"/>
      <point x="365" y="5"/>
      <point x="398" y="54" type="curve"/>
      <point x="398" y="-24" type="line" smooth="yes"/>
      <point x="398" y="-100"/>
      <point x="357" y="-128"/>
      <point x="260" y="-128" type="curve" smooth="yes"/>
      <point x="209" y="-128"/>
      <point x="150" y="-124"/>
      <point x="85" y="-115" type="curve"/>
      <point x="85" y="-213" type="line"/>
      <point x="126" y="-218"/>
      <point x="184" y="-220"/>
    </contour>
    <contour>
      <point x="295" y="81" type="curve" smooth="yes"/>
      <point x="206" y="81"/>
      <point x="196" y="93"/>
      <point x="196" y="150" type="curve" smooth="yes"/>
      <point x="196" y="335" type="line" smooth="yes"/>
      <point x="196" y="388"/>
      <point x="208" y="404"/>
      <point x="287" y="404" type="curve" smooth="yes"/>
      <point x="382" y="404"/>
      <point x="398" y="392"/>
      <point x="398" y="340" type="curve" smooth="yes"/>
      <point x="398" y="145" type="line"/>
      <point x="398" y="97"/>
      <point x="380" y="81"/>
    </contour>
    <contour>
      <point x="231" y="565" type="line"/>
      <point x="377" y="565" type="line"/>
      <point x="377" y="680" type="line"/>
      <point x="231" y="680" type="line"/>
    </contour>
  </outline>
</glyph>
<glyph name="Gcommaaccent" format="2">
  <advance width="705"/>
  <unicode hex="0122"/>
  <outline>
    <contour>
      <point x="379" y="-10" type="curve" smooth="yes"/>
      <point x="466" y="-10"/>
      <point x="582" y="8"/>
      <point x="649" y="32" type="curve"/>
      <point x="649" y="369" type="line"/>
      <point x="394" y="369" type="line"/>
      <point x="394" y="267" type="line"/>
      <point x="500" y="267" type="line"/>
      <point x="500" y="116" type="line"/>
      <point x="463" y="106"/>
      <point x="428" y="101"/>
      <point x="395" y="101" type="curve" smooth="yes"/>
      <point x="278" y="101"/>
      <point x="212" y="122"/>
      <point x="212" y="189" type="curve" smooth="yes"/>
      <point x="212" y="450" type="line" smooth="yes"/>
      <point x="212" y="515"/>
      <point x="268" y="548"/>
      <point x="381" y="548" type="curve" smooth="yes"/>
      <point x="478" y="548"/>
      <point x="566" y="539"/>
      <point x="645" y="520" type="curve"/>
      <point x="645" y="638" type="line"/>
      <point x="561" y="652"/>
      <point x="473" y="659"/>
      <point x="381" y="659" type="curve" smooth="yes"/>
      <point x="350" y="659"/>
      <point x="321" y="658"/>
      <point x="294" y="655" type="curve" smooth="yes"/>
      <point x="238" y="649"/>
      <point x="173" y="628"/>
      <point x="130" y="599" type="curve" smooth="yes"/>
      <point x="87" y="570"/>
      <point x="56" y="516"/>
      <point x="56" y="448" type="curve" smooth="yes"/>
      <point x="56" y="178" type="line" smooth="yes"/>
      <point x="56" y="147"/>
      <point x="62" y="121"/>
      <point x="74" y="98" type="curve" smooth="yes"/>
      <point x="98" y="53"/>
      <point x="137" y="28"/>
      <point x="195" y="12" type="curve" smooth="yes"/>
      <point x="253" y="-5"/>
      <point x="307" y="-10"/>
    </contour>
    <contour>
      <point x="263" y="-208" type="line"/>
      <point x="359" y="-208" type="line"/>
      <point x="442" y="-46" type="line"/>
      <point x="309" y="-46" type="line"/>
    </contour>
  </outline>
</glyph>
<glyph name="Hcircumflex" format="2">
  <advance width="728"/>
  <unicode hex="0124"/>
  <outline>
    <contour>
      <point x="70" y="0" type="line"/>
      <point x="226" y="0" type="line"/>
      <point x="226" y="278" type="line"/>
      <point x="502" y="278" type="line"/>
      <point x="502" y="0" type="line"/>
      <point x="658" y="0" type="line"/>
      <point x="658" y="649" type="line"/>
      <point x="502" y="649" type="line"/>
      <point x="502" y="389" type="line"/>
      <point x="226" y="389" type="line"/>
      <point x="226" y="649" type="line"/>
      <point x="70" y="649" type="line"/>
    </contour>
    <contour>
      <point x="213" y="718" type="line"/>
      <point x="311" y="718" type="line"/>
      <point x="363" y="805" type="line"/>
      <point x="416" y="718" type="line"/>
      <point x="514" y="718" type="line"/>
      <point x="456" y="845" type="line"/>
      <point x="269" y="845" type="line"/>
    </contour>
  </outline>
</glyph>
<glyph name="Hbar" format="2">
  <advance width="728"/>
  <unicode hex="0126"/>
  <outline>
    <contour>
      <point x="70" y="0" type="line"/>
      <point x="226" y="0" type="line"/>
      <point x="226" y="208" type="line"/>
      <point x="502" y="208" type="line"/>
      <point x="502" y="0" type="line"/>
      <point x="658" y="0" type="line"/>
      <point x="658" y="649" type="line"/>
      <point x="502" y="649" type="line"/>
      <point x="502" y="485" type="line"/>
      <point x="226" y="485" type="line"/>
      <point x="226" y="649" type="line"/>
      <point x="70" y="649" type="line"/>
    </contour>
    <contour>
      <point x="226" y="310" type="line"/>
      <point x="226" y="383" type="line"/>
      <point x="502" y="383" type="line"/>
      <point x="502" y="310" type="line"/>
    </contour>
  </outline>
</glyph>
<glyph name="hbar" format="2">
  <advance width="595"/>
  <unicode hex="0127"/>
  <outline>
    <contour>
      <point x="64" y="0" type="line"/>
      <point x="210" y="0" type="line"/>
      <point x="210" y="338" type="line" smooth="yes"/>
      <point x="210" y="393"/>
      <point x="223" y="404"/>
      <point x="307" y="404" type="curve" smooth="yes"/>
      <point x="375" y="404"/>
      <point x="385" y="391"/>
      <point x="385" y="338" type="curve" smooth="yes"/>
      <point x="385" y="0" type="line"/>
      <point x="531" y="0" type="line"/>
      <point x="531" y="355" type="line" smooth="yes"/>
      <point x="531" y="448"/>
      <point x="491" y="494"/>
      <point x="363" y="494" type="curve" smooth="yes"/>
      <point x="270" y="494"/>
      <point x="219" y="471"/>
      <point x="210" y="425" type="curve"/>
      <point x="210" y="553" type="line"/>
      <point x="358" y="553" type="line"/>
      <point x="358" y="640" type="line"/>
      <point x="210" y="640" type="line"/>
      <point x="210" y="700" type="line"/>
      <point x="64" y="700" type="line"/>
      <point x="64" y="640" type="line"/>
      <point x="19" y="640" type="line"/>
      <point x="19" y="553" type="line"/>
      <point x="64" y="553" type="line"/>
    </contour>
  </outline>
</glyph>
<glyph name="Imacron" format="2">
  <advance width="296"/>
  <unicode hex="012A"/>
  <outline>
    <contour>
      <point x="70" y="0" type="line"/>
      <point x="226" y="0" type="line"/>
      <point x="226" y="649" type="line"/>
      <point x="70" y="649" type="line"/>
    </contour>
    <contour>
      <point x="9" y="725" type="line"/>
      <point x="287" y="725" type="line"/>
      <point x="287" y="814" type="line"/>
      <point x="9" y="814" type="line"/>
    </contour>
  </outline>
</glyph>
<glyph name="imacron" format="2">
  <advance width="282"/>
  <unicode hex="012B"/>
  <outline>
    <contour>
      <point x="68" y="0" type="line"/>
      <point x="214" y="0" type="line"/>
      <point x="214" y="484" type="line"/>
      <point x="68" y="484" type="line"/>
    </contour>
    <contour>
      <point x="2" y="560" type="line"/>
      <point x="280" y="560" type="line"/>
      <point x="280" y="649" type="line"/>
      <point x="2" y="649" type="line"/>
    </contour>
  </outline>
</glyph>
<glyph name="Ibreve" format="2">
  <advance width="296"/>
  <unicode hex="012C"/>
  <outline>
    <contour>
      <point x="70" y="0" type="line"/>
      <point x="226" y="0" type="line"/>
      <point x="226" y="649" type="line"/>
      <point x="70" y="649" type="line"/>
    </contour>
    <contour>
      <point x="148" y="718" type="curve" smooth="yes"/>
      <point x="229" y="718"/>
      <point x="281" y="769"/>
      <point x="286" y="845" type="curve"/>
      <point x="204" y="845" type="line"/>
      <point x="200" y="808"/>
      <point x="181" y="790"/>
      <point x="148" y="790" type="curve" smooth="yes"/>
      <point x="112" y="790"/>
      <point x="99" y="806"/>
      <point x="91" y="845" type="curve"/>
      <point x="10" y="845" type="line"/>
      <point x="14" y="769"/>
      <point x="65" y="718"/>
    </contour>
  </outline>
</glyph>
<glyph name="ibreve" format="2">
  <advance width="282"/>
  <unicode hex="012D"/>
  <outline>
    <contour>
      <point x="68" y="0" type="line"/>
      <point x="214" y="0" type="line"/>
      <point x="214" y="484" type="line"/>
      <point x="68" y="484" type="line"/>
    </contour>
    <contour>
      <point x="141" y="553" type="curve" smooth="yes"/>
      <point x="222" y="553"/>
      <point x="274" y="604"/>
      <point x="279" y="680" type="curve"/>
      <point x="197" y="680" type="line"/>
      <point x="193" y="643"/>
      <point x="174" y="625"/>
      <point x="141" y="625" type="curve" smooth="yes"/>
      <point x="105" y="625"/>
      <point x="92" y="641"/>
      <point x="84" y="680" type="curve"/>
      <point x="3" y="680" type="line"/>
      <point x="7" y="604"/>
      <point x="58" y="553"/>
    </contour>
  </outline>
</glyph>
<glyph name="Iogonek" format="2">
  <advance width="296"/>
  <unicode hex="012E"/>
  <outline>
    <contour>
      <point x="138" y="-186" type="curve" smooth="yes"/>
      <point x="171" y="-186"/>
      <point x="194" y="-183"/>
      <point x="208" y="-176" type="curve"/>
      <point x="208" y="-109" type="line"/>
      <point x="196" y="-113"/>
      <point x="186" y="-115"/>
      <point x="178" y="-115" type="curve" smooth="yes"/>
      <point x="149" y="-115"/>
      <point x="140" y="-104"/>
      <point x="140" y="-83" type="curve" smooth="yes"/>
      <point x="140" y="-51"/>
      <point x="181" y="-15"/>
      <point x="226" y="0" type="curve"/>
      <point x="226" y="649" type="line"/>
      <point x="70" y="649" type="line"/>
      <point x="70" y="0" type="line"/>
      <point x="49" y="-32"/>
      <point x="39" y="-67"/>
      <point x="39" y="-106" type="curve" smooth="yes"/>
      <point x="39" y="-163"/>
      <point x="73" y="-186"/>
    </contour>
  </outline>
</glyph>
<glyph name="iogonek" format="2">
  <advance width="286"/>
  <unicode hex="012F"/>
  <outline>
    <contour>
      <point x="150" y="-186" type="curve" smooth="yes"/>
      <point x="183" y="-186"/>
      <point x="206" y="-183"/>
      <point x="220" y="-176" type="curve"/>
      <point x="220" y="-109" type="line"/>
      <point x="208" y="-113"/>
      <point x="198" y="-115"/>
      <point x="190" y="-115" type="curve" smooth="yes"/>
      <point x="161" y="-115"/>
      <point x="152" y="-104"/>
      <point x="152" y="-83" type="curve" smooth="yes"/>
      <point x="152" y="-50"/>
      <point x="173" y="-22"/>
      <point x="216" y="0" type="curve"/>
      <point x="216" y="484" type="line"/>
      <point x="70" y="484" type="line"/>
      <point x="70" y="0" type="line"/>
      <point x="51" y="-30"/>
      <point x="41" y="-65"/>
      <point x="41" y="-106" type="curve" smooth="yes"/>
      <point x="41" y="-159"/>
      <point x="77" y="-186"/>
    </contour>
  </outline>
</glyph>
<glyph name="Idotaccent" format="2">
  <advance width="296"/>
  <unicode hex="0130"/>
  <outline>
    <contour>
      <point x="70" y="0" type="line"/>
      <point x="226" y="0" type="line"/>
      <point x="226" y="649" type="line"/>
      <point x="70" y="649" type="line"/>
    </contour>
    <contour>
      <point x="75" y="730" type="line"/>
      <point x="221" y="730" type="line"/>
      <point x="221" y="845" type="line"/>
      <point x="75" y="845" type="line"/>
    </contour>
  </outline>
</glyph>
<glyph name="IJ" format="2">
  <advance width="741"/>
  <unicode hex="0132"/>
  <outline>
    <contour>
      <point x="450" y="-10" type="curve" smooth="yes"/>
      <point x="595" y="-10"/>
      <point x="673" y="37"/>
      <point x="673" y="177" type="curve" smooth="yes"/>
      <point x="673" y="649" type="line"/>
      <point x="517" y="649" type="line"/>
      <point x="517" y="172" type="line" smooth="yes"/>
      <point x="517" y="125"/>
      <point x="491" y="101"/>
      <point x="438" y="101" type="curve" smooth="yes"/>
      <point x="405" y="101"/>
      <point x="364" y="105"/>
      <point x="315" y="114" type="curve"/>
      <point x="315" y="0" type="line"/>
      <point x="362" y="-7"/>
      <point x="407" y="-10"/>
    </contour>
    <contour>
      <point x="70" y="0" type="line"/>
      <point x="226" y="0" type="line"/>
      <point x="226" y="649" type="line"/>
      <point x="70" y="649" type="line"/>
    </contour>
  </outline>
</glyph>
<glyph name="ij" format="2">
  <advance width="556"/>
  <unicode hex="0133"/>
  <outline>
    <contour>
      <point x="291" y="-220" type="curve" smooth="yes"/>
      <point x="422" y="-220"/>
      <point x="492" y="-188"/>
      <point x="492" y="-73" type="curve" smooth="yes"/>
      <point x="492" y="484" type="line"/>
      <point x="346" y="484" type="line"/>
      <point x="346" y="-40" type="line" smooth="yes"/>
      <point x="346" y="-115"/>
      <point x="334" y="-124"/>
      <point x="262" y="-124" type="curve" smooth="yes"/>
      <point x="254" y="-124"/>
      <point x="248" y="-124"/>
      <point x="244" y="-123" type="curve"/>
      <point x="244" y="-218" type="line"/>
      <point x="267" y="-219"/>
      <point x="282" y="-220"/>
    </contour>
    <contour>
      <point x="68" y="0" type="line"/>
      <point x="214" y="0" type="line"/>
      <point x="214" y="484" type="line"/>
      <point x="68" y="484" type="line"/>
    </contour>
    <contour>
      <point x="68" y="541" type="line"/>
      <point x="214" y="541" type="line"/>
      <point x="214" y="659" type="line"/>
      <point x="68" y="659" type="line"/>
    </contour>
    <contour>
      <point x="346" y="541" type="line"/>
      <point x="492" y="541" type="line"/>
      <point x="492" y="659" type="line"/>
      <point x="346" y="659" type="line"/>
    </contour>
  </outline>
</glyph>
<glyph name="Jcircumflex" format="2">
  <advance width="445"/>
  <unicode hex="0134"/>
  <outline>
    <contour>
      <point x="154" y="-10" type="curve" smooth="yes"/>
      <point x="299" y="-10"/>
      <point x="377" y="37"/>
      <point x="377" y="177" type="curve" smooth="yes"/>
      <point x="377" y="649" type="line"/>
      <point x="221" y="649" type="line"/>
      <point x="221" y="172" type="line" smooth="yes"/>
      <point x="221" y="125"/>
      <point x="195" y="101"/>
      <point x="142" y="101" type="curve" smooth="yes"/>
      <point x="109" y="101"/>
      <point x="68" y="105"/>
      <point x="19" y="114" type="curve"/>
      <point x="19" y="0" type="line"/>
      <point x="66" y="-7"/>
      <point x="111" y="-10"/>
    </contour>
    <contour>
      <point x="148" y="718" type="line"/>
      <point x="246" y="718" type="line"/>
      <point x="298" y="805" type="line"/>
      <point x="351" y="718" type="line"/>
      <point x="449" y="718" type="line"/>
      <point x="391" y="845" type="line"/>
      <point x="204" y="845" type="line"/>
    </contour>
  </outline>
</glyph>
<glyph name="jcircumflex" format="2">
  <advance width="274"/>
  <unicode hex="0135"/>
  <outline>
    <contour>
      <point x="9" y="-220" type="curve" smooth="yes"/>
      <point x="140" y="-220"/>
      <point x="210" y="-188"/>
      <point x="210" y="-73" type="curve" smooth="yes"/>
      <point x="210" y="484" type="line"/>
      <point x="64" y="484" type="line"/>
      <point x="64" y="-40" type="line" smooth="yes"/>
      <point x="64" y="-115"/>
      <point x="52" y="-124"/>
      <point x="-20" y="-124" type="curve" smooth="yes"/>
      <point x="-28" y="-124"/>
      <point x="-34" y="-124"/>
      <point x="-38" y="-123" type="curve"/>
      <point x="-38" y="-218" type="line"/>
      <point x="-15" y="-219"/>
      <point x="0" y="-220"/>
    </contour>
    <contour>
      <point x="-13" y="553" type="line"/>
      <point x="85" y="553" type="line"/>
      <point x="137" y="640" type="line"/>
      <point x="190" y="553" type="line"/>
      <point x="288" y="553" type="line"/>
      <point x="230" y="680" type="line"/>
      <point x="43" y="680" type="line"/>
    </contour>
  </outline>
</glyph>
<glyph name="Kcommaaccent" format="2">
  <advance width="682"/>
  <unicode hex="0136"/>
  <outline>
    <contour>
      <point x="493" y="0" type="line"/>
      <point x="683" y="0" type="line"/>
      <point x="410" y="347" type="line"/>
      <point x="656" y="649" type="line"/>
      <point x="473" y="649" type="line"/>
      <point x="230" y="344" type="line"/>
    </contour>
    <contour>
      <point x="251" y="-208" type="line"/>
      <point x="347" y="-208" type="line"/>
      <point x="430" y="-46" type="line"/>
      <point x="297" y="-46" type="line"/>
    </contour>
    <contour>
      <point x="70" y="0" type="line"/>
      <point x="226" y="0" type="line"/>
      <point x="226" y="649" type="line"/>
      <point x="70" y="649" type="line"/>
    </contour>
  </outline>
</glyph>
<glyph name="kcommaaccent" format="2">
  <advance width="540"/>
  <unicode hex="0137"/>
  <outline>
    <contour>
      <point x="391" y="0" type="line"/>
      <point x="556" y="0" type="line"/>
      <point x="374" y="273" type="line"/>
      <point x="542" y="484" type="line"/>
      <point x="375" y="484" type="line"/>
      <point x="216" y="272" type="line"/>
    </contour>
    <contour>
      <point x="180" y="-208" type="line"/>
      <point x="276" y="-208" type="line"/>
      <point x="359" y="-46" type="line"/>
      <point x="226" y="-46" type="line"/>
    </contour>
    <contour>
      <point x="64" y="0" type="line"/>
      <point x="210" y="0" type="line"/>
      <point x="210" y="700" type="line"/>
      <point x="64" y="700" type="line"/>
    </contour>
  </outline>
</glyph>
<glyph name="kgreenlandic" format="2">
  <advance width="540"/>
  <unicode hex="0138"/>
  <outline>
    <contour>
      <point x="391" y="0" type="line"/>
      <point x="556" y="0" type="line"/>
      <point x="374" y="263" type="line"/>
      <point x="542" y="484" type="line"/>
      <point x="375" y="484" type="line"/>
      <point x="216" y="262" type="line"/>
    </contour>
    <contour>
      <point x="64" y="0" type="line"/>
      <point x="210" y="0" type="line"/>
      <point x="210" y="484" type="line"/>
      <point x="64" y="484" type="line"/>
    </contour>
  </outline>
</glyph>
<glyph name="Lacute" format="2">
  <advance width="580"/>
  <unicode hex="0139"/>
  <outline>
    <contour>
      <point x="70" y="0" type="line"/>
      <point x="545" y="0" type="line"/>
      <point x="545" y="111" type="line"/>
      <point x="226" y="111" type="line"/>
      <point x="226" y="649" type="line"/>
      <point x="70" y="649" type="line"/>
    </contour>
    <contour>
      <point x="92" y="718" type="line"/>
      <point x="216" y="718" type="line"/>
      <point x="341" y="845" type="line"/>
      <point x="182" y="845" type="line"/>
    </contour>
  </outline>
</glyph>
<glyph name="lacute" format="2">
  <advance width="282"/>
  <unicode hex="013A"/>
  <outline>
    <contour>
      <point x="68" y="0" type="line"/>
      <point x="214" y="0" type="line"/>
      <point x="214" y="700" type="line"/>
      <point x="68" y="700" type="line"/>
    </contour>
    <contour>
      <point x="79" y="747" type="line"/>
      <point x="203" y="747" type="line"/>
      <point x="328" y="874" type="line"/>
      <point x="169" y="874" type="line"/>
    </contour>
  </outline>
</glyph>
<glyph name="Lcommaaccent" format="2">
  <advance width="580"/>
  <unicode hex="013B"/>
  <outline>
    <contour>
      <point x="70" y="0" type="line"/>
      <point x="545" y="0" type="line"/>
      <point x="545" y="111" type="line"/>
      <point x="226" y="111" type="line"/>
      <point x="226" y="649" type="line"/>
      <point x="70" y="649" type="line"/>
    </contour>
    <contour>
      <point x="200" y="-208" type="line"/>
      <point x="296" y="-208" type="line"/>
      <point x="379" y="-46" type="line"/>
      <point x="246" y="-46" type="line"/>
    </contour>
  </outline>
</glyph>
<glyph name="lcommaaccent" format="2">
  <advance width="282"/>
  <unicode hex="013C"/>
  <outline>
    <contour>
      <point x="68" y="0" type="line"/>
      <point x="214" y="0" type="line"/>
      <point x="214" y="700" type="line"/>
      <point x="68" y="700" type="line"/>
    </contour>
    <contour>
      <point x="32" y="-208" type="line"/>
      <point x="128" y="-208" type="line"/>
      <point x="211" y="-46" type="line"/>
      <point x="78" y="-46" type="line"/>
    </contour>
  </outline>
</glyph>
<glyph name="Lcaron" format="2">
  <advance width="580"/>
  <unicode hex="013D"/>
  <outline>
    <contour>
      <point x="70" y="0" type="line"/>
      <point x="545" y="0" type="line"/>
      <point x="545" y="111" type="line"/>
      <point x="226" y="111" type="line"/>
      <point x="226" y="649" type="line"/>
      <point x="70" y="649" type="line"/>
    </contour>
    <contour>
      <point x="257" y="486" type="line"/>
      <point x="353" y="486" type="line"/>
      <point x="417" y="649" type="line"/>
      <point x="283" y="649" type="line"/>
    </contour>
  </outline>
</glyph>
<glyph name="lcaron" format="2">
  <advance width="364"/>
  <unicode hex="013E"/>
  <outline>
    <contour>
      <point x="68" y="0" type="line"/>
      <point x="214" y="0" type="line"/>
      <point x="214" y="700" type="line"/>
      <point x="68" y="700" type="line"/>
    </contour>
    <contour>
      <point x="243" y="537" type="line"/>
      <point x="339" y="537" type="line"/>
      <point x="403" y="700" type="line"/>
      <point x="269" y="700" type="line"/>
    </contour>
  </outline>
</glyph>
<glyph name="Ldot" format="2">
  <advance width="580"/>
  <unicode hex="013F"/>
  <outline>
    <contour>
      <point x="70" y="0" type="line"/>
      <point x="545" y="0" type="line"/>
      <point x="545" y="111" type="line"/>
      <point x="226" y="111" type="line"/>
      <point x="226" y="649" type="line"/>
      <point x="70" y="649" type="line"/>
    </contour>
    <contour>
      <point x="273" y="265" type="line"/>
      <point x="420" y="265" type="line"/>
      <point x="420" y="403" type="line"/>
      <point x="273" y="403" type="line"/>
    </contour>
  </outline>
</glyph>
<glyph name="ldot" format="2">
  <advance width="393"/>
  <unicode hex="0140"/>
  <outline>
    <contour>
      <point x="68" y="0" type="line"/>
      <point x="214" y="0" type="line"/>
      <point x="214" y="700" type="line"/>
      <point x="68" y="700" type="line"/>
    </contour>
    <contour>
      <point x="256" y="262" type="line"/>
      <point x="403" y="262" type="line"/>
      <point x="403" y="400" type="line"/>
      <point x="256" y="400" type="line"/>
    </contour>
  </outline>
</glyph>
<glyph name="Lslash" format="2">
  <advance width="580"/>
  <unicode hex="0141"/>
  <outline>
    <contour>
      <point x="70" y="0" type="line"/>
      <point x="545" y="0" type="line"/>
      <point x="545" y="111" type="line"/>
      <point x="226" y="111" type="line"/>
      <point x="226" y="285" type="line"/>
      <point x="356" y="323" type="line"/>
      <point x="356" y="428" type="line"/>
      <point x="226" y="390" type="line"/>
      <point x="226" y="649" type="line"/>
      <point x="70" y="649" type="line"/>
      <point x="70" y="345" type="line"/>
      <point x="10" y="328" type="line"/>
      <point x="10" y="223" type="line"/>
      <point x="70" y="240" type="line"/>
    </contour>
  </outline>
</glyph>
<glyph name="lslash" format="2">
  <advance width="282"/>
  <unicode hex="0142"/>
  <outline>
    <contour>
      <point x="68" y="0" type="line"/>
      <point x="214" y="0" type="line"/>
      <point x="214" y="361" type="line"/>
      <point x="272" y="383" type="line"/>
      <point x="272" y="484" type="line"/>
      <point x="214" y="462" type="line"/>
      <point x="214" y="700" type="line"/>
      <point x="68" y="700" type="line"/>
      <point x="68" y="406" type="line"/>
      <point x="10" y="384" type="line"/>
      <point x="10" y="283" type="line"/>
      <point x="68" y="305" type="line"/>
    </contour>
  </outline>
</glyph>
